# File produced by Open Asset Import Library (http://www.assimp.sf.net)
# (assimp v5.2.0)

mtllib a2_cut_0__7_1.mtl

# 144 vertex positions
v  -1083.99976 818.864441 -501.297943
v  -1077.99963 827.203247 -507.504578
v  -1077.99963 818.864441 -501.297943
v  -1084 828.540649 -508.5
v  -1043.34692 828.540649 -508.5
v  -1043.18408 827.810974 -507.956879
v  -1077.99963 817.912292 -479.5
v  -1084 817.912292 -479.500519
v  -1083.99976 818.864441 -457.702057
v  -1077.99963 818.864441 -457.702057
v  -1084 828.540649 -450.5
v  -1062.99963 860.75 -450.5
v  -1084 971.763062 -450.5
v  -1043.34692 828.540649 -450.5
v  -1062.99963 971.396484 -450.5
v  -1043.34692 860.75 -450.5
v  -1041.47449 860.75 -457.611633
v  -1040.12976 860.75 -464.841675
v  -1039.32007 860.75 -472.15097
v  -1039.04956 860.75 -479.5
v  -1062.99963 860.75 -508.5
v  -1039.32007 860.75 -486.84903
v  -1040.12976 860.75 -494.158325
v  -1041.47449 860.75 -501.388367
v  -1043.34692 860.75 -508.5
v  -1062.99963 971.396484 -508.5
v  -1077.99963 827.203247 -451.495422
v  -1043.18408 827.810974 -451.043121
v  -1084 971.763062 -508.5
v  -1041.38232 827.842407 -500.973206
v  -1040.08862 827.86499 -493.877838
v  -1039.30969 827.878601 -486.707672
v  -1039.04956 827.883118 -479.5
v  -1039.30969 827.878601 -472.292328
v  -1040.08862 827.86499 -465.122162
v  -1041.38232 827.842407 -458.026794
v  -1060.29956 827.512207 -479.5
v  -1059.51562 827.525879 -483.44165
v  -1059.51562 827.525879 -475.55835
v  -1057.28284 827.56488 -486.783203
v  -1057.28284 827.56488 -472.216797
v  -1053.94128 827.62323 -489.015961
v  -1053.94128 827.62323 -469.984039
v  -1049.99963 827.692017 -489.799988
v  -1049.99963 827.692017 -469.200012
v  -1046.05798 827.760803 -489.015961
v  -1046.05798 827.760803 -469.984039
v  -1042.71643 827.819153 -486.783203
v  -1042.71643 827.819153 -472.216797
v  -1040.48364 827.858093 -483.44165
v  -1040.48364 827.858093 -475.55835
v  -1039.69958 827.871765 -479.5
v  -1062.16687 822.478882 -472.65744
v  -1062.16687 822.478882 -486.34256
v  -1061.95752 810.480713 -486.34256
v  -1061.95752 810.480713 -472.65744
v  -1050.10767 810.687561 -493.18512
v  -1054.3595 810.613342 -490.124603
v  -1049.95923 810.690125 -491
v  -1058.08972 810.548218 -487.631714
v  -1045.55908 810.766907 -490.124603
v  -1060.58228 810.5047 -483.900848
v  -1038.25781 810.894348 -486.34256
v  -1061.45752 810.489441 -479.5
v  -1041.82886 810.832031 -487.631714
v  -1039.3363 810.875549 -483.900848
v  -1060.58228 810.5047 -475.099152
v  -1038.46106 810.890808 -479.5
v  -1058.08972 810.548218 -471.368286
v  -1038.25781 810.894348 -472.65744
v  -1054.3595 810.613342 -468.875397
v  -1039.3363 810.875549 -475.099152
v  -1050.10767 810.687561 -465.81488
v  -1041.82886 810.832031 -471.368286
v  -1049.95923 810.690125 -468
v  -1045.55908 810.766907 -468.875397
v  -1050.31702 822.68573 -493.18512
v  -1038.46716 822.892517 -472.65744
v  -1050.31702 822.68573 -465.81488
v  -1038.46716 822.892517 -486.34256
v  -1046.05798 822.760071 -469.984039
v  -1049.99963 822.691223 -469.200012
v  -1042.71643 822.818359 -472.216797
v  -1053.94128 822.622437 -469.984039
v  -1040.48364 822.857361 -475.55835
v  -1039.69958 822.871033 -479.5
v  -1057.28284 822.564087 -472.216797
v  -1059.51562 822.525146 -475.55835
v  -1040.48364 822.857361 -483.44165
v  -1060.29956 822.511475 -479.5
v  -1042.71643 822.818359 -486.783203
v  -1046.05798 822.760071 -489.015961
v  -1059.51562 822.525146 -483.44165
v  -1057.28284 822.564087 -486.783203
v  -1049.99963 822.691223 -489.799988
v  -1053.94128 822.622437 -489.015961
v  -1038.35632 804.891724 -479.5
v  -1039.23157 804.876465 -483.900848
v  -1041.72412 804.832947 -487.631714
v  -1039.23157 804.876465 -475.099152
v  -1045.45435 804.767822 -490.124603
v  -1041.72412 804.832947 -471.368286
v  -1049.85461 804.69104 -491
v  -1045.45435 804.767822 -468.875397
v  -1054.25476 804.614258 -490.124603
v  -1049.85461 804.69104 -468
v  -1057.98511 804.549133 -487.631714
v  -1054.25476 804.614258 -468.875397
v  -1060.47754 804.505615 -483.900848
v  -1057.98511 804.549133 -471.368286
v  -1061.35278 804.490356 -479.5
v  -1060.47754 804.505615 -475.099152
v  -1049.99963 764.663208 -473.174988
v  -1047.5791 764.663208 -473.656464
v  -1049.99963 804.688477 -473.174988
v  -1047.5791 804.730774 -473.656464
v  -1052.42004 804.64624 -473.656464
v  -1045.5271 764.663208 -475.027557
v  -1052.42004 764.663208 -473.656464
v  -1045.5271 804.766541 -475.027557
v  -1054.47205 804.610413 -475.027557
v  -1044.15613 764.663208 -477.079529
v  -1054.47205 764.663208 -475.027557
v  -1044.15613 804.790527 -477.079529
v  -1055.84314 804.586487 -477.079529
v  -1043.67456 764.663208 -479.5
v  -1055.84314 764.663208 -477.079529
v  -1043.67456 804.798889 -479.5
v  -1056.32458 804.578125 -479.5
v  -1044.15613 804.790527 -481.920471
v  -1056.32458 764.663208 -479.5
v  -1044.15613 764.663208 -481.920471
v  -1055.84314 764.663208 -481.920471
v  -1045.5271 804.766541 -483.972443
v  -1055.84314 804.586487 -481.920471
v  -1045.5271 764.663208 -483.972443
v  -1054.47205 764.663208 -483.972443
v  -1047.5791 804.730774 -485.343536
v  -1054.47205 804.610413 -483.972443
v  -1047.5791 764.663208 -485.343536
v  -1052.42004 764.663208 -485.343536
v  -1049.99963 804.688477 -485.825012
v  -1052.42004 804.64624 -485.343536
v  -1049.99963 764.663208 -485.825012

# 0 UV coordinates

# 144 vertex normals
vn 9.94948209e-07 -0.944024205 -0.329876393
vn 0.326242357 -0.94155246 -0.0839344189
vn 0.704742908 -0.673371553 -0.223401517
vn -3.01362881e-08 -0.0188882723 -0.999821544
vn 0.00862402841 -0.0293075889 -0.999533236
vn 0.510832191 -0.845334888 -0.156394765
vn 0.857530296 -0.514433324 -4.68872552e-10
vn 1.13927048e-10 -1 -1.82283277e-09
vn -1.73183651e-06 -0.944025993 0.329871058
vn 0.704742908 -0.673371553 0.223401517
vn -3.01362881e-08 -0.0188882723 0.999821544
vn 0.86212945 0.134249583 0.488579512
vn 0.00388781377 0.222723946 0.974873841
vn 0.00862402841 -0.0293075889 0.999533296
vn 0.886805296 0.334410071 0.3189767
vn 0.332615495 0.184847519 0.924769342
vn 0.904860258 0.368609607 0.212966695
vn 0.910909116 0.386219829 0.145185351
vn 0.908779621 0.410034508 0.0774038807
vn 0.484990776 0.874519289 -4.83339091e-10
vn 0.647979736 0.201804981 -0.734436393
vn 0.908779621 0.410034508 -0.0774038807
vn 0.910909116 0.386219829 -0.145185351
vn 0.904860258 0.368609607 -0.21296671
vn 0.332615495 0.184847519 -0.924769342
vn 0.979807436 0.09282846 -0.177088663
vn 0.326242387 -0.941552401 0.0839344263
vn 0.51083225 -0.845334947 0.156394765
vn 0.0072543961 0.415587753 -0.909524202
vn 0.949913204 -0.242555827 -0.197057754
vn 0.981250942 -0.141588256 -0.130764753
vn 0.996237457 -0.0625544712 -0.0599828362
vn 0.998748481 -0.0500139259 0
vn 0.996237457 -0.0625544712 0.0599828437
vn 0.981250942 -0.141588241 0.130764723
vn 0.949913204 -0.242555827 0.197057754
vn -0.0495968424 -0.998769343 -0
vn -0.230665848 -0.96531713 -0.122295663
vn -0.230665833 -0.96531713 0.12229567
vn -0.147190496 -0.971180618 -0.187464938
vn -0.147190481 -0.971180618 0.187464923
vn -0.00526000699 -0.997741222 -0.0669690073
vn -0.00526000932 -0.997741222 0.0669690073
vn 0.0357259326 -0.957302928 -0.286870837
vn 0.0357259251 -0.957302928 0.286870867
vn 0.200151309 -0.905949056 -0.373089343
vn 0.200151309 -0.905949056 0.373089343
vn 0.515723526 -0.734924853 -0.440357357
vn 0.515723646 -0.734924853 0.440357387
vn 0.883948207 -0.360992908 -0.297186285
vn 0.883948207 -0.360992908 0.297186285
vn 0.991694689 -0.128614292 0
vn -0.85844934 0.137348935 0.494165987
vn -0.744334817 0.184824154 -0.641720951
vn -0.939594865 -0.104128428 -0.326065272
vn -0.855838656 -0.148266599 0.495537341
vn -0.187192887 -0.0757022426 -0.979401827
vn -0.304662526 -0.26964131 -0.91349566
vn 0.0683971047 -0.234288648 -0.969758034
vn -0.642151535 -0.209420979 -0.737417221
vn 0.435085595 -0.221991181 -0.872594118
vn -0.905372739 -0.19656752 -0.37637952
vn 0.865658104 -0.0358410887 -0.499350995
vn -0.908224165 -0.418484211 -8.26525781e-09
vn 0.743537962 -0.163181186 -0.648477554
vn 0.929699063 -0.193139195 -0.313618839
vn -0.915788889 -0.25351131 0.311548829
vn 0.959309459 -0.282357216 0
vn -0.733848453 -0.211023152 0.645705581
vn 0.755296528 -0.0534628443 0.653198957
vn -0.422540873 -0.271695524 0.86466223
vn 0.914778233 -0.142923385 0.377827793
vn -0.187192887 -0.0757022575 0.979401827
vn 0.651456416 -0.16478996 0.740573347
vn -0.0601819195 -0.23653549 0.969757259
vn 0.316118896 -0.224067152 0.921880007
vn 0.183606148 0.165744707 -0.968926013
vn 0.930490017 0.172193393 0.323322892
vn 0.183606207 0.165744707 0.968925893
vn 0.837675452 0.249075055 -0.486067176
vn 0.253644347 0.573886931 0.77866447
vn -0.0674617514 0.410399228 0.909407139
vn 0.61653924 0.338481992 0.710851133
vn -0.354853153 0.624058008 0.696154356
vn 0.831729293 0.369746149 0.414142728
vn 0.902519584 0.430648893 0
vn -0.697611749 0.383822352 0.604994416
vn -0.858038068 0.425227016 0.288015068
vn 0.831729293 0.369746149 -0.414142728
vn -0.62008667 0.784533262 0
vn 0.61653924 0.338481992 -0.710851133
vn 0.253644347 0.573886931 -0.77866447
vn -0.858038008 0.425227016 -0.288015008
vn -0.697611749 0.383822381 -0.604994476
vn -0.0674617514 0.410399228 -0.909407139
vn -0.354853123 0.624057949 -0.696154356
vn 0.921149254 -0.389209569 4.38530945e-09
vn 0.727360725 -0.587743342 -0.354265511
vn 0.538257837 -0.588929892 -0.602859855
vn 0.625693798 -0.737624466 0.253805935
vn 0.268132091 -0.590340734 -0.761316657
vn 0.613217592 -0.58761853 0.527890682
vn -0.0430542901 -0.591724038 -0.804990053
vn 0.366376162 -0.588625908 0.72061646
vn -0.34842819 -0.592866123 -0.726021707
vn 0.063678503 -0.589864373 0.80498755
vn -0.600975096 -0.593595743 -0.535231709
vn -0.249446526 -0.591135442 0.767030239
vn -0.617484748 -0.741987348 -0.261088848
vn -0.52497375 -0.592271328 0.611242354
vn -0.828969002 -0.559294701 -8.04520628e-09
vn -0.719813347 -0.593092084 0.360708266
vn -0.0645935386 -0.213295847 0.974850059
vn 0.32075417 -0.0079958979 0.947128773
vn 0.0681439787 -0.161505118 0.984516442
vn 0.4393664 -0.162895769 0.883414984
vn -0.314036578 -0.160176218 0.935801566
vn 0.658499718 -0.0307250284 0.751953423
vn -0.442921937 -0.00801196042 0.896524429
vn 0.743409038 -0.16413036 0.648385823
vn -0.648778498 -0.159103692 0.744158924
vn 0.777371347 -0.498196304 0.384049654
vn -0.751960933 -0.0308394767 0.658486009
vn 0.93448019 -0.16503495 0.315452158
vn -0.884653449 -0.158473834 0.438490987
vn 0.99998194 -0.00599975931 0
vn -0.884608448 -0.357409984 0.299543113
vn 0.937551081 -0.347847551 1.42877335e-10
vn -0.998018265 -0.0629242212 -0
vn 0.934480309 -0.16503495 -0.315452158
vn -0.999927342 -0.0120609114 -0
vn 0.847070336 -0.327632904 -0.418483496
vn -0.81209296 -0.514671445 -0.274988174
vn 0.743409038 -0.164130375 -0.648385823
vn -0.884653449 -0.158473834 -0.438490987
vn 0.658789754 -0.00798899028 -0.752284586
vn -0.7522946 -0.00801877398 -0.658778191
vn 0.439366341 -0.162895754 -0.883414984
vn -0.648778498 -0.159103692 -0.744158924
vn 0.313911736 -0.205598846 -0.926924229
vn -0.441760838 -0.0727992058 -0.894174278
vn 0.0681439787 -0.161505088 -0.984516382
vn -0.314036548 -0.160176218 -0.935801566
vn -0.0661128834 -0.00800461136 -0.997780085

# Mesh '0' with 279 faces
g 0
usemtl RAL9007
f  1//1 2//2 3//3
f  2//2 1//1 4//4
f  5//5 2//2 4//4
f  2//2 5//5 6//6
f  7//7 1//1 3//3
f  1//1 7//7 8//8
f  7//7 9//9 8//8
f  7//7 10//10 9//9
f  11//11 12//12 13//13
f  12//12 11//11 14//14
f  13//13 12//12 15//15
f  16//16 12//12 14//14
f  12//12 16//16 17//17
f  17//17 18//18 12//12
f  18//18 19//19 12//12
f  19//19 20//20 12//12
f  12//12 20//20 21//21
f  21//21 20//20 22//22
f  21//21 22//22 23//23
f  23//23 24//24 21//21
f  25//25 21//21 24//24
f  26//26 15//15 12//12
f  12//12 21//21 26//26
f  27//27 14//14 11//11
f  14//14 27//27 28//28
f  9//9 27//27 11//11
f  27//27 9//9 10//10
f  7//7 3//3 2//2
f  2//2 27//27 7//7
f  7//7 27//27 10//10
f  29//29 13//13 15//15
f  15//15 26//26 29//29
f  6//6 25//25 24//24
f  5//5 25//25 6//6
f  6//6 24//24 30//30
f  30//30 24//24 23//23
f  30//30 23//23 31//31
f  31//31 23//23 22//22
f  22//22 32//32 31//31
f  22//22 20//20 32//32
f  20//20 33//33 32//32
f  33//33 20//20 34//34
f  34//34 20//20 19//19
f  34//34 19//19 35//35
f  35//35 19//19 18//18
f  36//36 35//35 18//18
f  18//18 17//17 36//36
f  28//28 36//36 17//17
f  28//28 17//17 16//16
f  16//16 14//14 28//28
f  27//27 2//2 37//37
f  38//38 37//37 2//2
f  37//37 39//39 27//27
f  40//40 38//38 2//2
f  39//39 41//41 27//27
f  2//2 42//42 40//40
f  43//43 27//27 41//41
f  6//6 42//42 2//2
f  27//27 43//43 28//28
f  44//44 42//42 6//6
f  43//43 45//45 28//28
f  6//6 30//30 44//44
f  36//36 28//28 45//45
f  46//46 44//44 30//30
f  45//45 47//47 36//36
f  30//30 31//31 46//46
f  36//36 47//47 35//35
f  46//46 31//31 48//48
f  49//49 35//35 47//47
f  32//32 48//48 31//31
f  35//35 49//49 34//34
f  50//50 48//48 32//32
f  49//49 51//51 34//34
f  32//32 33//33 50//50
f  33//33 34//34 51//51
f  50//50 33//33 52//52
f  51//51 52//52 33//33
f  53//53 54//54 55//55
f  55//55 56//56 53//53
f  55//55 57//57 58//58
f  59//59 58//58 57//57
f  55//55 58//58 60//60
f  61//61 59//59 57//57
f  62//62 55//55 60//60
f  63//63 61//61 57//57
f  62//62 64//64 55//55
f  65//65 61//61 63//63
f  55//55 64//64 56//56
f  63//63 66//66 65//65
f  67//67 56//56 64//64
f  63//63 68//68 66//66
f  69//69 56//56 67//67
f  68//68 63//63 70//70
f  56//56 69//69 71//71
f  70//70 72//72 68//68
f  71//71 73//73 56//56
f  72//72 70//70 74//74
f  75//75 73//73 71//71
f  76//76 74//74 70//70
f  75//75 76//76 73//73
f  70//70 73//73 76//76
f  77//77 57//57 54//54
f  55//55 54//54 57//57
f  70//70 78//78 79//79
f  79//79 73//73 70//70
f  70//70 63//63 78//78
f  80//80 78//78 63//63
f  5//5 21//21 25//25
f  21//21 5//5 4//4
f  29//29 21//21 4//4
f  21//21 29//29 26//26
f  53//53 56//56 73//73
f  73//73 79//79 53//53
f  81//81 79//79 78//78
f  79//79 81//81 82//82
f  78//78 83//83 81//81
f  84//84 79//79 82//82
f  83//83 78//78 85//85
f  53//53 79//79 84//84
f  86//86 85//85 78//78
f  84//84 87//87 53//53
f  78//78 80//80 86//86
f  88//88 53//53 87//87
f  89//89 86//86 80//80
f  90//90 53//53 88//88
f  91//91 89//89 80//80
f  53//53 90//90 54//54
f  80//80 92//92 91//91
f  54//54 90//90 93//93
f  77//77 92//92 80//80
f  94//94 54//54 93//93
f  77//77 95//95 92//92
f  94//94 96//96 54//54
f  77//77 96//96 95//95
f  96//96 77//77 54//54
f  57//57 77//77 63//63
f  80//80 63//63 77//77
f  90//90 37//37 93//93
f  37//37 90//90 88//88
f  93//93 37//37 38//38
f  39//39 37//37 88//88
f  94//94 93//93 38//38
f  39//39 88//88 87//87
f  38//38 40//40 94//94
f  39//39 87//87 41//41
f  96//96 94//94 40//40
f  84//84 41//41 87//87
f  96//96 40//40 42//42
f  43//43 41//41 84//84
f  42//42 95//95 96//96
f  43//43 84//84 82//82
f  44//44 95//95 42//42
f  43//43 82//82 45//45
f  95//95 44//44 92//92
f  45//45 82//82 81//81
f  46//46 92//92 44//44
f  45//45 81//81 47//47
f  91//91 92//92 46//46
f  47//47 81//81 83//83
f  91//91 46//46 48//48
f  49//49 47//47 83//83
f  91//91 48//48 89//89
f  83//83 85//85 49//49
f  50//50 89//89 48//48
f  49//49 85//85 51//51
f  86//86 89//89 50//50
f  85//85 86//86 51//51
f  52//52 86//86 50//50
f  86//86 52//52 51//51
f  97//97 98//98 66//66
f  66//66 98//98 65//65
f  66//66 68//68 97//97
f  98//98 99//99 65//65
f  97//97 68//68 72//72
f  61//61 65//65 99//99
f  100//100 97//97 72//72
f  99//99 101//101 61//61
f  102//102 100//100 72//72
f  61//61 101//101 59//59
f  72//72 74//74 102//102
f  101//101 103//103 59//59
f  104//104 102//102 74//74
f  58//58 59//59 103//103
f  76//76 104//104 74//74
f  103//103 105//105 58//58
f  106//106 104//104 76//76
f  58//58 105//105 60//60
f  76//76 75//75 106//106
f  105//105 107//107 60//60
f  108//108 106//106 75//75
f  62//62 60//60 107//107
f  71//71 108//108 75//75
f  107//107 109//109 62//62
f  110//110 108//108 71//71
f  109//109 111//111 62//62
f  71//71 69//69 110//110
f  111//111 64//64 62//62
f  112//112 110//110 69//69
f  67//67 64//64 111//111
f  67//67 112//112 69//69
f  111//111 112//112 67//67
f  113//113 114//114 115//115
f  115//115 114//114 116//116
f  113//113 115//115 117//117
f  114//114 118//118 116//116
f  119//119 113//113 117//117
f  120//120 116//116 118//118
f  117//117 121//121 119//119
f  118//118 122//122 120//120
f  123//123 119//119 121//121
f  124//124 120//120 122//122
f  125//125 123//123 121//121
f  122//122 126//126 124//124
f  127//127 123//123 125//125
f  124//124 126//126 128//128
f  125//125 129//129 127//127
f  130//130 128//128 126//126
f  131//131 127//127 129//129
f  126//126 132//132 130//130
f  133//133 131//131 129//129
f  132//132 134//134 130//130
f  135//135 133//133 129//129
f  132//132 136//136 134//134
f  137//137 133//133 135//135
f  134//134 136//136 138//138
f  135//135 139//139 137//137
f  136//136 140//140 138//138
f  141//141 137//137 139//139
f  140//140 142//142 138//138
f  139//139 143//143 141//141
f  144//144 142//142 140//140
f  144//144 141//141 143//143
f  143//143 142//142 144//144
f  116//116 120//120 104//104
f  104//104 120//120 102//102
f  104//104 106//106 116//116
f  102//102 120//120 124//124
f  116//116 106//106 115//115
f  100//100 102//102 124//124
f  108//108 115//115 106//106
f  128//128 100//100 124//124
f  115//115 108//108 117//117
f  100//100 128//128 97//97
f  117//117 108//108 110//110
f  128//128 98//98 97//97
f  110//110 121//121 117//117
f  128//128 130//130 98//98
f  112//112 121//121 110//110
f  99//99 98//98 130//130
f  112//112 125//125 121//121
f  130//130 134//134 99//99
f  125//125 112//112 111//111
f  134//134 101//101 99//99
f  111//111 129//129 125//125
f  134//134 138//138 101//101
f  111//111 135//135 129//129
f  103//103 101//101 138//138
f  135//135 111//111 109//109
f  103//103 138//138 142//142
f  109//109 139//139 135//135
f  142//142 105//105 103//103
f  107//107 139//139 109//109
f  105//105 142//142 143//143
f  143//143 139//139 107//107
f  105//105 143//143 107//107
f  113//113 119//119 123//123
f  123//123 127//127 113//113
f  113//113 127//127 122//122
f  127//127 133//133 122//122
f  122//122 118//118 113//113
f  127//127 131//131 133//133
f  132//132 122//122 133//133
f  114//114 113//113 118//118
f  122//122 132//132 126//126
f  133//133 140//140 132//132
f  133//133 141//141 140//140
f  140//140 136//136 132//132
f  133//133 137//137 141//141
f  140//140 141//141 144//144

