# File produced by Open Asset Import Library (http://www.assimp.sf.net)
# (assimp v5.2.0)

mtllib d21309621_000_8__1_1_1.mtl

# 8 vertex positions
v  17.5 0 -596
v  -17.5 0 -596
v  -17.5 18 -596
v  17.5 18 -596
v  17.5 18 3.55618313e-14
v  17.5 0 3.55618313e-14
v  -17.5 18 3.55618313e-14
v  -17.5 0 3.55618313e-14

# 0 UV coordinates

# 8 vertex normals
vn 0.248934582 -0.968078911 -0.0292372834
vn -0.716836095 -0.696923971 -0.0210480392
vn -0.248934582 0.968078911 -0.0292372834
vn 0.716836095 0.696923971 -0.0210480392
vn 0.249014407 0.968389392 0.01462333
vn 0.716360211 -0.69646132 0.042068135
vn -0.716360211 0.69646132 0.042068135
vn -0.249014407 -0.968389392 0.01462333

# Mesh '0' with 12 faces
g 0
usemtl RAL9007
f  1//1 2//2 3//3
f  3//3 4//4 1//1
f  4//4 5//5 6//6
f  6//6 1//1 4//4
f  6//6 5//5 7//7
f  7//7 8//8 6//6
f  5//5 4//4 3//3
f  3//3 7//7 5//5
f  7//7 3//3 2//2
f  2//2 8//8 7//7
f  8//8 2//2 1//1
f  1//1 6//6 8//8

