# File produced by Open Asset Import Library (http://www.assimp.sf.net)
# (assimp v5.2.0)

mtllib d21309617_001_5__8_1.mtl

# 56 vertex positions
v  -207.685043 165 200
v  -212.592529 165 191.5
v  -212.592529 191 191.5
v  -207.685043 191 200
v  -212.592529 165 208.5
v  -212.592529 191 208.5
v  -227.314957 165 200
v  -222.407471 165 208.5
v  -222.407471 191 208.5
v  -227.314957 191 200
v  -222.407471 165 191.5
v  -222.407471 191 191.5
v  -132.592529 165 208.5
v  -127.685043 165 200
v  -127.685043 191 200
v  -132.592529 191 208.5
v  -147.314957 165 200
v  -142.407471 165 208.5
v  -142.407471 191 208.5
v  -147.314957 191 200
v  -142.407471 165 191.5
v  -142.407471 191 191.5
v  -132.592529 165 191.5
v  -132.592529 191 191.5
v  -211.422256 191 197.482513
v  -210.921494 191 200
v  -212.848297 191 195.348297
v  -211.422256 191 202.517487
v  -214.982513 191 193.922256
v  -217.5 191 193.421494
v  -212.848297 191 204.651703
v  -214.982513 191 206.077744
v  -220.017487 191 193.922256
v  -217.5 191 206.578506
v  -222.151703 191 195.348297
v  -223.577744 191 197.482513
v  -220.017487 191 206.077744
v  -222.151703 191 204.651703
v  -224.078506 191 200
v  -223.577744 191 202.517487
v  -143.577744 191 202.517487
v  -144.078506 191 200
v  -142.151703 191 204.651703
v  -143.577744 191 197.482513
v  -140.017487 191 206.077744
v  -137.5 191 206.578506
v  -142.151703 191 195.348297
v  -140.017487 191 193.922256
v  -134.982513 191 206.077744
v  -137.5 191 193.421494
v  -132.848297 191 204.651703
v  -131.422256 191 202.517487
v  -134.982513 191 193.922256
v  -132.848297 191 195.348297
v  -130.921494 191 200
v  -131.422256 191 197.482513

# 0 UV coordinates

# 13 vertex normals
vn 0.981980383 0 -0.188982546
vn 0.327327073 0 -0.944911122
vn 0.652068675 0.0887779221 -0.752944231
vn 0.97872442 0.0813669935 0.188355938
vn 0.654653549 0 0.755928993
vn 0.326034606 0.0887779891 0.94118011
vn -0.981980383 0 0.188982546
vn -0.327327073 0 0.944911122
vn -0.652068675 0.0887779221 0.752944231
vn -0.97872442 0.0813669935 -0.188355938
vn -0.654653549 0 -0.755928993
vn -0.326034606 0.0887779891 -0.94118011
vn 0 1 0

# Mesh '0' with 68 faces
g 0
usemtl vc_default
f  1//1 2//2 3//3
f  3//3 4//4 1//1
f  5//5 1//1 4//4
f  4//4 6//6 5//5
f  7//7 8//8 9//9
f  9//9 10//10 7//7
f  11//11 7//7 10//10
f  10//10 12//12 11//11
f  2//2 11//11 12//12
f  12//12 3//3 2//2
f  13//5 14//1 15//4
f  15//4 16//6 13//5
f  17//7 18//8 19//9
f  19//9 20//10 17//7
f  21//11 17//7 20//10
f  20//10 22//12 21//11
f  23//2 21//11 22//12
f  22//12 24//3 23//2
f  24//3 15//4 14//1
f  14//1 23//2 24//3
f  16//6 19//9 18//8
f  18//8 13//5 16//6
f  25//13 4//4 3//3
f  25//13 26//13 4//4
f  3//3 27//13 25//13
f  4//4 26//13 28//13
f  3//3 29//13 27//13
f  28//13 6//6 4//4
f  29//13 3//3 30//13
f  28//13 31//13 6//6
f  12//12 30//13 3//3
f  6//6 31//13 32//13
f  12//12 33//13 30//13
f  34//13 6//6 32//13
f  33//13 12//12 35//13
f  6//6 34//13 9//9
f  36//13 35//13 12//12
f  9//9 34//13 37//13
f  10//10 36//13 12//12
f  37//13 38//13 9//9
f  10//10 39//13 36//13
f  38//13 40//13 9//9
f  10//10 40//13 39//13
f  40//13 10//10 9//9
f  6//6 9//9 8//8
f  8//8 5//5 6//6
f  41//13 20//10 19//9
f  20//10 41//13 42//13
f  43//13 41//13 19//9
f  20//10 42//13 44//13
f  45//13 43//13 19//9
f  20//10 44//13 22//12
f  19//9 46//13 45//13
f  44//13 47//13 22//12
f  16//6 46//13 19//9
f  48//13 22//12 47//13
f  46//13 16//6 49//13
f  22//12 48//13 50//13
f  16//6 51//13 49//13
f  22//12 50//13 24//3
f  52//13 51//13 16//6
f  53//13 24//3 50//13
f  52//13 16//6 15//4
f  24//3 53//13 54//13
f  15//4 55//13 52//13
f  24//3 54//13 56//13
f  56//13 55//13 15//4
f  56//13 15//4 24//3

