# File produced by Open Asset Import Library (http://www.assimp.sf.net)
# (assimp v5.2.0)

mtllib fuehrung_li.mtl

# 140 vertex positions
v  -250 369.299988 -184.5
v  -250 360 -187.5
v  -250 360 -142.5
v  -250 367.567963 -187.5
v  -250 369.299988 -145.5
v  -250 367.567963 -142.5
v  -250 399.850006 -145.5
v  -250 399.850006 -184.5
v  1.38777878e-14 369.299988 -184.5
v  1.38777878e-14 367.567963 -187.5
v  1.38777878e-14 360 -187.5
v  1.38777878e-14 399.850006 -184.5
v  1.38777878e-14 399.850006 -145.5
v  1.38777878e-14 369.299988 -145.5
v  1.38777878e-14 360 -142.5
v  1.38777878e-14 367.567963 -142.5
v  -1.52655666e-13 360 96
v  91 360 96
v  85 360 66
v  91 360 -4
v  -1.52655666e-13 360 66
v  85 360 26
v  -1.52655666e-13 360 -4
v  -1.52655666e-13 360 26
v  -85 379 26
v  -85 379 66
v  -40 379 66
v  -40 379 26
v  -30.3968315 397 26
v  36 379 26
v  36 402 26
v  -29 437 26
v  -85 343 26
v  41 437 26
v  85 379 26
v  -1.52655666e-13 343 26
v  41 402 26
v  -1.52655666e-13 255 -4
v  -1.52655666e-13 255 96
v  -1.52655666e-13 343 66
v  -85 343 66
v  85 379 66
v  36 379 66
v  -29 437 66
v  -29.2793655 429 46
v  -29.2860756 428.807861 44.0490952
v  -29.2860756 428.807861 47.9509048
v  -29.3059483 428.2388 42.1731644
v  -29.3059483 428.2388 49.8268356
v  -29.3382187 427.314697 40.4442978
v  -29.3382187 427.314697 51.5557022
v  -29.3816471 426.071075 38.9289322
v  -29.3816471 426.071075 53.0710678
v  -29.4345646 424.555695 37.6853027
v  -29.4345646 424.555695 54.3146973
v  -29.4949379 422.826843 36.7612038
v  -29.4949379 422.826843 55.2387962
v  -29.5604477 420.950897 36.1921463
v  -29.5604477 420.950897 55.8078537
v  -29.6285744 419 36
v  -29.6285744 419 56
v  -30.3968315 397 66
v  -29.696701 417.049103 36.1921463
v  -29.696701 417.049103 55.8078537
v  -29.7622089 415.173157 36.7612038
v  -29.7622089 415.173157 55.2387962
v  -29.8225842 413.444305 37.6853027
v  -29.8225842 413.444305 54.3146973
v  -29.8755016 411.928925 38.9289322
v  -29.8755016 411.928925 53.0710678
v  -29.9189301 410.685303 40.4442978
v  -29.9189301 410.685303 51.5557022
v  -29.9512005 409.7612 42.1731644
v  -29.9512005 409.7612 49.8268356
v  -29.9710712 409.192139 44.0490952
v  -29.9710712 409.192139 47.9509048
v  -29.9777813 409 46
v  36 402 66
v  41 437 66
v  41 402 66
v  -79.1251144 428.807861 44.0490952
v  -79.1251144 429 46
v  -79.1251144 428.807861 47.9509048
v  -79.1251144 428.2388 49.8268356
v  -79.1251144 427.314697 51.5557022
v  -79.1251144 426.071075 53.0710678
v  -79.1251144 424.555695 54.3146973
v  -79.1251144 422.826843 55.2387962
v  -79.1251144 420.950897 55.8078537
v  -79.1251144 419 56
v  -79.1251144 417.049103 55.8078537
v  -79.1251144 415.173157 55.2387962
v  -79.1251144 413.444305 54.3146973
v  -79.1251144 411.928925 53.0710678
v  -79.1251144 410.685303 51.5557022
v  -79.1251144 409.7612 49.8268356
v  -79.1251144 409.192139 47.9509048
v  -79.1251144 409 46
v  -79.1251144 409.192139 44.0490952
v  -79.1251144 409.7612 42.1731644
v  -79.1251144 410.685303 40.4442978
v  -79.1251144 411.928925 38.9289322
v  -79.1251144 413.444305 37.6853027
v  -79.1251144 415.173157 36.7612038
v  -79.1251144 417.049103 36.1921463
v  -79.1251144 419 36
v  -79.1251144 420.950897 36.1921463
v  -79.1251144 422.826843 36.7612038
v  -79.1251144 424.555695 37.6853027
v  -79.1251144 426.071075 38.9289322
v  -79.1251144 427.314697 40.4442978
v  -79.1251144 428.2388 42.1731644
v  91 295 96
v  76 255 96
v  91 295 -4
v  76 255 -4
v  -250 369.299988 145.5
v  -250 360 142.5
v  -250 360 187.5
v  -250 367.567963 142.5
v  -250 369.299988 184.5
v  -250 367.567963 187.5
v  -250 399.850006 184.5
v  -250 399.850006 145.5
v  1.38777878e-14 369.299988 145.5
v  1.38777878e-14 367.567963 142.5
v  1.38777878e-14 360 142.5
v  1.38777878e-14 399.850006 145.5
v  1.38777878e-14 399.850006 184.5
v  1.38777878e-14 369.299988 184.5
v  1.38777878e-14 360 187.5
v  1.38777878e-14 367.567963 187.5
v  -12.9774656 367 -41
v  -12.9774656 367 -70
v  -2.69190383 396 -70
v  -2.69190383 396 -41
v  -250 396 -41
v  -250 367 -41
v  -250 396 -70
v  -250 367 -70

# 0 UV coordinates

# 127 vertex normals
vn -0.365909517 0.0861151516 -0.926657736
vn -0.0371460579 -0.947166741 -0.31858325
vn -0.0355808213 -0.995852292 0.0837396979
vn -0.0072314553 0.477767646 -0.878456533
vn -0.179645225 0.170889527 0.968774617
vn -0.00530065503 0.175101772 0.984536052
vn -0.130373552 0.533443034 0.83572787
vn -0.0480441079 0.786318779 -0.615950108
vn 0.168334678 0.0912117809 -0.981500864
vn 0.00530065503 0.175101772 -0.984536052
vn 0.0355808213 -0.995852292 -0.0837396979
vn 0.0957572386 0.783610344 -0.61382848
vn 0.113054439 0.92515856 0.362353981
vn 0.125873983 0.047312662 0.990917385
vn 0.0371460579 -0.947166741 0.31858325
vn 0.0072314553 0.477767646 0.878456533
vn -0.569695532 0.821855843 0
vn 0 1 0
vn 0.113910742 0.91728127 0.381601006
vn -0.0700611621 0.350305796 0.9340114
vn 0.242578492 0.880942941 -0.406318992
vn -0.0700611621 0.350305796 -0.9340114
vn -0.589367628 0.736709535 -0.331519276
vn -0.511101246 0.638876557 0.574988902
vn -0.0917036086 0.507442772 0.856791854
vn -0.196100771 0.349747539 -0.91609019
vn -0.317842364 0.0723142773 -0.94538182
vn 0.115344957 0.4914698 -0.86322248
vn 0.26073879 -0.0566823483 -0.963743925
vn -0.123286642 0.73572278 -0.665967345
vn -0.16405721 -0.774714589 -0.610657394
vn 0.342682362 0.685364723 -0.642529428
vn 0.330561012 0.852499425 -0.404937238
vn -0.889199615 -0.421069443 -0.178954527
vn 0.995526075 -0.0711090043 -0.0622203797
vn -1 0 0
vn -0.916985929 -0.390206784 0.082918942
vn -0.413186252 -0.487789333 0.76898551
vn 0.352977484 0.910310328 0.216198698
vn 0.24893938 0.265174568 0.931510448
vn -0.1597462 0.479438215 0.862913787
vn -0.866223216 0.499657243 0
vn -0.151885375 0.975352466 -0.160056949
vn -0.15188539 0.975352466 0.160056949
vn -0.186493978 0.920326471 -0.343830228
vn -0.186493933 0.920326412 0.343830168
vn -0.209038422 0.832525074 -0.51303494
vn -0.209038422 0.832525074 0.513034999
vn -0.219150096 0.715762138 -0.663066983
vn -0.219150096 0.715762198 0.663066983
vn -0.216629729 0.57372421 -0.789881051
vn -0.216629729 0.57372421 0.789880991
vn -0.201383024 0.410185516 -0.889490128
vn -0.201383054 0.410185575 0.889490128
vn -0.173474669 0.229491159 -0.957726538
vn -0.173474669 0.229491144 0.957726598
vn -0.837971628 0.0471280739 -0.543675005
vn -0.837971628 0.0471280701 0.543675005
vn -0.418804884 0.130993709 0.898578346
vn -0.184373111 -0.15371123 -0.970762312
vn -0.184373111 -0.15371123 0.970762312
vn -0.22285676 -0.336451679 -0.914950848
vn -0.22285676 -0.336451679 0.914950848
vn -0.247882769 -0.505231023 -0.826617002
vn -0.247882754 -0.505231023 0.826617062
vn -0.258961409 -0.655355215 -0.709541082
vn -0.258961409 -0.655355155 0.709541082
vn -0.255833447 -0.782689393 -0.567403257
vn -0.255833477 -0.782689452 0.567403376
vn -0.238386407 -0.883135796 -0.404033631
vn -0.238386407 -0.883135796 0.404033631
vn -0.20674023 -0.95244056 -0.223864943
vn -0.20674023 -0.95244056 0.223864913
vn -0.82590276 -0.563812494 -1.72685824e-10
vn 0.133996055 -0.0291295759 0.990553617
vn 0.412431419 0.824862838 0.386654437
vn 0.954653323 -0.272758096 0.119331665
vn -0.654114842 0.73662132 -0.171821877
vn -0.0019274588 0.999998212 0
vn -0.77645117 0.613703072 0.143150374
vn -0.0101822987 0.910782993 0.41275987
vn -0.00257222354 0.812801123 0.582535505
vn -0.0844066516 0.681099713 0.727309287
vn -0.0025774613 0.528010488 0.849233925
vn -0.0102234809 0.352170169 0.935880184
vn -0.177588373 0.160244003 0.97097075
vn -0.00258779712 -0.032782536 0.999459088
vn -0.580894828 -0.184885696 0.792703211
vn -0.0102785453 -0.412747413 0.910787523
vn -0.00259761116 -0.582531989 0.812803626
vn -0.0852420107 -0.727258086 0.681050122
vn -0.00260238862 -0.849241078 0.527998924
vn -0.0103150532 -0.935885429 0.352153629
vn -0.659251034 -0.741891086 0.122415774
vn -0.00390941231 -0.999992371 -0
vn -0.780667841 -0.616608441 -0.101743504
vn -0.0103150541 -0.935885429 -0.352153629
vn -0.00260238955 -0.849241078 -0.527998924
vn -0.0852420107 -0.727258086 -0.681050122
vn -0.00259761116 -0.582531989 -0.812803686
vn -0.0102785453 -0.412747413 -0.910787523
vn -0.178058982 -0.223508582 -0.958299994
vn -0.00258779712 -0.032782536 -0.999459088
vn -0.579843044 0.132664025 -0.803854704
vn -0.0102234771 0.35217011 -0.935880184
vn -0.0025774613 0.528010488 -0.849233925
vn -0.0844066516 0.681099772 -0.727309287
vn -0.00257222354 0.812801123 -0.582535505
vn -0.0101822978 0.910782874 -0.41275984
vn 0.492182642 -0.0703118071 0.867647707
vn 0 -0.770003736 0.638039291
vn 0.587217689 -0.778063416 0.223142713
vn 0 0 1
vn 0.91021049 0 0.414145768
vn 0.745910585 -0.106558658 -0.657466888
vn 0.739605367 0 -0.673040867
vn 0 0 -1
vn 0 -0.516643465 -0.856200576
vn 0.229366094 -0.957603455 -0.174318239
vn 0.105143115 -0.466968983 0.878000557
vn 0.0423011482 -0.706473887 -0.706473887
vn 0.170341626 0.66590935 -0.726325274
vn 0.0532510579 0.889348865 0.454117835
vn -0.0532510579 0.454117835 0.889348865
vn -0.108784802 -0.889118969 0.444559485
vn -0.0834912509 0.712002099 -0.697196007
vn -0.0861934125 -0.704475284 -0.704475284

# Mesh '0' with 28 faces
g 0
usemtl RAL9007
f  1//1 2//2 3//3
f  2//2 1//1 4//4
f  1//1 3//3 5//5
f  3//3 6//6 5//5
f  1//1 5//5 7//7
f  7//7 8//8 1//1
f  9//9 10//10 4//4
f  4//4 1//1 9//9
f  10//10 11//11 2//2
f  2//2 4//4 10//10
f  9//9 1//1 8//8
f  8//8 12//12 9//9
f  9//9 12//12 13//13
f  13//13 14//14 9//9
f  11//11 9//9 14//14
f  11//11 10//10 9//9
f  15//15 11//11 14//14
f  16//16 15//15 14//14
f  8//8 7//7 13//13
f  13//13 12//12 8//8
f  14//14 13//13 7//7
f  7//7 5//5 14//14
f  5//5 6//6 16//16
f  16//16 14//14 5//5
f  6//6 3//3 15//15
f  15//15 16//16 6//6
f  3//3 2//2 11//11
f  11//11 15//15 3//3

# Mesh '1' with 184 faces
g 1
usemtl RAL9007
f  17//17 18//18 19//19
f  20//18 19//19 18//18
f  19//19 21//20 17//17
f  19//19 20//18 22//21
f  23//17 22//21 20//18
f  22//21 23//17 24//22
f  25//23 26//24 27//25
f  27//25 28//26 25//23
f  28//26 29//27 30//28
f  29//27 31//29 30//28
f  30//28 24//22 28//26
f  29//27 32//30 31//29
f  30//28 22//21 24//22
f  33//31 28//26 24//22
f  31//29 32//30 34//32
f  35//33 22//21 30//28
f  28//26 33//31 25//23
f  33//31 24//22 36//34
f  34//32 37//35 31//29
f  38//36 39//36 40//37
f  17//17 40//37 39//36
f  40//37 36//34 38//36
f  40//37 17//17 21//20
f  23//17 38//36 36//34
f  36//34 24//22 23//17
f  33//31 36//34 40//37
f  40//37 41//38 33//31
f  42//39 35//33 30//28
f  30//28 43//40 42//39
f  44//41 32//30 45//42
f  46//43 45//42 32//30
f  45//42 47//44 44//41
f  48//45 46//43 32//30
f  47//44 49//46 44//41
f  32//30 50//47 48//45
f  51//48 44//41 49//46
f  52//49 50//47 32//30
f  44//41 51//48 53//50
f  52//49 32//30 54//51
f  53//50 55//52 44//41
f  56//53 54//51 32//30
f  57//54 44//41 55//52
f  56//53 32//30 58//55
f  57//54 59//56 44//41
f  60//57 58//55 32//30
f  59//56 61//58 44//41
f  60//57 32//30 29//27
f  62//59 44//41 61//58
f  29//27 63//60 60//57
f  61//58 64//61 62//59
f  65//62 63//60 29//27
f  64//61 66//63 62//59
f  67//64 65//62 29//27
f  66//63 68//65 62//59
f  69//66 67//64 29//27
f  68//65 70//67 62//59
f  71//68 69//66 29//27
f  72//69 62//59 70//67
f  29//27 73//70 71//68
f  62//59 72//69 74//71
f  73//70 29//27 75//72
f  74//71 76//73 62//59
f  77//74 75//72 29//27
f  62//59 76//73 77//74
f  77//74 29//27 62//59
f  62//59 29//27 28//26
f  28//26 27//25 62//59
f  21//20 19//19 43//40
f  42//39 43//40 19//19
f  27//25 21//20 43//40
f  27//25 41//38 21//20
f  62//59 27//25 43//40
f  41//38 27//25 26//24
f  21//20 41//38 40//37
f  78//75 62//59 43//40
f  62//59 78//75 44//41
f  44//41 78//75 79//76
f  79//76 78//75 80//77
f  42//39 19//19 22//21
f  22//21 35//33 42//39
f  31//29 78//75 43//40
f  43//40 30//28 31//29
f  37//35 34//32 79//76
f  79//76 80//77 37//35
f  32//30 44//41 79//76
f  79//76 34//32 32//30
f  25//23 33//31 41//38
f  41//38 26//24 25//23
f  80//77 31//29 37//35
f  31//29 80//77 78//75
f  46//43 48//45 81//78
f  81//78 82//79 46//43
f  46//43 82//79 45//42
f  82//79 47//44 45//42
f  82//79 83//80 47//44
f  83//80 49//46 47//44
f  83//80 84//81 49//46
f  51//48 49//46 84//81
f  84//81 85//82 51//48
f  53//50 51//48 85//82
f  85//82 86//83 53//50
f  53//50 86//83 55//52
f  86//83 87//84 55//52
f  57//54 55//52 87//84
f  87//84 88//85 57//54
f  57//54 88//85 59//56
f  88//85 89//86 59//56
f  89//86 61//58 59//56
f  90//87 61//58 89//86
f  64//61 61//58 90//87
f  90//87 91//88 64//61
f  64//61 91//88 66//63
f  91//88 92//89 66//63
f  68//65 66//63 92//89
f  92//89 93//90 68//65
f  70//67 68//65 93//90
f  93//90 94//91 70//67
f  72//69 70//67 94//91
f  94//91 95//92 72//69
f  72//69 95//92 74//71
f  95//92 96//93 74//71
f  76//73 74//71 96//93
f  96//93 97//94 76//73
f  76//73 97//94 77//74
f  97//94 98//95 77//74
f  98//95 99//96 77//74
f  75//72 77//74 99//96
f  99//96 100//97 75//72
f  75//72 100//97 73//70
f  100//97 101//98 73//70
f  71//68 73//70 101//98
f  101//98 102//99 71//68
f  71//68 102//99 69//66
f  102//99 103//100 69//66
f  67//64 69//66 103//100
f  103//100 104//101 67//64
f  67//64 104//101 65//62
f  104//101 105//102 65//62
f  63//60 65//62 105//102
f  105//102 106//103 63//60
f  106//103 60//57 63//60
f  106//103 107//104 60//57
f  60//57 107//104 58//55
f  107//104 108//105 58//55
f  56//53 58//55 108//105
f  108//105 109//106 56//53
f  109//106 54//51 56//53
f  109//106 110//107 54//51
f  110//107 52//49 54//51
f  110//107 111//108 52//49
f  50//47 52//49 111//108
f  111//108 112//109 50//47
f  48//45 50//47 112//109
f  112//109 81//78 48//45
f  92//89 94//91 93//90
f  94//91 92//89 91//88
f  91//88 97//94 94//91
f  91//88 83//80 97//94
f  94//91 97//94 96//93
f  89//86 83//80 91//88
f  97//94 83//80 99//96
f  94//91 96//93 95//92
f  83//80 89//86 86//83
f  89//86 91//88 90//87
f  99//96 83//80 81//78
f  99//96 98//95 97//94
f  89//86 88//85 86//83
f  86//83 84//81 83//80
f  81//78 83//80 82//79
f  81//78 107//104 99//96
f  88//85 87//84 86//83
f  84//81 86//83 85//82
f  81//78 110//107 107//104
f  99//96 107//104 105//102
f  81//78 112//109 110//107
f  110//107 108//105 107//104
f  106//103 105//102 107//104
f  105//102 102//99 99//96
f  112//109 111//108 110//107
f  108//105 110//107 109//106
f  102//99 105//102 104//101
f  102//99 100//97 99//96
f  104//101 103//100 102//99
f  100//97 102//99 101//98

# Mesh '2' with 12 faces
g 2
usemtl RAL7011
f  113//110 39//111 114//112
f  39//111 113//110 17//113
f  18//114 17//113 113//110
f  18//114 113//110 115//115
f  115//115 20//116 18//114
f  115//115 23//117 20//116
f  23//117 115//115 38//118
f  116//119 38//118 115//115
f  116//119 114//112 39//111
f  39//111 38//118 116//119
f  114//112 116//119 115//115
f  115//115 113//110 114//112

# Mesh '3' with 28 faces
g 3
usemtl RAL9007
f  117//1 118//2 119//3
f  118//2 117//1 120//4
f  117//1 119//3 121//5
f  119//3 122//6 121//5
f  117//1 121//5 123//7
f  123//7 124//8 117//1
f  125//9 126//10 120//4
f  120//4 117//1 125//9
f  126//10 127//11 118//2
f  118//2 120//4 126//10
f  125//9 117//1 124//8
f  124//8 128//12 125//9
f  125//9 128//12 129//13
f  129//13 130//14 125//9
f  127//11 125//9 130//14
f  127//11 126//10 125//9
f  131//15 127//11 130//14
f  132//16 131//15 130//14
f  124//8 123//7 129//13
f  129//13 128//12 124//8
f  130//14 129//13 123//7
f  123//7 121//5 130//14
f  121//5 122//6 132//16
f  132//16 130//14 121//5
f  122//6 119//3 131//15
f  131//15 132//16 122//6
f  119//3 118//2 127//11
f  127//11 131//15 119//3

# Mesh '4' with 12 faces
g 4
usemtl RAL9007
f  133//120 134//121 135//122
f  135//122 136//123 133//120
f  136//123 137//124 133//120
f  138//125 133//120 137//124
f  139//126 134//121 140//127
f  134//121 139//126 135//122
f  138//125 137//124 139//126
f  139//126 140//127 138//125
f  138//125 140//127 134//121
f  134//121 133//120 138//125
f  139//126 137//124 136//123
f  136//123 135//122 139//126

