# File produced by Open Asset Import Library (http://www.assimp.sf.net)
# (assimp v5.2.0)

mtllib fuehrung_re.mtl

# 140 vertex positions
v  -1750 367.567963 -187.5
v  -1750 360 -187.5
v  -2520 360 -187.5
v  -2520 367.567963 -187.5
v  -1750 369.299988 -184.5
v  -2520 369.299988 -184.5
v  -2520 399.850006 -184.5
v  -1750 399.850006 -184.5
v  -1750 399.850006 -145.5
v  -2520 399.850006 -145.5
v  -1750 369.299988 -145.5
v  -2520 369.299988 -145.5
v  -1750 360 -142.5
v  -1750 367.567963 -142.5
v  -2520 360 -142.5
v  -2520 367.567963 -142.5
v  -2520 360 -4
v  -2611 360 -4
v  -2605 360 26
v  -2611 360 96
v  -2520 360 26
v  -2605 360 66
v  -2520 360 96
v  -2520 360 66
v  -2435 379 66
v  -2435 379 26
v  -2480 379 26
v  -2480 379 66
v  -2489.60327 397 66
v  -2556 379 66
v  -2556 402 66
v  -2491 437 66
v  -2435 343 66
v  -2561 437 66
v  -2605 379 66
v  -2520 343 66
v  -2561 402 66
v  -2520 255 96
v  -2520 255 -4
v  -2520 343 26
v  -2435 343 26
v  -2605 379 26
v  -2556 379 26
v  -2491 437 26
v  -2490.7207 429 46
v  -2490.71387 428.807861 47.9509048
v  -2490.71387 428.807861 44.0490952
v  -2490.69409 428.2388 49.8268356
v  -2490.69409 428.2388 42.1731644
v  -2490.66187 427.314697 51.5557022
v  -2490.66187 427.314697 40.4442978
v  -2490.61841 426.071075 53.0710678
v  -2490.61841 426.071075 38.9289322
v  -2490.56543 424.555695 54.3146973
v  -2490.56543 424.555695 37.6853027
v  -2490.50513 422.826843 55.2387962
v  -2490.50513 422.826843 36.7612038
v  -2490.43945 420.950897 55.8078537
v  -2490.43945 420.950897 36.1921463
v  -2490.37134 419 56
v  -2490.37134 419 36
v  -2489.60327 397 26
v  -2490.30322 417.049103 55.8078537
v  -2490.30322 417.049103 36.1921463
v  -2490.23779 415.173157 55.2387962
v  -2490.23779 415.173157 36.7612038
v  -2490.17749 413.444305 54.3146973
v  -2490.17749 413.444305 37.6853027
v  -2490.12451 411.928925 53.0710678
v  -2490.12451 411.928925 38.9289322
v  -2490.08105 410.685303 51.5557022
v  -2490.08105 410.685303 40.4442978
v  -2490.04883 409.7612 49.8268356
v  -2490.04883 409.7612 42.1731644
v  -2490.02881 409.192139 47.9509048
v  -2490.02881 409.192139 44.0490952
v  -2490.02222 409 46
v  -2556 402 26
v  -2561 437 26
v  -2561 402 26
v  -2440.875 428.807861 47.9509048
v  -2440.875 429 46
v  -2440.875 428.807861 44.0490952
v  -2440.875 428.2388 42.1731644
v  -2440.875 427.314697 40.4442978
v  -2440.875 426.071075 38.9289322
v  -2440.875 424.555695 37.6853027
v  -2440.875 422.826843 36.7612038
v  -2440.875 420.950897 36.1921463
v  -2440.875 419 36
v  -2440.875 417.049103 36.1921463
v  -2440.875 415.173157 36.7612038
v  -2440.875 413.444305 37.6853027
v  -2440.875 411.928925 38.9289322
v  -2440.875 410.685303 40.4442978
v  -2440.875 409.7612 42.1731644
v  -2440.875 409.192139 44.0490952
v  -2440.875 409 46
v  -2440.875 409.192139 47.9509048
v  -2440.875 409.7612 49.8268356
v  -2440.875 410.685303 51.5557022
v  -2440.875 411.928925 53.0710678
v  -2440.875 413.444305 54.3146973
v  -2440.875 415.173157 55.2387962
v  -2440.875 417.049103 55.8078537
v  -2440.875 419 56
v  -2440.875 420.950897 55.8078537
v  -2440.875 422.826843 55.2387962
v  -2440.875 424.555695 54.3146973
v  -2440.875 426.071075 53.0710678
v  -2440.875 427.314697 51.5557022
v  -2440.875 428.2388 49.8268356
v  -2611 295 -4
v  -2596 255 -4
v  -2611 295 96
v  -2596 255 96
v  -1750 367.567963 142.5
v  -1750 360 142.5
v  -2520 360 142.5
v  -2520 367.567963 142.5
v  -1750 369.299988 145.5
v  -2520 369.299988 145.5
v  -2520 399.850006 145.5
v  -1750 399.850006 145.5
v  -1750 399.850006 184.5
v  -2520 399.850006 184.5
v  -1750 369.299988 184.5
v  -2520 369.299988 184.5
v  -1750 360 187.5
v  -1750 367.567963 187.5
v  -2520 360 187.5
v  -2520 367.567963 187.5
v  -2012.02258 367 -41
v  -1750 367 -41
v  -2001.73694 396 -41
v  -1750 396 -41
v  -2001.73694 396 -70
v  -1750 396 -70
v  -2012.02258 367 -70
v  -1750 367 -70

# 0 UV coordinates

# 127 vertex normals
vn 0.00172101357 0.175103992 -0.98454845
vn 0.00634405343 -0.99646318 -0.0837910697
vn -0.021984756 -0.947591901 -0.318726212
vn -0.0023479301 0.477778822 -0.878476977
vn 0.0636976659 0.0923443064 -0.99368763
vn -0.110215068 0.0919684917 -0.989643633
vn -0.0156148653 0.787131846 -0.616586983
vn 0.0312183145 0.786844134 -0.616361618
vn 0.0369176492 0.930493414 0.364443481
vn -0.0426546112 0.537545502 0.842155159
vn 0.0325383097 0.0476667397 0.998333156
vn -0.0748165771 0.173228741 0.982035816
vn 0.021984756 -0.947591901 0.318726212
vn 0.0023479301 0.477778822 0.878476977
vn -0.00634405343 -0.99646318 0.0837910697
vn -0.00172101357 0.175103992 0.98454845
vn 0.569695532 0.821855843 0
vn 0 1 0
vn -0.113910742 0.91728127 -0.381601006
vn 0.0700611621 0.350305796 -0.9340114
vn -0.242578492 0.880942941 0.406318992
vn 0.0700611621 0.350305796 0.9340114
vn 0.589367628 0.736709535 0.331519276
vn 0.511101246 0.638876557 -0.574988902
vn 0.0917035863 0.50744319 -0.856791675
vn 0.196100682 0.349748522 0.916089773
vn 0.317842454 0.0723137259 0.94538182
vn -0.12746717 0.27156049 0.953942835
vn -0.261053741 -0.0283754058 0.96490711
vn 0.159746215 0.479437977 0.862913787
vn 0.16405721 -0.774714589 0.610657394
vn -0.220778927 0.883115709 0.413960487
vn -0.185361668 0.956075966 0.227068037
vn 0.889199615 -0.421069443 0.178954527
vn -0.988060117 -0.141151443 0.0617537573
vn 1 0 0
vn 0.916985929 -0.390206784 -0.082918942
vn 0.413186252 -0.487789333 -0.76898551
vn -0.573737681 0.739819586 -0.351414323
vn -0.22621952 0.481945932 -0.846494377
vn 0.123286657 0.735722661 -0.665967405
vn 0.866221309 0.499660552 -2.30173569e-09
vn 0.151885405 0.975352705 0.160055861
vn 0.151885435 0.975352705 -0.160055891
vn 0.186495513 0.920323849 0.343836337
vn 0.186495498 0.920323849 -0.343836367
vn 0.209038928 0.832524657 0.513035655
vn 0.209038883 0.832524657 -0.513035595
vn 0.21915032 0.715765595 0.663063169
vn 0.21915032 0.715765595 -0.663063169
vn 0.216630116 0.573723793 0.789881289
vn 0.216630116 0.573723793 -0.789881229
vn 0.201384023 0.410189986 0.889487922
vn 0.201384053 0.410189986 -0.889487922
vn 0.17347616 0.229497999 0.95772475
vn 0.17347616 0.229497999 -0.95772475
vn 0.837967753 0.0471253768 0.543681204
vn 0.837967753 0.0471253768 -0.543681204
vn 0.418805003 0.130993903 -0.898578346
vn 0.184374377 -0.153715193 0.970761418
vn 0.184374377 -0.153715208 -0.970761418
vn 0.222858518 -0.336459398 0.914947569
vn 0.222858548 -0.336459428 -0.914947569
vn 0.247883022 -0.5052315 0.826616585
vn 0.247883022 -0.5052315 -0.826616585
vn 0.25896135 -0.655350804 0.709545195
vn 0.25896135 -0.655350864 -0.709545135
vn 0.255833596 -0.782689989 0.567402363
vn 0.255833656 -0.782690048 -0.567402482
vn 0.238387421 -0.883132935 0.404039443
vn 0.238387421 -0.883132935 -0.404039443
vn 0.206740677 -0.952440023 0.223866478
vn 0.206740677 -0.952440023 -0.223866478
vn 0.825897098 -0.563820839 3.68393899e-10
vn -0.133825943 -0.0581851937 -0.989295244
vn -0.589367628 0.589367628 -0.552532136
vn -0.982456148 -0.140350878 -0.122807018
vn 0.654115915 0.736620426 0.171821743
vn 0.00192746276 0.999998093 -2.45191401e-09
vn 0.776452065 0.613702059 -0.143150181
vn 0.0101823108 0.910782993 -0.41275987
vn 0.00257222587 0.812801182 -0.582535505
vn 0.0844067931 0.681099713 -0.727309227
vn 0.00257746642 0.528010488 -0.849233866
vn 0.0102234995 0.352170229 -0.935880184
vn 0.177589089 0.160243973 -0.970970571
vn 0.0025878076 -0.0327825397 -0.999459088
vn 0.580896199 -0.184885532 -0.792702317
vn 0.0102785639 -0.412747413 -0.910787582
vn 0.00259761373 -0.582531869 -0.812803686
vn 0.0852422193 -0.727258205 -0.681050122
vn 0.0026023956 -0.849241078 -0.527998865
vn 0.010315083 -0.93588531 -0.352153689
vn 0.659252584 -0.741889775 -0.12241552
vn 0.00390942162 -0.999992371 0
vn 0.780669093 -0.616606891 0.101743221
vn 0.010315083 -0.93588531 0.352153659
vn 0.0026023956 -0.849241078 0.527998865
vn 0.0852422118 -0.727258265 0.681050181
vn 0.00259761466 -0.582531929 0.812803745
vn 0.0102785639 -0.412747413 0.910787582
vn 0.178059563 -0.223508567 0.958299875
vn 0.0025878076 -0.0327825397 0.999459088
vn 0.579844654 0.132663846 0.803853512
vn 0.0102235023 0.352170229 0.935880184
vn 0.00257746642 0.528010488 0.849233925
vn 0.0844067857 0.681099713 0.727309227
vn 0.00257222587 0.812801182 0.582535505
vn 0.0101823118 0.910782993 0.41275993
vn -0.492182642 -0.0703118071 -0.867647707
vn 0 -0.770003736 -0.638039291
vn -0.587217689 -0.778063416 -0.223142713
vn 0 0 -1
vn -0.91021049 0 -0.414145768
vn -0.745910585 -0.106558658 0.657466888
vn -0.739605367 0 0.673040867
vn 0 0 1
vn 0 -0.516643465 0.856200576
vn -0.229366094 -0.957603455 0.174318239
vn -0.050221011 -0.889707625 0.453759968
vn 0.100064173 -0.452052981 0.886360705
vn -0.0992556363 0.466002166 0.87919873
vn 0.0514506027 0.893242598 0.446621299
vn -0.0398820527 0.70654422 -0.70654422
vn 0.160796896 0.697905481 -0.697905481
vn -0.160666332 -0.668846428 -0.725831151
vn 0.039485462 -0.713522911 -0.699518323

# Mesh '0' with 28 faces
g 0
usemtl RAL9007
f  1//1 2//2 3//3
f  3//3 4//4 1//1
f  5//5 6//6 7//7
f  7//7 8//8 5//5
f  9//9 8//8 7//7
f  7//7 10//10 9//9
f  11//11 9//9 10//10
f  10//10 12//12 11//11
f  13//13 2//2 5//5
f  1//1 5//5 2//2
f  11//11 13//13 5//5
f  11//11 14//14 13//13
f  9//9 11//11 5//5
f  5//5 8//8 9//9
f  10//10 7//7 6//6
f  6//6 12//12 10//10
f  12//12 6//6 3//3
f  6//6 4//4 3//3
f  12//12 3//3 15//15
f  12//12 15//15 16//16
f  15//15 3//3 2//2
f  2//2 13//13 15//15
f  16//16 15//15 13//13
f  13//13 14//14 16//16
f  12//12 16//16 14//14
f  14//14 11//11 12//12
f  4//4 6//6 5//5
f  5//5 1//1 4//4

# Mesh '1' with 184 faces
g 1
usemtl RAL9007
f  17//17 18//18 19//19
f  20//18 19//19 18//18
f  19//19 21//20 17//17
f  19//19 20//18 22//21
f  23//17 22//21 20//18
f  22//21 23//17 24//22
f  25//23 26//24 27//25
f  27//25 28//26 25//23
f  28//26 29//27 30//28
f  29//27 31//29 30//28
f  30//28 24//22 28//26
f  29//27 32//30 31//29
f  30//28 22//21 24//22
f  33//31 28//26 24//22
f  31//29 32//30 34//32
f  35//33 22//21 30//28
f  28//26 33//31 25//23
f  33//31 24//22 36//34
f  34//32 37//35 31//29
f  38//36 39//36 40//37
f  17//17 40//37 39//36
f  40//37 36//34 38//36
f  40//37 17//17 21//20
f  23//17 38//36 36//34
f  36//34 24//22 23//17
f  33//31 36//34 40//37
f  40//37 41//38 33//31
f  42//39 35//33 43//40
f  30//28 43//40 35//33
f  44//41 32//30 45//42
f  46//43 45//42 32//30
f  45//42 47//44 44//41
f  48//45 46//43 32//30
f  47//44 49//46 44//41
f  32//30 50//47 48//45
f  51//48 44//41 49//46
f  52//49 50//47 32//30
f  44//41 51//48 53//50
f  52//49 32//30 54//51
f  53//50 55//52 44//41
f  56//53 54//51 32//30
f  57//54 44//41 55//52
f  56//53 32//30 58//55
f  57//54 59//56 44//41
f  60//57 58//55 32//30
f  59//56 61//58 44//41
f  60//57 32//30 29//27
f  62//59 44//41 61//58
f  29//27 63//60 60//57
f  61//58 64//61 62//59
f  65//62 63//60 29//27
f  64//61 66//63 62//59
f  67//64 65//62 29//27
f  66//63 68//65 62//59
f  69//66 67//64 29//27
f  68//65 70//67 62//59
f  71//68 69//66 29//27
f  72//69 62//59 70//67
f  29//27 73//70 71//68
f  62//59 72//69 74//71
f  73//70 29//27 75//72
f  74//71 76//73 62//59
f  77//74 75//72 29//27
f  62//59 76//73 77//74
f  77//74 29//27 62//59
f  62//59 29//27 28//26
f  28//26 27//25 62//59
f  21//20 19//19 43//40
f  42//39 43//40 19//19
f  27//25 21//20 43//40
f  27//25 41//38 21//20
f  62//59 27//25 43//40
f  41//38 27//25 26//24
f  21//20 41//38 40//37
f  78//75 62//59 43//40
f  62//59 78//75 44//41
f  44//41 78//75 79//76
f  79//76 78//75 80//77
f  42//39 19//19 22//21
f  22//21 35//33 42//39
f  31//29 78//75 43//40
f  43//40 30//28 31//29
f  37//35 34//32 79//76
f  79//76 80//77 37//35
f  32//30 44//41 34//32
f  79//76 34//32 44//41
f  25//23 33//31 41//38
f  41//38 26//24 25//23
f  78//75 31//29 37//35
f  37//35 80//77 78//75
f  46//43 48//45 81//78
f  81//78 82//79 46//43
f  46//43 82//79 45//42
f  82//79 47//44 45//42
f  82//79 83//80 47//44
f  83//80 49//46 47//44
f  83//80 84//81 49//46
f  51//48 49//46 84//81
f  84//81 85//82 51//48
f  53//50 51//48 85//82
f  85//82 86//83 53//50
f  53//50 86//83 55//52
f  86//83 87//84 55//52
f  57//54 55//52 87//84
f  87//84 88//85 57//54
f  57//54 88//85 59//56
f  88//85 89//86 59//56
f  89//86 61//58 59//56
f  90//87 61//58 89//86
f  64//61 61//58 90//87
f  90//87 91//88 64//61
f  64//61 91//88 66//63
f  91//88 92//89 66//63
f  68//65 66//63 92//89
f  92//89 93//90 68//65
f  70//67 68//65 93//90
f  93//90 94//91 70//67
f  72//69 70//67 94//91
f  94//91 95//92 72//69
f  72//69 95//92 74//71
f  95//92 96//93 74//71
f  76//73 74//71 96//93
f  96//93 97//94 76//73
f  76//73 97//94 77//74
f  97//94 98//95 77//74
f  98//95 99//96 77//74
f  75//72 77//74 99//96
f  99//96 100//97 75//72
f  75//72 100//97 73//70
f  100//97 101//98 73//70
f  71//68 73//70 101//98
f  101//98 102//99 71//68
f  71//68 102//99 69//66
f  102//99 103//100 69//66
f  67//64 69//66 103//100
f  103//100 104//101 67//64
f  67//64 104//101 65//62
f  104//101 105//102 65//62
f  63//60 65//62 105//102
f  105//102 106//103 63//60
f  106//103 60//57 63//60
f  106//103 107//104 60//57
f  60//57 107//104 58//55
f  107//104 108//105 58//55
f  56//53 58//55 108//105
f  108//105 109//106 56//53
f  109//106 54//51 56//53
f  109//106 110//107 54//51
f  110//107 52//49 54//51
f  110//107 111//108 52//49
f  50//47 52//49 111//108
f  111//108 112//109 50//47
f  48//45 50//47 112//109
f  112//109 81//78 48//45
f  93//90 92//89 94//91
f  94//91 92//89 91//88
f  94//91 91//88 97//94
f  97//94 91//88 83//80
f  94//91 97//94 96//93
f  89//86 83//80 91//88
f  99//96 97//94 83//80
f  96//93 95//92 94//91
f  86//83 83//80 89//86
f  90//87 89//86 91//88
f  98//95 97//94 99//96
f  99//96 83//80 81//78
f  83//80 86//83 84//81
f  86//83 89//86 88//85
f  82//79 81//78 83//80
f  107//104 99//96 81//78
f  84//81 86//83 85//82
f  88//85 87//84 86//83
f  105//102 99//96 107//104
f  107//104 81//78 110//107
f  99//96 105//102 102//99
f  107//104 106//103 105//102
f  110//107 81//78 112//109
f  107//104 110//107 108//105
f  102//99 105//102 104//101
f  102//99 100//97 99//96
f  112//109 111//108 110//107
f  108//105 110//107 109//106
f  104//101 103//100 102//99
f  100//97 102//99 101//98

# Mesh '2' with 12 faces
g 2
usemtl RAL7011
f  113//110 39//111 114//112
f  39//111 113//110 17//113
f  18//114 17//113 113//110
f  18//114 113//110 115//115
f  115//115 20//116 18//114
f  115//115 23//117 20//116
f  23//117 115//115 38//118
f  116//119 38//118 115//115
f  116//119 114//112 39//111
f  39//111 38//118 116//119
f  114//112 116//119 115//115
f  115//115 113//110 114//112

# Mesh '3' with 28 faces
g 3
usemtl RAL9007
f  117//1 118//2 119//3
f  119//3 120//4 117//1
f  121//5 122//6 123//7
f  123//7 124//8 121//5
f  125//9 124//8 123//7
f  123//7 126//10 125//9
f  127//11 125//9 126//10
f  126//10 128//12 127//11
f  129//13 118//2 121//5
f  117//1 121//5 118//2
f  127//11 129//13 121//5
f  127//11 130//14 129//13
f  125//9 127//11 121//5
f  121//5 124//8 125//9
f  126//10 123//7 122//6
f  122//6 128//12 126//10
f  128//12 122//6 119//3
f  122//6 120//4 119//3
f  128//12 119//3 131//15
f  128//12 131//15 132//16
f  131//15 119//3 118//2
f  118//2 129//13 131//15
f  132//16 131//15 129//13
f  129//13 130//14 132//16
f  128//12 132//16 130//14
f  130//14 127//11 128//12
f  120//4 122//6 121//5
f  121//5 117//1 120//4

# Mesh '4' with 12 faces
g 4
usemtl RAL9007
f  133//120 134//121 135//122
f  136//123 135//122 134//121
f  137//124 135//122 136//123
f  136//123 138//125 137//124
f  135//122 137//124 139//126
f  139//126 133//120 135//122
f  133//120 139//126 140//127
f  140//127 134//121 133//120
f  140//127 137//124 138//125
f  137//124 140//127 139//126
f  138//125 136//123 134//121
f  134//121 140//127 138//125

