# File produced by Open Asset Import Library (http://www.assimp.sf.net)
# (assimp v5.2.0)

mtllib geometry_6_1.mtl

# 200 vertex positions
v  39 -20 -448
v  39 -12 -448
v  45 -20 -448
v  45 -12 -448
v  38.5432777 -9.70389938 -448
v  44.0865517 -7.40779877 -448
v  37.2426414 -7.75735903 -448
v  35.2961006 -6.45672274 -448
v  41.4852791 -3.51471877 -448
v  33 -6 -448
v  37.5922012 -0.913445592 -448
v  33 0 -448
v  -108 -6 -448
v  -108 0 -448
v  -112.592201 -0.913445592 -448
v  -116.485283 -3.51471877 -448
v  -110.296097 -6.45672274 -448
v  -119.086555 -7.40779877 -448
v  -112.242638 -7.75735903 -448
v  -113.543282 -9.70389938 -448
v  -120 -12 -448
v  -114 -12 -448
v  -114 -20 -448
v  -120 -20 -448
v  -120 -23.8268337 -447.2388
v  -114 -23.8268337 -447.2388
v  -114 -27.0710678 -445.071075
v  -120 -27.0710678 -445.071075
v  -114 -29.2387962 -441.826813
v  -120 -29.2387962 -441.826813
v  -120 -30 -438
v  -114 -30 -438
v  45 -23.8268337 -447.2388
v  39 -23.8268337 -447.2388
v  39 -27.0710678 -445.071075
v  45 -27.0710678 -445.071075
v  39 -29.2387962 -441.826813
v  45 -29.2387962 -441.826813
v  39 -30 -438
v  45 -30 -438
v  -108 -6 -220
v  -55 -6 -220
v  -55 0 -220
v  -108 0 -220
v  -112.592201 -0.913445592 -220
v  -116.485283 -3.51471877 -220
v  -110.296097 -6.45672274 -220
v  -119.086555 -7.40779877 -220
v  -112.242638 -7.75735903 -220
v  -113.543282 -9.70389938 -220
v  -120 -12 -220
v  -114 -12 -220
v  -120 -20 -220
v  -114 -20 -220
v  -4.50041485 -6 -344.5
v  -51.1731644 -6 -219.238785
v  -4.50041485 -6 -339.5
v  -47.9289322 -6 -217.071075
v  -45.7612038 -6 -213.826828
v  -4.15784121 -6 -337.777771
v  -45 -6 -210
v  -3.18227386 -6 -336.317719
v  -3.53553391 -6 -123.535538
v  -4.61939764 -6 -121.913422
v  -5 -6 -120
v  -45 -6 -10
v  -1.9134171 -6 -124.619392
v  -1.72223413 -6 -335.342163
v  7.78535358e-14 -6 -125
v  1.1184902e-13 -6 -334.999603
v  1.72223413 -6 -335.342163
v  1.9134171 -6 -124.619392
v  3.18227386 -6 -336.317719
v  3.53553391 -6 -123.535538
v  4.15784121 -6 -337.777771
v  4.61939764 -6 -121.913422
v  4.50041485 -6 -339.5
v  5 -6 -120
v  33 -6 0
v  5 -6 -40
v  4.61939764 -6 -41.9134178
v  4.61939764 -6 -118.086586
v  3.53553391 -6 -116.464462
v  3.53553391 -6 -43.5355339
v  1.9134171 -6 -115.3806
v  1.9134171 -6 -44.6193962
v  7.78535358e-14 -6 -45
v  7.90781896e-14 -6 -115
v  -1.9134171 -6 -115.3806
v  -1.9134171 -6 -44.6193962
v  -3.53553391 -6 -43.5355339
v  -3.53553391 -6 -116.464462
v  -4.61939764 -6 -41.9134178
v  -4.61939764 -6 -118.086586
v  -5 -6 -40
v  -35 -6 0
v  -4.15784121 -6 -346.222229
v  -3.18227386 -6 -347.682281
v  -1.72223413 -6 -348.657837
v  1.10746732e-13 -6 -349.000427
v  1.72223413 -6 -348.657837
v  3.18227386 -6 -347.682281
v  4.15784121 -6 -346.222229
v  4.50041485 -6 -344.5
v  4.61939764 -6 -38.0865822
v  3.53553391 -6 -36.4644661
v  1.9134171 -6 -35.3806
v  7.90781896e-14 -6 -35
v  -1.9134171 -6 -35.3806
v  -3.53553391 -6 -36.4644661
v  -4.61939764 -6 -38.0865822
v  35.2961006 -6.45672274 0
v  37.2426414 -7.75735903 0
v  38.5432777 -9.70389938 0
v  39 -12 1.13376571e-14
v  39 -20 1.11517935e-14
v  39 -23.8268337 -0.76120472
v  39 -27.0710678 -2.92893219
v  39 -29.2387962 -6.17316532
v  39 -30 -10
v  -38.8268356 -6 -0.76120472
v  -42.0710678 -6 -2.92893219
v  -44.2387962 -6 -6.17316532
v  -4.50041485 0 -344.5
v  -4.15784121 0 -346.222229
v  -3.18227386 0 -347.682281
v  -1.72223413 0 -348.657837
v  1.12400161e-13 0 -349.000427
v  1.72223413 0 -348.657837
v  3.18227386 0 -347.682281
v  4.15784121 0 -346.222229
v  4.50041485 0 -344.5
v  4.50041485 0 -339.5
v  4.15784121 0 -337.777771
v  3.18227386 0 -336.317719
v  1.72223413 0 -335.342163
v  1.09093304e-13 0 -334.999603
v  -1.72223413 0 -335.342163
v  -3.18227386 0 -336.317719
v  -4.15784121 0 -337.777771
v  -4.50041485 0 -339.5
v  -44.2387962 0 -6.17316532
v  -45 0 -10
v  -42.0710678 0 -2.92893219
v  -38.8268356 0 -0.76120472
v  -35 0 0
v  33 0 0
v  37.5922012 -0.913445592 0
v  41.4852791 -3.51471877 0
v  44.0865517 -7.40779877 0
v  45 -12 -1.32729322e-15
v  45 -20 0
v  45 -23.8268337 -0.76120472
v  45 -27.0710678 -2.92893219
v  45 -29.2387962 -6.17316532
v  45 -30 -10
v  5 0 -120
v  -51.1731644 0 -219.238785
v  -47.9289322 0 -217.071075
v  -45.7612038 0 -213.826828
v  -45 0 -210
v  -3.53553391 0 -123.535538
v  -1.9134171 0 -124.619392
v  7.78535358e-14 0 -125
v  1.9134171 0 -124.619392
v  3.53553391 0 -123.535538
v  4.61939764 0 -121.913422
v  -120 -23.8268337 -220.761215
v  -120 -27.0710678 -222.928925
v  -120 -30 -230
v  -120 -29.2387962 -226.173157
v  -4.61939764 0 -121.913422
v  -5 0 -120
v  -5 0 -40
v  -4.61939764 0 -41.9134178
v  -4.61939764 0 -118.086586
v  -3.53553391 0 -116.464462
v  -3.53553391 0 -43.5355339
v  -1.9134171 0 -115.3806
v  5 0 -40
v  -1.9134171 0 -44.6193962
v  7.78535358e-14 0 -45
v  7.90781896e-14 0 -115
v  1.9134171 0 -115.3806
v  1.9134171 0 -44.6193962
v  3.53553391 0 -43.5355339
v  3.53553391 0 -116.464462
v  4.61939764 0 -41.9134178
v  4.61939764 0 -118.086586
v  -4.61939764 0 -38.0865822
v  -3.53553391 0 -36.4644661
v  -1.9134171 0 -35.3806
v  7.90781896e-14 0 -35
v  1.9134171 0 -35.3806
v  3.53553391 0 -36.4644661
v  4.61939764 0 -38.0865822
v  -114 -23.8268337 -220.761215
v  -114 -27.0710678 -222.928925
v  -114 -30 -230
v  -114 -29.2387962 -226.173157

# 0 UV coordinates

# 200 vertex normals
vn -0.999909341 -0.0013034892 -0.0134027777
vn -0.998947084 -0.0443120524 -0.0118869785
vn 0.999855697 -0.000651709677 -0.0169749595
vn 0.998970866 0.044313293 -0.0096731605
vn -0.9235484 -0.382546097 -0.026776107
vn 0.947088718 0.32069394 -0.0133623173
vn -0.752317548 -0.658757448 -0.0075524752
vn -0.382654041 -0.923808873 -0.0123724332
vn 0.752286613 0.65873009 -0.011813594
vn -0.00584003935 -0.999641955 -0.0261126347
vn 0.382673591 0.923855484 -0.0072059771
vn 0.0113372663 0.998800278 -0.0476390682
vn 0.00453865016 -0.999253035 -0.0383742377
vn -0.00887939893 0.999787211 -0.0186219607
vn -0.382530004 0.9235093 -0.0283076093
vn -0.658598602 0.75213635 -0.0232080463
vn 0.38223201 -0.922789216 -0.0485678986
vn -0.923699737 0.382608771 -0.0197330043
vn 0.658703029 -0.752256691 -0.014838743
vn 0.923559546 -0.382551551 -0.0263066739
vn -0.996246219 0.072268188 -0.0476535186
vn 0.998672545 -0.0442995057 -0.0262808558
vn 0.99965167 -0.00169498089 -0.0263350718
vn -0.999912918 -0.00084771181 -0.0131709762
vn -0.998359442 -0.0219111983 -0.0528984517
vn 0.999589145 -0.010969094 -0.0264818035
vn 0.999678373 -0.0167077556 -0.0190806203
vn -0.999678373 -0.0190807395 -0.0167077091
vn 0.0633057505 -0.922026575 -0.38191548
vn -0.125857145 -0.916533232 -0.379640102
vn -0.429293513 -0.903142512 -0.00637573749
vn 0.237197176 -0.971459925 -0.00176139048
vn 0.999800026 -0.0076533095 -0.0184767712
vn -0.999949992 -0.00382722891 -0.00923977233
vn -0.999786079 -0.0136246132 -0.0155596053
vn 0.999786019 -0.0155597012 -0.013624575
vn -0.998539686 -0.0484338924 -0.0239304919
vn 0.998539686 -0.051169157 -0.0173263978
vn -0.243908376 -0.969792306 -0.00338897458
vn 0.126409665 -0.991977751 -0.00087819685
vn 0.00824642461 -0.998406768 0.0558206961
vn -0.000148707855 -0.999938369 0.0111014545
vn -0.000297360704 0.999753475 0.0221988037
vn -0.0158530958 0.999528289 0.026303377
vn -0.382645011 0.923786879 0.0141580598
vn -0.75213623 0.658598781 0.0232080501
vn 0.382570565 -0.923606515 0.0243054591
vn -0.923160672 0.382385522 0.0394429788
vn 0.752255082 -0.658704937 0.0148387346
vn 0.922602415 -0.382155061 0.0525588132
vn -0.997259259 0.0723416805 0.0155145042
vn 0.998745143 -0.0443027243 0.023352148
vn -0.998612165 -0.00338284578 0.0525585301
vn 0.999652445 -0.00169318495 0.0263066422
vn 0.00368730095 -0.999993205 0.0001077587
vn -0.0282766633 -0.997266233 0.0682660788
vn 0.0406593606 -0.999167681 -0.0032989271
vn -0.0576910712 -0.997055531 0.0505164117
vn -0.0547211915 -0.998244464 0.0226662345
vn 0.0503839478 -0.998419583 -0.02489396
vn -0.0707620606 -0.997493029 0.000518790272
vn 0.00150805747 -0.999997735 -0.001508057
vn 0.00277463463 -0.999993205 0.00242957962
vn 0.119341955 -0.992030442 0.0404102989
vn 0.00190228107 -0.999998212 0
vn -0.248034194 -0.968750775 0.000926298904
vn 0.0144747337 -0.999466002 0.0292960498
vn 0.012824595 -0.999580801 -0.0259565562
vn 0.00149259646 -0.999745488 0.0225110557
vn 0 -0.998371363 -0.0570498966
vn -0.012824594 -0.99958086 -0.0259565543
vn -0.0104802083 -0.999466002 0.0309506655
vn -0.0271384921 -0.999349177 -0.0237633996
vn -0.0288987067 -0.999037266 0.033003211
vn -0.0369691737 -0.999199092 -0.0153130963
vn -0.107889451 -0.993158042 0.0446892269
vn -0.012203401 -0.999925315 -0.000621901418
vn -0.00108123559 -0.999999404 -0
vn -0.020923445 -0.999483764 0.0243828446
vn -0.00981508102 -0.999951899 -0
vn -0.18792209 -0.979094625 0.0778398737
vn -0.279980958 -0.955312908 -0.0948042944
vn -0.0920790061 -0.992482066 -0.0806275904
vn -0.072410427 -0.993940771 0.0826945975
vn -0.0303612109 -0.997648299 -0.0614492036
vn -0.0438348167 -0.990615964 0.129455134
vn 0.00423069717 -0.997953236 0.0638072044
vn -0.00845486298 -0.991800368 -0.127517194
vn 0.0219824128 -0.997648299 -0.0649198145
vn 0.0605426989 -0.990615964 0.122534476
vn 0.0826945603 -0.99394083 0.0724105015
vn 0.0806276873 -0.992482066 -0.0920787379
vn 0.146133468 -0.988026559 0.0494822264
vn 0.351691395 -0.924711823 -0.145675197
vn 0.00917273667 -0.999957919 0
vn -0.000681663398 -0.992129385 0.125215769
vn 0.0631956607 -0.99777168 0.0213986617
vn 0.00161122985 -0.999997735 0.00141084834
vn 0.0578331873 -0.988514602 0.139621168
vn -0.00600310275 -0.995875239 0.0905345008
vn -0.0220943186 -0.998331964 0.0533402115
vn -0.0642650127 -0.995230377 0.073392503
vn -0.122130536 -0.990678012 0.0603428856
vn -0.217773139 -0.975839436 0.0176691841
vn -0.204479605 -0.976418972 -0.0692387968
vn -0.142911509 -0.981792569 -0.125138626
vn -0.0878375992 -0.980142713 -0.177777305
vn -0.000899035775 -0.999907613 -0.0135593582
vn 0.0625648126 -0.980788291 -0.184769854
vn 0.121581718 -0.982821822 -0.138849214
vn 0.250264168 -0.962611973 -0.103662811
vn -0.382566214 -0.923596799 0.0247391853
vn -0.658757269 -0.752317548 0.00755247334
vn -0.923796833 -0.382648975 0.013391654
vn -0.99892813 -0.0443112142 0.0133785019
vn -0.999910176 -0.000514141109 0.0133916531
vn -0.999822319 -0.00721358415 0.0174151324
vn -0.999838591 -0.0135184219 0.0118372412
vn -0.99963671 -0.0255302936 0.00864480622
vn -0.0630257502 -0.998011529 0.000883538509
vn -0.340295672 -0.457449883 0.821546435
vn -0.715557992 -0.30884856 0.62656951
vn -0.916533053 -0.125858784 0.37964043
vn 0.00265626586 0.999996424 0.00021551807
vn 0.0598174818 0.9977718 0.0295549314
vn 0.00141084369 0.999997675 0.00161122426
vn 0.029167505 0.997091115 0.0704163313
vn 0.00600310089 0.99587518 0.090534471
vn -0.0439692996 0.993377388 0.106150895
vn -0.0733927488 0.995230377 0.0642652214
vn -0.129027978 0.990678072 0.0436901189
vn -0.295902967 0.955178857 0.0086475499
vn -0.00610204227 0.999981344 -0.000310968113
vn -0.0737613961 0.996807814 -0.0305528957
vn -0.0237633232 0.999349236 -0.0271384027
vn -0.00928532798 0.999580801 -0.0274225622
vn 0 0.999592125 -0.0285598282
vn 0.00928532798 0.999580801 -0.0274225622
vn 0.00301609421 0.99999094 -0.00301609328
vn 0.0532293767 0.998419642 -0.0180239808
vn 0.0563985631 0.998407006 -0.00164820708
vn -0.922026336 0.0633065626 0.381915808
vn -0.126981258 0.991905034 0.00047421921
vn -0.62656945 0.30884856 0.715557933
vn -0.266721785 0.71709305 0.643923342
vn -0.00137094827 0.997675717 0.068127051
vn 0.0378257781 0.998523593 0.0389860868
vn 0.382643819 0.9237836 0.014410832
vn 0.658730447 0.752286315 0.0118135959
vn 0.896457434 0.442928404 0.0133623173
vn 0.994239986 0.105698973 0.0177355055
vn 0.999943614 -0.00102831656 0.010573321
vn 0.999955595 -0.00360727287 0.00870872755
vn 0.999838531 -0.0118372366 0.0135184256
vn 0.99963671 -0.0241654459 0.0119398432
vn 0.123680733 -0.992316008 0.00346768415
vn -0.00216246746 0.999997735 0
vn -0.0141673665 0.999314487 0.0342031382
vn -0.0505162589 0.997055531 0.057690993
vn -0.108870946 0.993032455 0.0450957753
vn -0.136663422 0.990617514 0.000257607229
vn 0.00242956798 0.999993205 0.00277464115
vn 0.0104802093 0.999466002 0.0309506692
vn -0.00149259646 0.999745488 0.0225110557
vn -0.0144747337 0.999466002 0.0292960498
vn -0.0330031328 0.999037266 0.0288988501
vn -0.0542227328 0.998276293 0.0224597678
vn -0.999766588 -0.00956999511 0.0193691347
vn -0.998745918 -0.0376662239 0.0329820476
vn -0.448972344 -0.893544137 0.00162011839
vn -0.0840943307 -0.94381839 0.319585621
vn 0.112961896 0.992030442 0.0558130071
vn 0.00380454166 0.999992728 0
vn 0.0183431581 0.999831736 0
vn 0.138321161 0.988026559 0.0683427379
vn 0.186258107 0.979467034 -0.0771505535
vn 0.0920790061 0.992482066 -0.0806275904
vn 0.0724104345 0.99394083 0.082694605
vn 0.0303612109 0.997648358 -0.0614492036
vn -0.0196273252 0.999807417 0
vn 0.0438348129 0.990615964 0.129455119
vn -0.00423069717 0.997953236 0.0638072044
vn 0.00845486205 0.991800368 -0.127517179
vn -0.0219824128 0.997648299 -0.0649198145
vn -0.0605426989 0.990615964 0.122534476
vn -0.0826945603 0.99394083 0.0724104941
vn -0.0806276873 0.992482066 -0.0920787379
vn -0.0954536945 0.994648337 0.0395382121
vn -0.265013695 0.955312788 -0.130939633
vn 0.128724352 0.990245938 -0.0533193722
vn 0.138849333 0.982821822 -0.121581644
vn 0.0864120498 0.980788291 -0.174892098
vn 0.000899035775 0.999907613 -0.0135593582
vn -0.0635969639 0.980142713 -0.18781808
vn -0.125138834 0.981792569 -0.142911524
vn -0.193548158 0.976419091 -0.095629707
vn 0.999766588 -0.00692900829 0.0204630848
vn 0.998745918 -0.0329818726 0.0376663245
vn 0.699254096 -0.714855313 0.00504652224
vn 0.0840943977 -0.893361926 0.441398621

# Mesh '0' with 408 faces
g 0
usemtl vc_default
f  1//1 2//2 3//3
f  3//3 2//2 4//4
f  5//5 4//4 2//2
f  6//6 4//4 5//5
f  6//6 5//5 7//7
f  6//6 7//7 8//8
f  9//9 6//6 8//8
f  9//9 8//8 10//10
f  10//10 11//11 9//9
f  11//11 10//10 12//12
f  10//10 13//13 12//12
f  13//13 14//14 12//12
f  15//15 14//14 13//13
f  15//15 13//13 16//16
f  17//17 16//16 13//13
f  16//16 17//17 18//18
f  19//19 18//18 17//17
f  18//18 19//19 20//20
f  20//20 21//21 18//18
f  20//20 22//22 21//21
f  23//23 21//21 22//22
f  24//24 21//21 23//23
f  25//25 24//24 23//23
f  23//23 26//26 25//25
f  26//26 27//27 25//25
f  25//25 27//27 28//28
f  29//29 28//28 27//27
f  29//29 30//30 28//28
f  31//31 30//30 29//29
f  31//31 29//29 32//32
f  3//3 33//33 1//1
f  34//34 1//1 33//33
f  33//33 35//35 34//34
f  36//36 35//35 33//33
f  36//36 37//37 35//35
f  36//36 38//38 37//37
f  39//39 37//37 38//38
f  39//39 38//38 40//40
f  41//41 42//42 43//43
f  43//43 44//44 41//41
f  44//44 45//45 41//41
f  41//41 45//45 46//46
f  41//41 46//46 47//47
f  47//47 46//46 48//48
f  48//48 49//49 47//47
f  50//50 49//49 48//48
f  50//50 48//48 51//51
f  50//50 51//51 52//52
f  52//52 51//51 53//53
f  54//54 52//52 53//53
f  52//52 22//22 20//20
f  20//20 50//50 52//52
f  20//20 49//49 50//50
f  19//19 49//49 20//20
f  49//49 19//19 47//47
f  19//19 17//17 47//47
f  47//47 17//17 13//13
f  41//41 47//47 13//13
f  41//41 13//13 42//42
f  42//42 13//13 55//55
f  55//55 56//56 42//42
f  55//55 57//57 56//56
f  56//56 57//57 58//58
f  58//58 57//57 59//59
f  57//57 60//60 59//59
f  61//61 59//59 60//60
f  62//62 61//61 60//60
f  61//61 62//62 63//63
f  63//63 64//64 61//61
f  64//64 65//65 61//61
f  65//65 66//66 61//61
f  62//62 67//67 63//63
f  62//62 68//68 67//67
f  68//68 69//69 67//67
f  70//70 69//69 68//68
f  69//69 70//70 71//71
f  71//71 72//72 69//69
f  71//71 73//73 72//72
f  73//73 74//74 72//72
f  74//74 73//73 75//75
f  76//76 74//74 75//75
f  77//77 76//76 75//75
f  77//77 78//78 76//76
f  10//10 78//78 77//77
f  79//79 78//78 10//10
f  79//79 80//80 78//78
f  81//81 78//78 80//80
f  78//78 81//81 82//82
f  82//82 81//81 83//83
f  84//84 83//83 81//81
f  83//83 84//84 85//85
f  84//84 86//86 85//85
f  86//86 87//87 85//85
f  87//87 88//88 85//85
f  88//88 87//87 89//89
f  90//90 89//89 87//87
f  89//89 90//90 91//91
f  91//91 92//92 89//89
f  92//92 91//91 93//93
f  93//93 94//94 92//92
f  93//93 65//65 94//94
f  65//65 93//93 95//95
f  65//65 95//95 96//96
f  97//97 55//55 13//13
f  98//98 97//97 13//13
f  98//98 13//13 10//10
f  10//10 99//99 98//98
f  100//100 99//99 10//10
f  101//101 100//100 10//10
f  10//10 102//102 101//101
f  103//103 102//102 10//10
f  10//10 104//104 103//103
f  104//104 10//10 77//77
f  10//10 8//8 79//79
f  80//80 79//79 105//105
f  106//106 105//105 79//79
f  79//79 107//107 106//106
f  107//107 79//79 108//108
f  79//79 96//96 108//108
f  109//109 108//108 96//96
f  110//110 109//109 96//96
f  110//110 96//96 111//111
f  8//8 112//112 79//79
f  113//113 112//112 8//8
f  7//7 113//113 8//8
f  113//113 7//7 114//114
f  114//114 7//7 5//5
f  114//114 5//5 2//2
f  2//2 115//115 114//114
f  116//116 115//115 2//2
f  2//2 1//1 116//116
f  117//117 116//116 1//1
f  34//34 117//117 1//1
f  34//34 118//118 117//117
f  34//34 35//35 118//118
f  119//119 118//118 35//35
f  35//35 37//37 119//119
f  39//39 119//119 37//37
f  120//120 119//119 39//39
f  96//96 95//95 111//111
f  96//96 66//66 65//65
f  66//66 96//96 121//121
f  121//121 122//122 66//66
f  123//123 66//66 122//122
f  124//124 55//55 97//97
f  97//97 125//125 124//124
f  125//125 97//97 98//98
f  98//98 126//126 125//125
f  126//126 98//98 99//99
f  126//126 99//99 127//127
f  99//99 128//128 127//127
f  100//100 128//128 99//99
f  128//128 100//100 129//129
f  100//100 101//101 129//129
f  129//129 101//101 102//102
f  130//130 129//129 102//102
f  130//130 102//102 103//103
f  103//103 131//131 130//130
f  131//131 103//103 104//104
f  131//131 104//104 132//132
f  132//132 104//104 77//77
f  77//77 133//133 132//132
f  134//134 133//133 77//77
f  134//134 77//77 75//75
f  134//134 75//75 73//73
f  73//73 135//135 134//134
f  135//135 73//73 71//71
f  71//71 136//136 135//135
f  136//136 71//71 70//70
f  136//136 70//70 137//137
f  70//70 138//138 137//137
f  68//68 138//138 70//70
f  138//138 68//68 139//139
f  68//68 62//62 139//139
f  139//139 62//62 60//60
f  140//140 139//139 60//60
f  140//140 60//60 57//57
f  57//57 141//141 140//140
f  141//141 57//57 55//55
f  55//55 124//124 141//141
f  66//66 123//123 142//142
f  142//142 123//123 122//122
f  66//66 142//142 143//143
f  142//142 122//122 144//144
f  121//121 144//144 122//122
f  145//145 144//144 121//121
f  146//146 145//145 121//121
f  121//121 96//96 146//146
f  146//146 96//96 147//147
f  147//147 96//96 79//79
f  148//148 147//147 79//79
f  149//149 148//148 79//79
f  79//79 112//112 149//149
f  149//149 112//112 150//150
f  113//113 150//150 112//112
f  113//113 114//114 150//150
f  150//150 114//114 151//151
f  114//114 115//115 151//151
f  115//115 116//116 151//151
f  116//116 152//152 151//151
f  152//152 116//116 117//117
f  152//152 117//117 153//153
f  153//153 117//117 154//154
f  154//154 117//117 118//118
f  155//155 154//154 118//118
f  118//118 119//119 155//155
f  119//119 156//156 155//155
f  120//120 156//156 119//119
f  120//120 40//40 156//156
f  40//40 120//120 39//39
f  4//4 6//6 151//151
f  150//150 151//151 6//6
f  6//6 9//9 150//150
f  150//150 9//9 149//149
f  11//11 149//149 9//9
f  11//11 148//148 149//149
f  147//147 148//148 11//11
f  147//147 11//11 12//12
f  12//12 157//157 147//147
f  133//133 157//157 12//12
f  133//133 12//12 132//132
f  131//131 132//132 12//12
f  12//12 130//130 131//131
f  129//129 130//130 12//12
f  12//12 128//128 129//129
f  12//12 127//127 128//128
f  126//126 127//127 12//12
f  12//12 14//14 126//126
f  14//14 125//125 126//126
f  14//14 124//124 125//125
f  124//124 14//14 43//43
f  43//43 158//158 124//124
f  158//158 141//141 124//124
f  159//159 141//141 158//158
f  160//160 141//141 159//159
f  160//160 140//140 141//141
f  140//140 160//160 161//161
f  140//140 161//161 139//139
f  162//162 139//139 161//161
f  162//162 163//163 139//139
f  163//163 138//138 139//139
f  163//163 164//164 138//138
f  138//138 164//164 137//137
f  136//136 137//137 164//164
f  164//164 165//165 136//136
f  165//165 135//135 136//136
f  165//165 166//166 135//135
f  134//134 135//135 166//166
f  134//134 166//166 167//167
f  134//134 167//167 133//133
f  43//43 14//14 44//44
f  14//14 45//45 44//44
f  14//14 15//15 45//45
f  45//45 15//15 16//16
f  45//45 16//16 46//46
f  18//18 46//46 16//16
f  48//48 46//46 18//18
f  51//51 48//48 18//18
f  18//18 21//21 51//51
f  24//24 51//51 21//21
f  24//24 53//53 51//51
f  24//24 168//168 53//53
f  24//24 25//25 168//168
f  168//168 25//25 28//28
f  28//28 169//169 168//168
f  169//169 28//28 170//170
f  170//170 28//28 31//31
f  28//28 30//30 31//31
f  170//170 171//171 169//169
f  161//161 172//172 162//162
f  161//161 173//173 172//172
f  161//161 143//143 173//173
f  173//173 143//143 146//146
f  146//146 174//174 173//173
f  174//174 175//175 173//173
f  176//176 173//173 175//175
f  177//177 176//176 175//175
f  167//167 157//157 133//133
f  175//175 178//178 177//177
f  179//179 177//177 178//178
f  157//157 180//180 147//147
f  178//178 181//181 179//179
f  182//182 179//179 181//181
f  179//179 182//182 183//183
f  184//184 183//183 182//182
f  184//184 182//182 185//185
f  184//184 185//185 186//186
f  184//184 186//186 187//187
f  188//188 187//187 186//186
f  187//187 188//188 189//189
f  189//189 188//188 157//157
f  190//190 174//174 146//146
f  190//190 146//146 191//191
f  180//180 157//157 188//188
f  146//146 192//192 191//191
f  146//146 193//193 192//192
f  193//193 146//146 147//147
f  193//193 147//147 194//194
f  195//195 194//194 147//147
f  147//147 196//196 195//195
f  145//145 146//146 143//143
f  143//143 144//144 145//145
f  144//144 143//143 142//142
f  196//196 147//147 180//180
f  66//66 143//143 161//161
f  161//161 61//61 66//66
f  61//61 161//161 160//160
f  160//160 59//59 61//61
f  160//160 58//58 59//59
f  159//159 58//58 160//160
f  58//58 159//159 56//56
f  159//159 158//158 56//56
f  56//56 158//158 43//43
f  42//42 56//56 43//43
f  4//4 151//151 152//152
f  152//152 3//3 4//4
f  3//3 152//152 153//153
f  3//3 153//153 33//33
f  153//153 154//154 33//33
f  154//154 36//36 33//33
f  36//36 154//154 155//155
f  155//155 38//38 36//36
f  38//38 155//155 40//40
f  40//40 155//155 156//156
f  52//52 54//54 23//23
f  54//54 197//197 23//23
f  22//22 52//52 23//23
f  197//197 26//26 23//23
f  27//27 26//26 197//197
f  197//197 198//198 27//27
f  199//199 27//27 198//198
f  32//32 27//27 199//199
f  198//198 200//200 199//199
f  32//32 29//29 27//27
f  199//199 170//170 32//32
f  170//170 199//199 171//171
f  31//31 32//32 170//170
f  171//171 199//199 200//200
f  169//169 171//171 200//200
f  200//200 198//198 169//169
f  198//198 168//168 169//169
f  197//197 168//168 198//198
f  53//53 168//168 197//197
f  197//197 54//54 53//53
f  111//111 95//95 174//174
f  174//174 95//95 93//93
f  111//111 174//174 190//190
f  93//93 175//175 174//174
f  111//111 190//190 191//191
f  91//91 175//175 93//93
f  191//191 110//110 111//111
f  91//91 178//178 175//175
f  110//110 191//191 192//192
f  178//178 91//91 90//90
f  110//110 192//192 109//109
f  90//90 181//181 178//178
f  109//109 192//192 193//193
f  87//87 181//181 90//90
f  193//193 108//108 109//109
f  87//87 182//182 181//181
f  108//108 193//193 194//194
f  182//182 87//87 86//86
f  108//108 194//194 107//107
f  86//86 185//185 182//182
f  107//107 194//194 195//195
f  84//84 185//185 86//86
f  195//195 106//106 107//107
f  84//84 186//186 185//185
f  106//106 195//195 196//196
f  186//186 84//84 81//81
f  106//106 196//196 105//105
f  81//81 188//188 186//186
f  105//105 196//196 180//180
f  81//81 180//180 188//188
f  180//180 80//80 105//105
f  81//81 80//80 180//180
f  94//94 65//65 173//173
f  173//173 65//65 64//64
f  94//94 173//173 176//176
f  64//64 172//172 173//173
f  94//94 176//176 177//177
f  63//63 172//172 64//64
f  177//177 92//92 94//94
f  63//63 162//162 172//172
f  92//92 177//177 179//179
f  162//162 63//63 67//67
f  92//92 179//179 89//89
f  67//67 163//163 162//162
f  89//89 179//179 183//183
f  69//69 163//163 67//67
f  183//183 88//88 89//89
f  69//69 164//164 163//163
f  88//88 183//183 184//184
f  164//164 69//69 72//72
f  88//88 184//184 85//85
f  72//72 165//165 164//164
f  85//85 184//184 187//187
f  74//74 165//165 72//72
f  187//187 83//83 85//85
f  74//74 166//166 165//165
f  83//83 187//187 189//189
f  166//166 74//74 76//76
f  83//83 189//189 82//82
f  76//76 167//167 166//166
f  82//82 189//189 157//157
f  76//76 157//157 167//167
f  157//157 78//78 82//82
f  76//76 78//78 157//157

