# File produced by Open Asset Import Library (http://www.assimp.sf.net)
# (assimp v5.2.0)

mtllib vorlage_wanne_a2_0_1_1.mtl

# 52 vertex positions
v  236.5 73 -339
v  232.5 73 -339
v  232.5 73 -464
v  236.5 73 -464
v  236.5 153 -339
v  232.5 149 -339
v  223.875 149 -339
v  219.25 153 -339
v  215.25 149 -339
v  202 153 -339
v  198 149 -339
v  198 179.526611 -339
v  202 180.053223 -339
v  198.117722 194.542114 -339
v  194.254013 193.506836 -339
v  232.5 149 -464
v  198 149 -464
v  236.5 153 -464
v  198.117722 194.542114 -464
v  194.254013 193.506836 -464
v  198 179.526611 -464
v  202 180.053223 -464
v  202 153 -464
v  215.25 149 -464
v  219.25 153 -464
v  223.875 149 -464
v  424.882294 194.542114 -339
v  428.746002 193.506836 -339
v  428.746002 193.506836 -464
v  424.882294 194.542114 -464
v  425 179.526611 -339
v  421 180.053223 -339
v  421 153 -339
v  425 149 -339
v  412.375 153 -339
v  407.75 149 -339
v  403.75 153 -339
v  390.5 149 -339
v  386.5 153 -339
v  386.5 73 -339
v  390.5 73 -339
v  425 179.526611 -464
v  421 180.053223 -464
v  421 153 -464
v  390.5 149 -464
v  425 149 -464
v  386.5 73 -464
v  390.5 73 -464
v  386.5 153 -464
v  403.75 153 -464
v  407.75 149 -464
v  412.375 153 -464

# 0 UV coordinates

# 42 vertex normals
vn 0.993124604 -0.0993124619 0.0619709753
vn -0.998108327 -0.0525320172 0.0319394656
vn -0.998490393 -0.0525521263 -0.015975846
vn 0.999201715 -0.024980044 -0.0311750937
vn 0.977324009 0.210735485 0.020694837
vn -0.974639356 -0.221217483 0.0337789468
vn 0 0 1
vn 0.364733905 0.930264056 0.0397257097
vn -0.404504776 -0.914311409 0.0202586446
vn -0.99807018 -0.0498278849 0.0370545164
vn 0.998210788 0.0564955622 0.0195828993
vn 0.866223812 0.498732835 0.0303627905
vn -0.992137253 -0.124147154 0.0158474259
vn -0.739407718 -0.671304345 -0.0512526259
vn -0.870407045 -0.491850227 -0.0217961166
vn 0.756859422 0.652791262 -0.0320529975
vn 0.865028381 0.49804455 -0.060641773
vn -0.970205247 0.240661457 -0.0279955082
vn -0.990790248 -0.126916528 -0.0471907519
vn 0.990254283 0.137225538 -0.0237830523
vn 0.842289209 0.537070572 -0.04586979
vn 0 0 -1
vn -0.866223395 0.49873355 0.0303627811
vn 0.992137134 -0.124148197 0.0158474259
vn 0.970205426 0.240660563 -0.0279955231
vn -0.865028024 0.498045295 -0.0606417581
vn 0.99807018 -0.0498280898 0.0370545201
vn -0.998210788 0.0564957857 0.0195829011
vn -0.61634165 0.785998344 0.0482661016
vn 0.662155747 -0.748342931 0.0391492136
vn 0.739078581 -0.671005547 0.0592818819
vn -0.918105721 0.395933092 0.0178571567
vn -0.996818364 -0.0498409159 0.0622014664
vn 0.998490393 -0.0525521263 0.015975846
vn 0.990790129 -0.126917034 -0.0471907519
vn -0.990254223 0.137226075 -0.0237830523
vn -0.616880774 0.786685824 -0.0241541583
vn 0.974450827 -0.221174702 -0.0390806086
vn 0.662536621 -0.748773396 -0.0195858665
vn -0.99826777 -0.0499133877 -0.0311459545
vn 0.998108327 -0.0525320172 -0.0319394656
vn -0.917666912 0.395743847 -0.0356972441

# Mesh '0' with 42 faces
g 0
usemtl vc_default
f  1//1 2//2 3//3
f  3//3 4//4 1//1
f  1//1 5//5 6//6
f  5//5 7//7 6//6
f  6//6 2//2 1//1
f  8//7 7//7 5//5
f  8//7 9//7 7//7
f  9//7 8//7 10//8
f  9//7 10//8 11//9
f  11//9 10//8 12//10
f  10//8 13//11 12//10
f  13//11 14//12 12//10
f  15//13 12//10 14//12
f  6//6 16//14 3//3
f  3//3 2//2 6//6
f  11//9 17//15 16//14
f  16//14 6//6 11//9
f  5//5 1//1 4//4
f  4//4 18//16 5//5
f  14//12 19//17 20//18
f  20//18 15//13 14//12
f  15//13 20//18 21//19
f  21//19 12//10 15//13
f  14//12 13//11 22//20
f  22//20 19//17 14//12
f  13//11 10//8 23//21
f  23//21 22//20 13//11
f  18//16 23//21 10//8
f  10//8 5//5 18//16
f  12//10 21//19 17//15
f  17//15 11//9 12//10
f  24//22 23//21 25//22
f  23//21 24//22 17//15
f  25//22 26//22 24//22
f  21//19 23//21 17//15
f  18//16 26//22 25//22
f  22//20 23//21 21//19
f  16//14 26//22 18//16
f  21//19 19//17 22//20
f  4//4 16//14 18//16
f  19//17 21//19 20//18
f  16//14 4//4 3//3

# Mesh '1' with 42 faces
g 1
usemtl vc_default
f  27//23 28//24 29//25
f  29//25 30//26 27//23
f  31//27 27//23 32//28
f  27//23 31//27 28//24
f  32//28 33//29 31//27
f  31//27 33//29 34//30
f  33//29 35//7 34//30
f  34//30 35//7 36//7
f  35//7 37//7 36//7
f  37//7 38//31 36//7
f  38//31 37//7 39//32
f  40//33 38//31 39//32
f  38//31 40//33 41//34
f  28//24 31//27 42//35
f  42//35 29//25 28//24
f  27//23 30//26 43//36
f  43//36 32//28 27//23
f  44//37 33//29 32//28
f  32//28 43//36 44//37
f  38//31 45//38 46//39
f  46//39 34//30 38//31
f  47//40 48//41 41//34
f  41//34 40//33 47//40
f  41//34 48//41 45//38
f  45//38 38//31 41//34
f  39//32 49//42 47//40
f  47//40 40//33 39//32
f  44//37 49//42 39//32
f  39//32 33//29 44//37
f  46//39 42//35 31//27
f  31//27 34//30 46//39
f  45//38 48//41 47//40
f  47//40 49//42 45//38
f  50//22 45//38 49//42
f  50//22 51//22 45//38
f  51//22 50//22 52//22
f  51//22 52//22 46//39
f  46//39 52//22 44//37
f  46//39 44//37 42//35
f  44//37 43//36 42//35
f  43//36 30//26 42//35
f  29//25 42//35 30//26

