# File produced by Open Asset Import Library (http://www.assimp.sf.net)
# (assimp v5.2.0)

mtllib _01_wanne.mtl

# 58 vertex positions
v  -500 100.844604 282.309601
v  -500 100.068146 279.411804
v  -500 90.4088898 282
v  -500 90.8038483 285
v  -500 68 285
v  -500 65 282
v  -500 65 297
v  -500 68 300
v  -500 65 312
v  -500 68 315
v  -500 58 315
v  -500 55 312
v  -500 48 315
v  -500 45 312
v  -500 45 337
v  -500 48 337
v  0 48 337
v  0 48 315
v  0 68 315
v  0 68 285
v  0 65 282
v  0 65 312
v  0 45 337
v  0 45 312
v  0 65 297
v  0 90.4088898 282
v  0 90.8038483 285
v  0 100.844604 282.309601
v  0 100.068146 279.411804
v  -500 100.844604 533.69043
v  -500 100.068146 536.588196
v  0 100.068146 536.588196
v  0 100.844604 533.69043
v  -500 68 531
v  -500 90.8038483 531
v  0 90.8038483 531
v  0 68 531
v  -500 48 479
v  -500 45 479
v  -500 48 501
v  -500 45 504
v  -500 65 504
v  -500 68 501
v  -500 65 519
v  -500 65 534
v  -500 90.4088898 534
v  0 68 501
v  0 45 504
v  0 65 504
v  0 65 534
v  0 48 501
v  0 45 479
v  0 48 479
v  0 55 504
v  0 58 501
v  0 68 516
v  0 65 519
v  0 90.4088898 534

# 0 UV coordinates

# 50 vertex normals
vn -0.0113097318 0.516474128 0.856227994
vn -0.00514491694 0.275028199 -0.961422443
vn -0.00585321663 -0.0736032948 -0.997270525
vn -0.00302221603 0.0816391632 0.996657372
vn -0.00731084729 0.934738696 0.35526064
vn -0.00372096035 -0.92082715 -0.389953285
vn -1 0 0
vn -0.00832021516 -0.832021475 -0.554681003
vn -0.00416021561 0.832043111 0.554695427
vn -0.00880562793 0.481900036 0.876181901
vn -0.00445194682 -0.529993653 -0.847989857
vn -0.00559973763 -0.992861271 0.119143352
vn -0.00299303769 0.997679293 0.0680235848
vn 0.00578848599 0.964747667 0.263112992
vn 0.0107996278 0.910313427 0.413778841
vn 0.00540824793 0.832038105 0.55469209
vn 0.0102445083 0.549522996 0.8354159
vn 0.00410849042 -0.508364677 -0.861132145
vn 0.00457622856 -0.832041562 -0.554694355
vn 0.0111989491 -0.9928146 0.119137749
vn 0.00501371128 -0.928465009 -0.371386021
vn 1 0 0
vn 0.0117058307 -0.0735995099 -0.997219205
vn 0.00604434963 0.0816380531 0.996643662
vn 0.00565513736 0.516498923 0.856269121
vn 0.00296681467 -0.11266879 -0.993628144
vn -0.00565511128 0.516498923 -0.856269121
vn -0.00296678557 -0.112670295 0.993628085
vn 0.0051448741 0.275023341 0.961423814
vn 0.0113096796 0.516474128 -0.856227994
vn -0.0102445083 0.549522996 -0.8354159
vn -0.00604435056 0.0816389769 -0.996643662
vn 0.00302221673 0.081640102 -0.996657372
vn 0.00731084729 0.934738696 -0.35526064
vn -0.00578848599 0.964747667 -0.263112992
vn -0.0111989491 -0.9928146 -0.119137749
vn -0.0107996278 0.910313427 -0.413778841
vn -0.00501371128 -0.928465009 0.371386021
vn -0.00457622856 -0.832041562 0.554694355
vn -0.00540824793 0.832038105 -0.55469209
vn -0.00410849042 -0.508364677 0.861132145
vn -0.0117058149 -0.0735995099 0.997219205
vn 0.00416021561 0.832043111 -0.554695427
vn 0.00445194682 -0.529993653 0.847989857
vn 0.00832021516 -0.832021475 0.554681003
vn 0.00372096035 -0.92082715 0.389953285
vn 0.00880562793 0.481900036 -0.876181901
vn 0.00559973763 -0.992861271 -0.119143352
vn 0.00299303769 0.997679293 -0.0680235848
vn 0.00585320871 -0.0736032948 0.997270525

# Mesh '0' with 49 faces
g 0
usemtl RAL7011
f  1//1 2//2 3//3
f  4//4 1//1 3//3
f  3//3 5//5 4//4
f  6//6 5//5 3//3
f  5//5 6//6 7//7
f  7//7 8//7 5//5
f  8//7 7//7 9//8
f  10//9 8//7 9//8
f  10//9 9//8 11//7
f  12//7 11//7 9//8
f  11//7 12//7 13//10
f  13//10 12//7 14//11
f  14//11 15//12 13//10
f  16//13 13//10 15//12
f  16//13 17//14 18//15
f  18//15 13//10 16//13
f  5//5 10//9 19//16
f  19//16 20//17 5//5
f  6//6 21//18 22//19
f  22//19 9//8 6//6
f  13//10 18//15 19//16
f  19//16 10//9 13//10
f  17//14 23//20 18//15
f  24//21 18//15 23//20
f  18//15 24//21 22//19
f  22//19 19//16 18//15
f  22//19 25//22 19//16
f  19//16 25//22 20//17
f  20//17 25//22 21//18
f  21//18 26//23 20//17
f  26//23 27//24 20//17
f  27//24 26//23 28//25
f  26//23 29//26 28//25
f  24//21 23//20 15//12
f  15//12 14//11 24//21
f  17//14 16//13 15//12
f  15//12 23//20 17//14
f  22//19 24//21 14//11
f  14//11 9//8 22//19
f  3//3 26//23 21//18
f  21//18 6//6 3//3
f  28//25 1//1 4//4
f  4//4 27//24 28//25
f  20//17 27//24 4//4
f  4//4 5//5 20//17
f  3//3 2//2 29//26
f  29//26 26//23 3//3
f  28//25 29//26 2//2
f  2//2 1//1 28//25

# Mesh '1' with 49 faces
g 1
usemtl RAL7011
f  30//27 31//28 32//29
f  32//29 33//30 30//27
f  34//31 35//32 36//33
f  36//33 37//34 34//31
f  38//35 39//36 40//37
f  41//38 40//37 39//36
f  40//37 41//38 42//39
f  42//39 43//40 40//37
f  42//39 44//7 43//40
f  43//40 44//7 34//31
f  34//31 44//7 45//41
f  45//41 46//42 34//31
f  46//42 35//32 34//31
f  35//32 46//42 30//27
f  46//42 31//28 30//27
f  37//34 47//43 43//40
f  43//40 34//31 37//34
f  42//39 41//38 48//44
f  48//44 49//45 42//39
f  42//39 49//45 50//46
f  50//46 45//41 42//39
f  43//40 47//43 51//47
f  51//47 40//37 43//40
f  41//38 39//36 52//48
f  52//48 48//44 41//38
f  53//49 51//47 52//48
f  48//44 52//48 51//47
f  51//47 54//22 48//44
f  55//22 54//22 51//47
f  54//22 55//22 49//45
f  47//43 49//45 55//22
f  47//43 56//22 49//45
f  56//22 57//22 49//45
f  57//22 56//22 37//34
f  37//34 50//46 57//22
f  50//46 37//34 58//50
f  58//50 37//34 36//33
f  36//33 33//30 58//50
f  33//30 32//29 58//50
f  38//35 53//49 52//48
f  52//48 39//36 38//35
f  53//49 38//35 40//37
f  40//37 51//47 53//49
f  58//50 46//42 45//41
f  45//41 50//46 58//50
f  36//33 35//32 30//27
f  30//27 33//30 36//33
f  58//50 32//29 31//28
f  31//28 46//42 58//50

