# File produced by Open Asset Import Library (http://www.assimp.sf.net)
# (assimp v5.2.0)

mtllib a2_cut_0__8_1.mtl

# 29 vertex positions
v  -1129.09253 911 -488
v  -1124.18506 911 -479.5
v  -1124.18506 886 -479.5
v  -1129.09253 886 -488
v  -1143.81494 911 -479.5
v  -1138.90747 911 -488
v  -1138.90747 886 -488
v  -1143.81494 886 -479.5
v  -1138.90747 911 -471
v  -1138.90747 886 -471
v  -1129.09253 911 -471
v  -1129.09253 886 -471
v  -1140.07776 886 -482.017487
v  -1140.57849 886 -479.5
v  -1138.65173 886 -484.151703
v  -1140.07776 886 -476.982513
v  -1136.51746 886 -485.577728
v  -1134 886 -486.078491
v  -1138.65173 886 -474.848297
v  -1136.51746 886 -473.422272
v  -1131.48254 886 -485.577728
v  -1134 886 -472.921509
v  -1129.34827 886 -484.151703
v  -1127.92224 886 -482.017487
v  -1133.42664 886 -472.946533
v  -1131.48254 886 -473.422272
v  -1127.42151 886 -479.5
v  -1129.34827 886 -474.848297
v  -1127.92224 886 -476.982513

# 0 UV coordinates

# 14 vertex normals
vn 0.654654145 0 -0.755928516
vn 0.981980562 0 0.188981995
vn 0.978460312 -0.0845981613 -0.188304529
vn 0.325929999 -0.0922994465 -0.940877557
vn -0.981980562 0 -0.188981995
vn -0.327327222 0 -0.944911063
vn -0.651859701 -0.0922994092 -0.7527017
vn -0.978460312 -0.0845981613 0.188304529
vn -0.654654145 0 0.755928516
vn -0.325929999 -0.0922994465 0.940877557
vn 0.327327222 0 0.944911063
vn 0.651880264 -0.0919585526 0.752725482
vn 0 -1 0
vn 0 -0.99999994 0

# Mesh '0' with 35 faces
g 0
usemtl vc_default
f  1//1 2//2 3//3
f  3//3 4//4 1//1
f  5//5 6//6 7//7
f  7//7 8//8 5//5
f  9//9 5//5 8//8
f  8//8 10//10 9//9
f  11//11 9//9 10//10
f  10//10 12//12 11//11
f  12//12 3//3 2//2
f  2//2 11//11 12//12
f  4//4 7//7 6//6
f  6//6 1//1 4//4
f  13//13 8//8 7//7
f  14//13 8//8 13//13
f  15//14 13//13 7//7
f  16//13 8//8 14//13
f  17//13 15//14 7//7
f  8//8 16//13 10//10
f  7//7 18//13 17//13
f  19//13 10//10 16//13
f  4//4 18//13 7//7
f  10//10 19//13 20//14
f  18//13 4//4 21//14
f  22//14 10//10 20//14
f  4//4 23//14 21//14
f  22//14 12//12 10//10
f  24//13 23//14 4//4
f  22//14 25//14 12//12
f  24//13 4//4 3//3
f  26//14 12//12 25//14
f  3//3 27//13 24//13
f  12//12 26//14 28//13
f  29//13 27//13 3//3
f  12//12 28//13 29//13
f  29//13 3//3 12//12

