# File produced by Open Asset Import Library (http://www.assimp.sf.net)
# (assimp v5.2.0)

mtllib a2_cut_0__9_1_1_1.mtl

# 233 vertex positions
v  -930 700 292
v  -1070 700 292
v  -1070 700 792
v  -930 700 792
v  -927.059509 699.85553 292
v  -927.059509 699.85553 792
v  -924.147278 699.423584 292
v  -924.147278 699.423584 792
v  -921.291443 698.708191 292
v  -921.291443 698.708191 792
v  -918.51947 697.71637 292
v  -918.51947 697.71637 792
v  -915.858093 696.457642 292
v  -915.858093 696.457642 792
v  -913.332886 694.944092 292
v  -913.332886 694.944092 792
v  -910.968201 693.190308 292
v  -910.968201 693.190308 792
v  -908.786804 691.213196 792
v  -908.786804 691.213196 292
v  -906.809692 689.031799 792
v  -906.809692 689.031799 292
v  -905.055908 686.667114 292
v  -905.055908 686.667114 792
v  -903.542358 684.141907 292
v  -903.542358 684.141907 792
v  -902.28363 681.48053 292
v  -902.28363 681.48053 792
v  -901.291809 678.708557 292
v  -901.291809 678.708557 792
v  -900.576416 675.852722 292
v  -900.576416 675.852722 792
v  -900.14447 672.940491 292
v  -900.14447 672.940491 792
v  -900 670 292
v  -900 670 792
v  -900 530 792
v  -900 545 596
v  -900 530 596
v  -900 545 292
v  -860 545 596
v  -860 545 292
v  -860 537 595.522522
v  -860 537 292
v  -860 537 596
v  -878 520 292
v  -878 520 596
v  -900 520 596
v  -900 520 292
v  -900 530 292
v  -930 500 292
v  -927.059509 500.14447 292
v  -927.059509 500.14447 792
v  -924.147278 500.576447 792
v  -930 500 792
v  -924.147278 500.576447 292
v  -921.291443 501.291779 792
v  -921.291443 501.291779 292
v  -918.51947 502.2836 792
v  -918.51947 502.2836 292
v  -915.858093 503.542358 792
v  -915.858093 503.542358 292
v  -913.332886 505.055908 792
v  -913.332886 505.055908 292
v  -910.968201 506.809692 292
v  -910.968201 506.809692 792
v  -908.786804 508.786804 792
v  -908.786804 508.786804 292
v  -906.809692 510.968201 792
v  -906.809692 510.968201 292
v  -905.055908 513.332886 792
v  -905.055908 513.332886 292
v  -903.542358 515.858093 792
v  -903.542358 515.858093 292
v  -902.28363 518.51947 792
v  -902.28363 518.51947 292
v  -901.291809 521.291443 792
v  -901.291809 521.291443 292
v  -900.576416 524.147278 792
v  -900.576416 524.147278 292
v  -900.14447 527.059509 792
v  -900.14447 527.059509 292
v  -913 500 792
v  -913 500 292
v  -913 485 792
v  -913 485 292
v  -918 485 792
v  -918 485 292
v  -953 489 292
v  -953 489 792
v  -953 500 792
v  -953 500 292
v  -1047 500 292
v  -1047 500 792
v  -1047 489 792
v  -1047 489 292
v  -1087 489 292
v  -1087 489 792
v  -1087 500 792
v  -1087 500 292
v  -1070 500 792
v  -1070 500 292
v  -952 489 792
v  -952 482.466034 792
v  -950.5 481.600006 792
v  -919.5 481.600006 792
v  -927.875 500 792
v  -925.75 500 792
v  -921.5 500 792
v  -950.5 457.149994 792
v  -919.5 457.149994 792
v  -918 482.466034 792
v  -1100 670 792
v  -1100 530 792
v  -1048 489 792
v  -1049.5 481.600006 792
v  -1048 482.466034 792
v  -1080.5 481.600006 792
v  -1080.5 457.149994 792
v  -1049.5 457.149994 792
v  -1072.94055 500.14447 792
v  -1075.85266 500.576447 792
v  -1078.7085 501.291779 792
v  -1081.48047 502.2836 792
v  -1072.125 500 792
v  -1082 489 792
v  -1082 482.466034 792
v  -1074.25 500 792
v  -1078.5 500 792
v  -1084.14185 503.542358 792
v  -1086.66711 505.055908 792
v  -1089.03174 506.809692 792
v  -1091.21326 508.786804 792
v  -1093.19031 510.968201 792
v  -1094.94409 513.332886 792
v  -1096.45764 515.858093 792
v  -1097.71643 518.51947 792
v  -1098.70825 521.291443 792
v  -1099.42358 524.147278 792
v  -1099.85559 527.059509 792
v  -1072.94055 699.85553 792
v  -1075.85266 699.423584 792
v  -1078.7085 698.708191 792
v  -1081.48047 697.71637 792
v  -1084.14185 696.457642 792
v  -1086.66711 694.944092 792
v  -1089.03174 693.190308 792
v  -1091.21326 691.213196 792
v  -1093.19031 689.031799 792
v  -1094.94409 686.667114 792
v  -1096.45764 684.141907 792
v  -1097.71643 681.48053 792
v  -1098.70825 678.708557 792
v  -1099.42358 675.852722 792
v  -1099.85559 672.940491 792
v  -970 485 725
v  -1030 485 725
v  -1030 414 725
v  -970 414 725
v  -1030 485 735
v  -970 485 735
v  -970 414 645
v  -1030 414 645
v  -1000 414.5 645
v  -1002.92633 414.788208 645
v  -997.073669 414.788208 645
v  -1005.74023 415.641815 645
v  -994.259766 415.641815 645
v  -1008.33356 417.027954 645
v  -991.666443 417.027954 645
v  -1010.60663 418.893402 645
v  -989.393372 418.893402 645
v  -1012.47205 421.166443 645
v  -987.527954 421.166443 645
v  -1013.85822 423.759735 645
v  -986.141785 423.759735 645
v  -1014.71179 426.573639 645
v  -985.288208 426.573639 645
v  -1015 429.5 645
v  -985 429.5 645
v  -1014.71179 432.426361 645
v  -985.288208 432.426361 645
v  -1013.85822 435.240265 645
v  -986.141785 435.240265 645
v  -1030 500 645
v  -970 500 645
v  -1012.47205 437.833557 645
v  -987.527954 437.833557 645
v  -1010.60663 440.106598 645
v  -989.393372 440.106598 645
v  -1008.33356 441.972046 645
v  -991.666443 441.972046 645
v  -1005.74023 443.358185 645
v  -994.259766 443.358185 645
v  -1002.92633 444.211792 645
v  -997.073669 444.211792 645
v  -1000 444.5 645
v  -970 500 735
v  -1030 500 735
v  -878 537 596
v  -878 535.653809 596
v  -1072.94055 699.85553 292
v  -1075.85266 699.423584 292
v  -1078.7085 698.708191 292
v  -1081.48047 697.71637 292
v  -1084.14185 696.457642 292
v  -1086.66711 694.944092 292
v  -1089.03174 693.190308 292
v  -1091.21326 691.213196 292
v  -1093.19031 689.031799 292
v  -1094.94409 686.667114 292
v  -1096.45764 684.141907 292
v  -1097.71643 681.48053 292
v  -1098.70825 678.708557 292
v  -1099.42358 675.852722 292
v  -1099.85559 672.940491 292
v  -1100 670 292
v  -1100 530 292
v  -1099.85559 527.059509 292
v  -1099.42358 524.147278 292
v  -1098.70825 521.291443 292
v  -1097.71643 518.51947 292
v  -1096.45764 515.858093 292
v  -1094.94409 513.332886 292
v  -1093.19031 510.968201 292
v  -1091.21326 508.786804 292
v  -1089.03174 506.809692 292
v  -1086.66711 505.055908 292
v  -1084.14185 503.542358 292
v  -1081.48047 502.2836 292
v  -1078.7085 501.291779 292
v  -1075.85266 500.576447 292
v  -1072.94055 500.14447 292

# 0 UV coordinates

# 179 vertex normals
vn 0.000510602724 0.999999762 0
vn -0.00198065303 0.999997973 0
vn -0.000495843065 0.971093714 0.238698184
vn 0.00159633195 0.805960059 0.591967702
vn 0.0817079917 0.996656299 0
vn 0.114216596 0.992801487 0.0360510871
vn 0.179000497 0.983848929 0
vn 0.211018234 0.976952374 0.0321754701
vn 0.274585903 0.961562574 0
vn 0.305794179 0.9516747 0.0283731353
vn 0.36750266 0.930022538 0
vn 0.39763537 0.917211533 0.0246819798
vn 0.456891835 0.889522254 0
vn 0.485664189 0.873889804 0.0211365893
vn 0.541882634 0.840454221 0
vn 0.569021881 0.822130322 0.0177719574
vn 0.634395659 0.773008525 0
vn 0.634243011 0.772822559 0.0219309814
vn 0.695387065 0.718539894 0.0117133418
vn 0.718589187 0.695434809 0
vn 0.772990525 0.634380877 0.00680958293
vn 0.773008525 0.634395659 0
vn 0.822260141 0.569111764 0
vn 0.840435147 0.541870356 0.00674020592
vn 0.874085128 0.485772729 0
vn 0.88951236 0.456886739 0.00472245272
vn 0.917491019 0.397756547 0
vn 0.930018127 0.367500931 0.00304434076
vn 0.952058077 0.305917352 0
vn 0.961561084 0.274585485 0.00172220555
vn 0.977458596 0.211127564 0
vn 0.983848631 0.179000437 0.000768520287
vn 0.993447363 0.114290901 0
vn 0.996656299 0.0817079917 0.000192548905
vn 0.999999046 0.00139664917 0
vn 0.987447381 0.000780310424 0.157946274
vn 0.963337004 -0.000881176849 0.268292725
vn 0.995699525 0.0925099775 0.00494502345
vn -0.208632872 -0.151076868 0.966254711
vn 0.842271388 0.539053679 0
vn 0.0996404961 0.99484247 0.0189805459
vn 0.371139169 0.928577185 0
vn 1 0 0
vn 0.0265172273 0 0.999648333
vn 0 -0.99999994 0
vn 0 -0.996458292 0.0840886533
vn -0.221592605 -0.975007474 0.0160363074
vn -0.672672868 -0.739940107 -0
vn -0.999790609 -0.0204603411 -0
vn 0.0102750799 0.99994719 0
vn 0.114297725 -0.993446589 0
vn 0.0816583112 -0.996008098 0.0360510983
vn 0.178907812 -0.983339608 0.0321755409
vn 0.00994862989 0.968177795 0.250065804
vn 0.21111764 -0.977460682 0
vn 0.274462551 -0.961179078 0.0283735618
vn 0.305911094 -0.952060044 0
vn 0.367393643 -0.929737926 0.0246817525
vn 0.397762358 -0.917488456 0
vn 0.456795216 -0.889320672 0.0211364888
vn 0.485775411 -0.874083698 0
vn 0.555522263 -0.831394732 0.0133316703
vn 0.555571616 -0.831468582 0
vn 0.634395659 -0.773008525 0
vn 0.634243011 -0.772822559 0.0219309758
vn 0.695387065 -0.718539894 0.0117133409
vn 0.718589187 -0.695434809 0
vn 0.762486458 -0.646940589 0.0090780668
vn 0.783291936 -0.621654034 0
vn 0.822241426 -0.569098771 0.00674020685
vn 0.840454221 -0.541882634 0
vn 0.874075353 -0.485767305 0.00472243549
vn 0.889522254 -0.456891835 0
vn 0.917486787 -0.397754699 0.00304435333
vn 0.930022538 -0.36750266 0
vn 0.952056646 -0.305916905 0.00172220683
vn 0.961562574 -0.274585903 0
vn 0.977458298 -0.211127505 0.000768521684
vn 0.983848929 -0.179000497 0
vn 0.994283795 -0.10677015 0.00017031224
vn 0.996242106 -0.0866113752 0
vn 0.40361622 0.914863467 0.0108976383
vn 0.870022178 0.493012577 0
vn 0.986381948 -0.164396986 0.0049319095
vn 0.832050323 -0.554700196 0
vn 0 -0.997446537 0.071417354
vn 0 -1 0
vn -1 0 0
vn -0.999998033 0 0.00199999614
vn -0.273169816 -0.467070729 0.840965688
vn -0.0871602669 -0.996194303 -0
vn 0.255166918 -0.966897011 0
vn 0.0859564394 -0.240490496 0.966838062
vn 0.999999523 0 0.000999999465
vn -0.999950051 0 0.00999950059
vn -0.791239858 0.611412585 0.0106817381
vn -0.30782029 0.951444507 0
vn -0.0101905074 0.991712511 0.128072917
vn -0.0102751246 0.99994719 0
vn 0 0 1
vn 0 0 0.99999994
vn -0.980492532 0.0019412007 0.196546808
vn -0.998148024 -0.000509441888 0.0608289056
vn -0.114225782 -0.992800534 0.0360512063
vn -0.211011186 -0.976953924 0.0321752727
vn -0.305787921 -0.951676726 0.0283735134
vn -0.397641182 -0.91720897 0.0246817973
vn -0.48566103 -0.873891711 0.0211365223
vn -0.569025099 -0.822128057 0.0177720543
vn -0.634238005 -0.772826791 0.0219312087
vn -0.695376694 -0.718549907 0.0117135178
vn -0.772995651 -0.634374738 0.00680943066
vn -0.840435147 -0.541870356 0.00674020592
vn -0.889506757 -0.456897676 0.0047226185
vn -0.930015743 -0.367506891 0.00304456684
vn -0.961564898 -0.27457273 0.00172216957
vn -0.983847439 -0.179007128 0.000768519356
vn -0.996656895 -0.0817011297 0.000192630003
vn -0.0816548839 0.996008396 0.0360508934
vn -0.178912684 0.983338714 0.0321754627
vn -0.274475336 0.961175442 0.0283730943
vn -0.367390692 0.929739177 0.0246818438
vn -0.456786931 0.889324903 0.0211368632
vn -0.541793823 0.840323448 0.0177718457
vn -0.634352446 0.772966206 0.0109675815
vn -0.718539894 0.695387065 0.011713692
vn -0.772941887 0.634330571 0.0136179132
vn -0.822241426 0.569098771 0.00674020639
vn -0.874072433 0.48577261 0.0047226157
vn -0.91748178 0.397766352 0.00304457103
vn -0.952058673 0.305910647 0.00172216783
vn -0.977459669 0.211120874 0.00076852279
vn -0.993446589 0.114297725 0.000192628591
vn 0.852961242 -0.0727989674 0.516872644
vn -0.956238687 -0.0408067703 0.289728075
vn -0.502256155 -0.424441844 0.753384233
vn 0.475701213 -0.804002047 0.35677591
vn -0.0995037183 -0.796029747 0.597022295
vn 0.078811042 -0.315244168 0.945732534
vn 0.925703168 -0.353771925 -0.133862138
vn -0.789309263 -0.603293717 -0.114138775
vn 0 0 -1
vn 0 0 -0.99999994
vn -0.12629205 -0.988116324 -0.0876159519
vn 0.251083106 -0.952163279 -0.174190581
vn 0.285714269 -0.942857146 0.171428576
vn -0.141898394 -0.97512579 0.170278072
vn -0.114293255 0.993447125 0
vn -0.21113041 0.977457941 0
vn -0.305917352 0.952058077 0
vn -0.397756547 0.917491019 0
vn -0.485766858 0.874088407 0
vn -0.569114983 0.822257876 0
vn -0.634390593 0.773012757 0
vn -0.695424378 0.7185992 0
vn -0.773013592 0.63438946 0
vn -0.840454221 0.541882634 0
vn -0.889516532 0.456902742 0
vn -0.930020094 0.36750862 0
vn -0.96156621 0.274573117 0
vn -0.983847737 0.179007187 0
vn -0.996656895 0.0817011297 0
vn -0.999999762 0.000510387006 0
vn -0.999997973 -0.0019798181 -0
vn -0.993446589 -0.114297725 -0
vn -0.977459967 -0.211120948 -0
vn -0.952060044 -0.305911094 -0
vn -0.917485952 -0.39776817 -0
vn -0.874082208 -0.485778034 -0
vn -0.822260141 -0.569111764 -0
vn -0.773013592 -0.63438946 -0
vn -0.718589187 -0.695434809 -0
vn -0.634390593 -0.773012757 -0
vn -0.541879475 -0.840456188 -0
vn -0.456894487 -0.889520884 -0
vn -0.36750561 -0.930021286 -0
vn -0.274573117 -0.96156621 -0
vn -0.17900537 -0.983848155 -0
vn -0.0817114338 -0.996656001 -0

# Mesh '0' with 322 faces
g 0
usemtl vc_default
f  1//1 2//2 3//3
f  3//3 4//4 1//1
f  5//5 1//1 4//4
f  4//4 6//6 5//5
f  7//7 5//5 6//6
f  6//6 8//8 7//7
f  9//9 7//7 8//8
f  10//10 9//9 8//8
f  11//11 9//9 10//10
f  10//10 12//12 11//11
f  13//13 11//11 12//12
f  14//14 13//13 12//12
f  15//15 13//13 14//14
f  14//14 16//16 15//15
f  17//17 15//15 16//16
f  18//18 17//17 16//16
f  18//18 19//19 17//17
f  17//17 19//19 20//20
f  20//20 19//19 21//21
f  22//22 20//20 21//21
f  23//23 22//22 21//21
f  24//24 23//23 21//21
f  25//25 23//23 24//24
f  26//26 25//25 24//24
f  27//27 25//25 26//26
f  27//27 26//26 28//28
f  29//29 27//27 28//28
f  28//28 30//30 29//29
f  31//31 29//29 30//30
f  32//32 31//31 30//30
f  33//33 31//31 32//32
f  33//33 32//32 34//34
f  35//35 33//33 34//34
f  36//36 35//35 34//34
f  36//36 37//37 38//38
f  39//39 38//38 37//37
f  36//36 38//38 35//35
f  40//40 35//35 38//38
f  41//41 42//42 40//40
f  40//40 38//38 41//41
f  43//43 44//43 42//42
f  41//41 43//43 42//42
f  43//43 41//41 45//44
f  46//45 47//46 48//47
f  48//47 49//48 46//45
f  49//48 48//47 39//39
f  39//39 50//49 49//48
f  51//50 52//51 53//52
f  53//52 52//51 54//53
f  53//52 55//54 51//50
f  52//51 56//55 54//53
f  56//55 57//56 54//53
f  56//55 58//57 57//56
f  57//56 58//57 59//58
f  58//57 60//59 59//58
f  59//58 60//59 61//60
f  60//59 62//61 61//60
f  62//61 63//62 61//60
f  62//61 64//63 63//62
f  64//63 65//64 63//62
f  65//64 66//65 63//62
f  67//66 66//65 65//64
f  65//64 68//67 67//66
f  67//66 68//67 69//68
f  68//67 70//69 69//68
f  71//70 69//68 70//69
f  70//69 72//71 71//70
f  71//70 72//71 73//72
f  72//71 74//73 73//72
f  75//74 73//72 74//73
f  74//73 76//75 75//74
f  75//74 76//75 77//76
f  76//75 78//77 77//76
f  79//78 77//76 78//77
f  78//77 80//79 79//78
f  81//80 79//78 80//79
f  80//79 82//81 81//80
f  82//81 39//39 81//80
f  50//49 39//39 82//81
f  39//39 37//37 81//80
f  83//82 84//83 51//50
f  51//50 55//54 83//82
f  85//84 86//85 84//83
f  84//83 83//82 85//84
f  87//86 88//87 86//85
f  86//85 85//84 87//86
f  89//88 90//89 91//90
f  91//90 92//91 89//88
f  93//92 94//93 95//94
f  95//94 96//43 93//92
f  97//88 98//95 99//96
f  99//96 100//97 97//88
f  101//98 102//99 100//97
f  100//97 99//96 101//98
f  103//100 104//100 105//100
f  103//100 105//100 55//54
f  55//54 91//90 103//100
f  91//90 90//89 103//100
f  91//90 55//54 37//37
f  91//90 37//37 36//36
f  91//90 36//36 4//4
f  4//4 94//93 91//90
f  55//54 105//100 106//100
f  107//100 55//54 106//100
f  106//100 87//86 107//100
f  107//100 87//86 108//100
f  87//86 109//100 108//100
f  87//86 83//82 109//100
f  105//100 110//101 106//100
f  106//100 110//101 111//101
f  112//100 87//86 106//100
f  87//86 85//84 83//82
f  37//37 55//54 53//52
f  53//52 54//53 37//37
f  54//53 57//56 37//37
f  57//56 59//58 37//37
f  59//58 61//60 37//37
f  63//62 37//37 61//60
f  63//62 66//65 37//37
f  37//37 66//65 67//66
f  69//68 37//37 67//66
f  69//68 71//70 37//37
f  71//70 73//72 37//37
f  73//72 75//74 37//37
f  75//74 77//76 37//37
f  37//37 77//76 79//78
f  79//78 81//80 37//37
f  4//4 3//3 94//93
f  94//93 3//3 113//102
f  94//93 113//102 114//103
f  94//93 114//103 101//98
f  101//98 115//100 94//93
f  95//94 94//93 115//100
f  101//98 116//100 115//100
f  116//100 117//100 115//100
f  116//100 101//98 118//101
f  118//101 119//101 116//100
f  116//100 119//101 120//101
f  121//104 101//98 114//103
f  121//104 114//103 122//105
f  123//106 122//105 114//103
f  114//103 124//107 123//106
f  125//100 118//101 101//98
f  126//100 118//101 125//100
f  127//100 118//101 126//100
f  128//100 126//100 125//100
f  129//100 126//100 128//100
f  99//96 126//100 129//100
f  99//96 98//95 126//100
f  114//103 130//108 124//107
f  130//108 114//103 131//109
f  131//109 114//103 132//110
f  114//103 133//111 132//110
f  134//112 133//111 114//103
f  135//113 134//112 114//103
f  114//103 136//114 135//113
f  137//115 136//114 114//103
f  138//116 137//115 114//103
f  138//116 114//103 139//117
f  114//103 140//118 139//117
f  3//3 141//119 113//102
f  141//119 142//120 113//102
f  143//121 113//102 142//120
f  143//121 144//122 113//102
f  145//123 113//102 144//122
f  146//124 113//102 145//123
f  146//124 147//125 113//102
f  147//125 148//126 113//102
f  149//127 113//102 148//126
f  150//128 113//102 149//127
f  151//129 113//102 150//128
f  151//129 152//130 113//102
f  153//131 113//102 152//130
f  153//131 154//132 113//102
f  155//133 113//102 154//132
f  6//6 4//4 36//36
f  36//36 8//8 6//6
f  36//36 10//10 8//8
f  10//10 36//36 12//12
f  36//36 14//14 12//12
f  36//36 16//16 14//14
f  36//36 18//18 16//16
f  19//19 18//18 36//36
f  36//36 21//21 19//19
f  24//24 21//21 36//36
f  26//26 24//24 36//36
f  28//28 26//26 36//36
f  28//28 36//36 30//30
f  32//32 30//30 36//36
f  34//34 32//32 36//36
f  156//134 157//135 158//136
f  158//136 159//137 156//134
f  160//138 157//135 156//134
f  156//134 161//139 160//138
f  162//140 163//141 164//142
f  165//142 164//142 163//141
f  164//142 166//142 162//140
f  167//142 165//142 163//141
f  166//142 168//142 162//140
f  163//141 169//142 167//142
f  170//142 162//140 168//142
f  171//143 169//142 163//141
f  162//140 170//142 172//142
f  171//143 163//141 173//143
f  172//142 174//143 162//140
f  175//142 173//143 163//141
f  176//142 162//140 174//143
f  175//142 163//141 177//142
f  176//142 178//142 162//140
f  179//142 177//142 163//141
f  178//142 180//142 162//140
f  179//142 163//141 181//142
f  162//140 180//142 182//142
f  163//141 183//142 181//142
f  162//140 182//142 184//142
f  185//144 183//142 163//141
f  162//140 184//142 186//145
f  187//142 183//142 185//144
f  184//142 188//142 186//145
f  189//142 187//142 185//144
f  188//142 190//142 186//145
f  191//142 189//142 185//144
f  192//142 186//145 190//142
f  185//144 193//142 191//142
f  186//145 192//142 194//142
f  193//142 185//144 195//142
f  194//142 196//142 186//145
f  197//142 195//142 185//144
f  186//145 196//142 197//142
f  197//142 185//144 186//145
f  156//134 162//140 186//145
f  162//140 156//134 159//137
f  198//146 156//134 186//145
f  156//134 198//146 161//139
f  185//144 199//147 94//93
f  91//90 94//93 199//147
f  94//93 93//92 185//144
f  199//147 198//146 91//90
f  92//91 185//144 93//92
f  186//145 91//90 198//146
f  185//144 92//91 186//145
f  91//90 186//145 92//91
f  199//147 160//138 161//139
f  161//139 198//146 199//147
f  158//136 157//135 163//141
f  157//135 185//144 163//141
f  185//144 157//135 199//147
f  199//147 157//135 160//138
f  200//100 45//44 41//41
f  41//41 38//38 200//100
f  39//39 200//100 38//38
f  200//100 39//39 201//100
f  39//39 47//46 201//100
f  47//46 39//39 48//47
f  3//3 2//2 141//119
f  2//2 202//148 141//119
f  202//148 142//120 141//119
f  202//148 203//149 142//120
f  142//120 203//149 143//121
f  203//149 204//150 143//121
f  144//122 143//121 204//150
f  204//150 205//151 144//122
f  205//151 145//123 144//122
f  205//151 206//152 145//123
f  145//123 206//152 146//124
f  206//152 207//153 146//124
f  146//124 207//153 147//125
f  207//153 208//154 147//125
f  208//154 209//155 147//125
f  209//155 148//126 147//125
f  210//156 148//126 209//155
f  149//127 148//126 210//156
f  149//127 210//156 150//128
f  210//156 211//157 150//128
f  151//129 150//128 211//157
f  211//157 212//158 151//129
f  151//129 212//158 152//130
f  212//158 213//159 152//130
f  153//131 152//130 213//159
f  213//159 214//160 153//131
f  153//131 214//160 154//132
f  214//160 215//161 154//132
f  155//133 154//132 215//161
f  215//161 216//162 155//133
f  113//102 155//133 216//162
f  216//162 217//163 113//102
f  114//103 113//102 217//163
f  217//163 218//164 114//103
f  114//103 218//164 140//118
f  218//164 219//165 140//118
f  219//165 139//117 140//118
f  219//165 220//166 139//117
f  139//117 220//166 138//116
f  220//166 221//167 138//116
f  137//115 138//116 221//167
f  221//167 222//168 137//115
f  222//168 136//114 137//115
f  222//168 223//169 136//114
f  136//114 223//169 135//113
f  223//169 224//170 135//113
f  135//113 224//170 134//112
f  224//170 225//171 134//112
f  225//171 226//172 134//112
f  226//172 133//111 134//112
f  227//173 133//111 226//172
f  132//110 133//111 227//173
f  132//110 227//173 131//109
f  227//173 228//174 131//109
f  130//108 131//109 228//174
f  228//174 229//175 130//108
f  130//108 229//175 124//107
f  229//175 230//176 124//107
f  123//106 124//107 230//176
f  230//176 231//177 123//106
f  123//106 231//177 122//105
f  231//177 232//178 122//105
f  121//104 122//105 232//178
f  232//178 233//179 121//104
f  101//98 121//104 233//179
f  233//179 102//99 101//98
f  159//137 158//136 163//141
f  163//141 162//140 159//137

