# File produced by Open Asset Import Library (http://www.assimp.sf.net)
# (assimp v5.2.0)

mtllib a2_cut_0__11_1_1.mtl

# 216 vertex positions
v  -1082 482.466034 292
v  -1080.5 481.600006 292
v  -1082 489 292
v  -1070 500 292
v  -1072.125 500 292
v  -1074.25 500 292
v  -1078.5 500 292
v  -1087 500 292
v  -1087 489 292
v  -1049.5 481.600006 292
v  -1048 489 292
v  -1047 500 292
v  -1100 530 292
v  -1099.85559 527.059509 292
v  -1099.42358 524.147278 292
v  -1098.70825 521.291443 292
v  -1097.71643 518.51947 292
v  -1096.45764 515.858093 292
v  -1094.94409 513.332886 292
v  -1093.19031 510.968201 292
v  -1091.21326 508.786804 292
v  -1089.03174 506.809692 292
v  -1086.66711 505.055908 292
v  -1084.14185 503.542358 292
v  -1081.48047 502.2836 292
v  -1078.7085 501.291779 292
v  -1075.85266 500.576447 292
v  -1072.94055 500.14447 292
v  -1049.5 457.149994 292
v  -1048 482.466034 292
v  -1047 489 292
v  -1080.5 457.149994 292
v  -1100 670 292
v  -1070 700 292
v  -1099.85559 672.940491 292
v  -1099.42358 675.852722 292
v  -1098.70825 678.708557 292
v  -1097.71643 681.48053 292
v  -1096.45764 684.141907 292
v  -1094.94409 686.667114 292
v  -1093.19031 689.031799 292
v  -1091.21326 691.213196 292
v  -1089.03174 693.190308 292
v  -1086.66711 694.944092 292
v  -1084.14185 696.457642 292
v  -1081.48047 697.71637 292
v  -1078.7085 698.708191 292
v  -1075.85266 699.423584 292
v  -1072.94055 699.85553 292
v  -930 700 292
v  -953 500 292
v  -900 545 292
v  -930 500 292
v  -952 489 292
v  -953 489 292
v  -950.5 481.600006 292
v  -952 482.466034 292
v  -919.5 481.600006 292
v  -918 485 292
v  -927.875 500 292
v  -925.75 500 292
v  -921.5 500 292
v  -913 500 292
v  -913 485 292
v  -918 482.466034 292
v  -900 530 292
v  -900.14447 527.059509 292
v  -900.576416 524.147278 292
v  -901.291809 521.291443 292
v  -902.28363 518.51947 292
v  -903.542358 515.858093 292
v  -905.055908 513.332886 292
v  -906.809692 510.968201 292
v  -908.786804 508.786804 292
v  -910.968201 506.809692 292
v  -913.332886 505.055908 292
v  -915.858093 503.542358 292
v  -918.51947 502.2836 292
v  -921.291443 501.291779 292
v  -924.147278 500.576447 292
v  -927.059509 500.14447 292
v  -919.5 457.149994 292
v  -950.5 457.149994 292
v  -878 520 292
v  -900 527.5 292
v  -900 525 292
v  -900 520 292
v  -860 537 292
v  -860 545 292
v  -854 513 292
v  -878 513 292
v  -854 537 292
v  -900 670 292
v  -900.14447 672.940491 292
v  -900.576416 675.852722 292
v  -901.291809 678.708557 292
v  -902.28363 681.48053 292
v  -903.542358 684.141907 292
v  -905.055908 686.667114 292
v  -906.809692 689.031799 292
v  -908.786804 691.213196 292
v  -910.968201 693.190308 292
v  -913.332886 694.944092 292
v  -915.858093 696.457642 292
v  -918.51947 697.71637 292
v  -921.291443 698.708191 292
v  -924.147278 699.423584 292
v  -927.059509 699.85553 292
v  -1048 489 42
v  -1047 489 42
v  -918 482.466034 42
v  -918 485 42
v  -860 545 42
v  -860 537 42
v  -900 545 42
v  -878 520 42
v  -854 513 42
v  -878 513 42
v  -854 537 42
v  -900 530 42
v  -930 500 42
v  -953 500 42
v  -930 700 42
v  -900 670 42
v  -900 527.5 42
v  -900 525 42
v  -900 520 42
v  -900.14447 527.059509 42
v  -900.576416 524.147278 42
v  -901.291809 521.291443 42
v  -902.28363 518.51947 42
v  -903.542358 515.858093 42
v  -905.055908 513.332886 42
v  -906.809692 510.968201 42
v  -908.786804 508.786804 42
v  -910.968201 506.809692 42
v  -913.332886 505.055908 42
v  -915.858093 503.542358 42
v  -918.51947 502.2836 42
v  -921.291443 501.291779 42
v  -924.147278 500.576447 42
v  -927.059509 500.14447 42
v  -952 489 42
v  -953 489 42
v  -950.5 481.600006 42
v  -952 482.466034 42
v  -919.5 481.600006 42
v  -927.875 500 42
v  -925.75 500 42
v  -921.5 500 42
v  -913 500 42
v  -913 485 42
v  -919.5 457.149994 42
v  -950.5 457.149994 42
v  -900.14447 672.940491 42
v  -900.576416 675.852722 42
v  -901.291809 678.708557 42
v  -902.28363 681.48053 42
v  -903.542358 684.141907 42
v  -905.055908 686.667114 42
v  -906.809692 689.031799 42
v  -908.786804 691.213196 42
v  -910.968201 693.190308 42
v  -913.332886 694.944092 42
v  -915.858093 696.457642 42
v  -918.51947 697.71637 42
v  -921.291443 698.708191 42
v  -924.147278 699.423584 42
v  -927.059509 699.85553 42
v  -1047 500 42
v  -1070 700 42
v  -1100 670 42
v  -1099.85559 672.940491 42
v  -1099.42358 675.852722 42
v  -1098.70825 678.708557 42
v  -1097.71643 681.48053 42
v  -1096.45764 684.141907 42
v  -1094.94409 686.667114 42
v  -1093.19031 689.031799 42
v  -1091.21326 691.213196 42
v  -1089.03174 693.190308 42
v  -1086.66711 694.944092 42
v  -1084.14185 696.457642 42
v  -1081.48047 697.71637 42
v  -1078.7085 698.708191 42
v  -1075.85266 699.423584 42
v  -1072.94055 699.85553 42
v  -1100 530 42
v  -1070 500 42
v  -1099.85559 527.059509 42
v  -1099.42358 524.147278 42
v  -1098.70825 521.291443 42
v  -1097.71643 518.51947 42
v  -1096.45764 515.858093 42
v  -1094.94409 513.332886 42
v  -1093.19031 510.968201 42
v  -1091.21326 508.786804 42
v  -1089.03174 506.809692 42
v  -1086.66711 505.055908 42
v  -1084.14185 503.542358 42
v  -1081.48047 502.2836 42
v  -1078.7085 501.291779 42
v  -1075.85266 500.576447 42
v  -1072.94055 500.14447 42
v  -1049.5 481.600006 42
v  -1080.5 481.600006 42
v  -1082 489 42
v  -1072.125 500 42
v  -1074.25 500 42
v  -1078.5 500 42
v  -1087 500 42
v  -1087 489 42
v  -1082 482.466034 42
v  -1049.5 457.149994 42
v  -1080.5 457.149994 42
v  -1048 482.466034 42

# 0 UV coordinates

# 47 vertex normals
vn -0.980054677 -0.198659897 0.00519214803
vn -0.983537376 -0.0582755469 0.171050489
vn -0.929140627 -0.355504096 0.10156066
vn 0 0 1
vn 0 -0.999758065 0.0219946764
vn 0.970829785 -0.0575226098 0.232767329
vn 0.924250185 -0.282906353 0.256370187
vn 0 0 0.99999994
vn 0.839990973 -0.532509327 0.104158878
vn 0.980064571 -0.198661909 0.00259610033
vn 0 -0.999033451 0.0439574718
vn -0.366480231 -0.929315448 0.0454435498
vn -0.98768574 -0.07558088 0.136983037
vn 0 -0.999758124 0.0219946783
vn -0.98255533 -0.0582173616 0.176623806
vn 0.974914491 -0.0577646345 0.214953929
vn 0.847294986 0 0.531122506
vn 0.914915562 -0.403639972 0.00204562
vn -0.860083878 0 0.510152638
vn 0 0.854715347 0.51909709
vn 0.703618288 -0.703618288 0.0992101803
vn -0.14429304 -0.989437997 0.0138521325
vn 0.992207527 0.124025941 0.0119064907
vn 0.98768574 -0.07558088 -0.136983037
vn 0 -0.999758124 -0.0219946783
vn 0.914909899 -0.403637439 -0.00409121439
vn 0.954229116 0 -0.299076796
vn 0 0 -1
vn 0 0.635588408 -0.772028029
vn -0.644521236 0 -0.764586329
vn 0.706229806 -0.706229806 -0.0497891977
vn -0.503723741 -0.863526344 -0.0241787378
vn 0.894221187 0.447110593 -0.021461308
vn 0 0 -0.99999994
vn -0.924250185 -0.282906353 -0.256370187
vn 0 -0.999033451 -0.0439574718
vn -0.939572155 -0.0556705669 -0.337794334
vn -0.980064571 -0.198661909 -0.00259610033
vn 0.992258787 -0.0587923005 -0.109389037
vn 0.365350217 -0.926449955 -0.0906068534
vn -0.843429387 -0.534689128 -0.0522926226
vn 0.991177142 -0.0587282144 -0.11882291
vn -0.943020999 -0.0558749139 -0.328008294
vn -0.54311651 -0.831220329 -0.118731804
vn 0 -0.999033391 -0.0439574681
vn -0.980064631 -0.198661938 -0.00259610056
vn 0.980054677 -0.198659897 -0.00519214803

# Mesh '0' with 254 faces
g 0
usemtl RAL9007
f  1//1 2//2 3//3
f  4//4 3//3 2//2
f  3//3 4//4 5//4
f  5//4 6//4 3//3
f  6//4 7//4 3//3
f  7//4 8//4 3//3
f  3//3 8//4 9//5
f  4//4 2//2 10//6
f  4//4 10//6 11//7
f  12//8 4//4 11//7
f  12//8 13//4 4//4
f  14//4 4//4 13//4
f  14//4 15//4 4//4
f  4//4 15//4 16//8
f  4//4 16//8 17//4
f  18//4 4//4 17//4
f  18//4 19//4 4//4
f  19//4 20//4 4//4
f  4//4 20//4 21//4
f  4//4 21//4 22//4
f  22//4 23//4 4//4
f  24//8 4//4 23//4
f  25//4 4//4 24//8
f  25//4 26//8 4//4
f  4//4 26//8 27//4
f  27//4 28//4 4//4
f  29//9 10//6 2//2
f  30//10 11//7 10//6
f  31//11 12//8 11//7
f  29//9 2//2 32//12
f  33//4 13//4 12//8
f  34//4 33//4 12//8
f  34//4 35//4 33//4
f  36//4 35//4 34//4
f  34//4 37//8 36//4
f  34//4 38//4 37//8
f  39//4 38//4 34//4
f  40//4 39//4 34//4
f  34//4 41//4 40//4
f  41//4 34//4 42//4
f  34//4 43//4 42//4
f  34//4 44//4 43//4
f  45//4 44//4 34//4
f  45//4 34//4 46//4
f  34//4 47//4 46//4
f  34//4 48//8 47//4
f  48//8 34//4 49//4
f  34//4 12//8 50//4
f  51//8 50//4 12//8
f  51//8 52//4 50//4
f  53//4 52//4 51//8
f  51//8 54//13 53//4
f  55//14 54//13 51//8
f  53//4 54//13 56//15
f  57//1 56//15 54//13
f  53//4 56//15 58//16
f  59//17 53//4 58//16
f  53//4 59//17 60//4
f  60//4 59//17 61//4
f  59//17 62//4 61//4
f  63//4 62//4 59//17
f  63//4 59//17 64//4
f  58//16 65//18 59//17
f  66//4 52//4 53//4
f  67//4 66//4 53//4
f  68//4 67//4 53//4
f  68//4 53//4 69//4
f  69//4 53//4 70//4
f  71//4 70//4 53//4
f  53//4 72//4 71//4
f  73//4 72//4 53//4
f  53//4 74//8 73//4
f  53//4 75//4 74//8
f  53//4 76//4 75//4
f  76//4 53//4 77//4
f  78//4 77//4 53//4
f  78//4 53//4 79//4
f  79//4 53//4 80//4
f  53//4 81//4 80//4
f  56//15 82//9 58//16
f  82//9 56//15 83//12
f  84//19 52//4 66//4
f  84//19 66//4 85//8
f  85//8 86//8 84//19
f  86//8 87//8 84//19
f  88//20 52//4 84//19
f  52//4 88//20 89//4
f  90//21 88//20 84//19
f  91//22 90//21 84//19
f  90//21 92//23 88//20
f  93//8 50//4 52//4
f  50//4 93//8 94//4
f  95//4 50//4 94//4
f  95//4 96//4 50//4
f  96//4 97//4 50//4
f  97//4 98//4 50//4
f  99//4 50//4 98//4
f  99//4 100//4 50//4
f  100//4 101//4 50//4
f  101//4 102//4 50//4
f  50//4 102//4 103//4
f  103//4 104//4 50//4
f  50//4 104//4 105//4
f  50//4 105//4 106//4
f  106//4 107//4 50//4
f  50//4 107//4 108//4
f  11//7 109//24 110//25
f  110//25 31//11 11//7
f  65//18 111//26 112//27
f  112//27 59//17 65//18
f  113//28 114//29 115//28
f  116//30 115//28 114//29
f  116//30 114//29 117//31
f  116//30 117//31 118//32
f  114//29 119//33 117//31
f  120//28 115//28 116//30
f  121//28 115//28 120//28
f  122//34 115//28 121//28
f  123//28 115//28 122//34
f  115//28 123//28 124//34
f  125//34 120//28 116//30
f  116//30 126//34 125//34
f  116//30 127//34 126//34
f  121//28 120//28 128//34
f  121//28 128//34 129//28
f  130//28 121//28 129//28
f  131//28 121//28 130//28
f  121//28 131//28 132//28
f  132//28 133//28 121//28
f  121//28 133//28 134//28
f  134//28 135//28 121//28
f  135//28 136//28 121//28
f  136//28 137//28 121//28
f  138//28 121//28 137//28
f  121//28 138//28 139//34
f  140//28 121//28 139//34
f  141//28 121//28 140//28
f  141//28 142//28 121//28
f  121//28 143//35 122//34
f  122//34 143//35 144//36
f  145//37 143//35 121//28
f  143//35 145//37 146//38
f  147//39 145//37 121//28
f  147//39 121//28 112//27
f  148//28 112//27 121//28
f  149//28 112//27 148//28
f  149//28 150//28 112//27
f  112//27 150//28 151//28
f  152//28 112//27 151//28
f  112//27 111//26 147//39
f  147//39 153//40 145//37
f  154//41 145//37 153//40
f  155//28 124//34 123//28
f  155//28 123//28 156//28
f  123//28 157//28 156//28
f  123//28 158//28 157//28
f  123//28 159//28 158//28
f  159//28 123//28 160//28
f  123//28 161//28 160//28
f  123//28 162//34 161//28
f  123//28 163//28 162//34
f  164//28 163//28 123//28
f  123//28 165//28 164//28
f  166//34 165//28 123//28
f  167//28 166//34 123//28
f  123//28 168//34 167//28
f  169//28 168//34 123//28
f  170//34 123//28 122//34
f  123//28 170//34 171//28
f  170//34 172//28 171//28
f  172//28 173//28 171//28
f  171//28 173//28 174//28
f  174//28 175//34 171//28
f  175//34 176//34 171//28
f  171//28 176//34 177//28
f  171//28 177//28 178//28
f  178//28 179//28 171//28
f  180//34 171//28 179//28
f  180//34 181//28 171//28
f  181//28 182//28 171//28
f  171//28 182//28 183//28
f  184//28 171//28 183//28
f  184//28 185//28 171//28
f  185//28 186//28 171//28
f  187//28 171//28 186//28
f  170//34 188//28 172//28
f  189//28 188//28 170//34
f  188//28 189//28 190//28
f  189//28 191//28 190//28
f  192//28 191//28 189//28
f  193//28 192//28 189//28
f  193//28 189//28 194//28
f  189//28 195//28 194//28
f  189//28 196//28 195//28
f  197//28 196//28 189//28
f  198//28 197//28 189//28
f  189//28 199//28 198//28
f  199//28 189//28 200//28
f  200//28 189//28 201//28
f  189//28 202//28 201//28
f  203//28 202//28 189//28
f  189//28 204//28 203//28
f  109//24 189//28 170//34
f  109//24 205//42 189//28
f  205//42 206//43 189//28
f  206//43 207//44 189//28
f  208//28 189//28 207//44
f  207//44 209//28 208//28
f  207//44 210//28 209//28
f  207//44 211//28 210//28
f  212//45 211//28 207//44
f  207//44 206//43 213//46
f  109//24 170//34 110//25
f  206//43 205//42 214//40
f  215//41 206//43 214//40
f  205//42 109//24 216//47
f  119//33 114//29 88//20
f  88//20 92//23 119//33
f  30//10 10//6 205//42
f  205//42 216//47 30//10
f  29//9 214//40 205//42
f  205//42 10//6 29//9
f  32//12 215//41 214//40
f  214//40 29//9 32//12
f  2//2 206//43 215//41
f  215//41 32//12 2//2
f  2//2 1//1 213//46
f  213//46 206//43 2//2
f  207//44 3//3 9//5
f  9//5 212//45 207//44
f  3//3 207//44 213//46
f  213//46 1//1 3//3
f  109//24 11//7 30//10
f  30//10 216//47 109//24
f  54//13 143//35 146//38
f  146//38 57//1 54//13
f  143//35 54//13 55//14
f  55//14 144//36 143//35
f  84//19 116//30 118//32
f  118//32 91//22 84//19
f  65//18 58//16 147//39
f  147//39 111//26 65//18
f  82//9 153//40 147//39
f  147//39 58//16 82//9
f  83//12 154//41 153//40
f  153//40 82//9 83//12
f  56//15 145//37 154//41
f  154//41 83//12 56//15
f  56//15 57//1 146//38
f  146//38 145//37 56//15
f  117//31 119//33 92//23
f  92//23 90//21 117//31
f  91//22 118//32 117//31
f  117//31 90//21 91//22

