# File produced by Open Asset Import Library (http://www.assimp.sf.net)
# (assimp v5.2.0)

mtllib a2_cut_schlepp_3_1.mtl

# 171 vertex positions
v  -1089 960 408.5
v  -1089 960 512.5
v  -1359 960 512.5
v  -1359 960 408.5
v  -1359 925 408.5
v  -1089 845 408.5
v  -1319 845 408.5
v  -1359 925 403.5
v  -1319 845 403.5
v  -1359 965 512.5
v  -1089 965 512.5
v  -1084 965 516.5
v  -1084 965 509.4375
v  -1084 965 502.375
v  -1089 965 521.5
v  -1049 965 521.5
v  -1084 965 488.25
v  -1049 965 516.5
v  -1084 965 460
v  -1359 965 403.5
v  -1084 965 403.5
v  -1089 700 521.5
v  -1089 700 408.5
v  -1084 845 403.5
v  -1084 845 408.5
v  -1084 705 516.5
v  -1084 705 408.5
v  -1019 745 521.5
v  -1019 745 516.5
v  -1019 705 516.5
v  -1019 700 521.5
v  -1019 700 408.5
v  -1019 705 408.5
v  -1303 845 403.5
v  -1110 845 403.5
v  -1303 837.5 403.5
v  -1110 837.5 403.5
v  -1303 872.5 403.5
v  -1110 872.5 403.5
v  -1303 837.5 394.299988
v  -1110 837.5 394.299988
v  -1110 872.5 394.299988
v  -1303 872.5 394.299988
v  -1195.52734 853.354431 403.5
v  -1195.19995 855 403.5
v  -1195.19995 855 401.399994
v  -1195.52734 856.645569 403.5
v  -1195.52734 853.354431 401.399994
v  -1195.52734 856.645569 401.399994
v  -1196.45947 851.959412 401.399994
v  -1196.45947 858.040588 403.5
v  -1196.45947 851.959412 403.5
v  -1196.45947 858.040588 401.399994
v  -1197.85449 851.027344 401.399994
v  -1197.85449 858.972656 403.5
v  -1197.85449 851.027344 403.5
v  -1197.85449 858.972656 401.399994
v  -1199.5 850.700012 401.399994
v  -1199.5 859.299988 403.5
v  -1199.5 850.700012 403.5
v  -1199.5 859.299988 401.399994
v  -1201.14551 851.027344 401.399994
v  -1201.14551 858.972656 403.5
v  -1201.14551 851.027344 403.5
v  -1201.14551 858.972656 401.399994
v  -1202.54053 851.959412 401.399994
v  -1202.54053 858.040588 403.5
v  -1202.54053 851.959412 403.5
v  -1202.54053 858.040588 401.399994
v  -1203.47266 853.354431 401.399994
v  -1203.47266 856.645569 403.5
v  -1203.47266 853.354431 403.5
v  -1203.47266 856.645569 401.399994
v  -1203.80005 855 401.399994
v  -1203.80005 855 403.5
v  -1293.52734 853.354431 403.5
v  -1293.19995 855 403.5
v  -1293.19995 855 401.399994
v  -1293.52734 856.645569 403.5
v  -1293.52734 853.354431 401.399994
v  -1293.52734 856.645569 401.399994
v  -1294.45947 851.959412 401.399994
v  -1294.45947 858.040588 403.5
v  -1294.45947 851.959412 403.5
v  -1294.45947 858.040588 401.399994
v  -1295.85449 851.027344 401.399994
v  -1295.85449 858.972656 403.5
v  -1295.85449 851.027344 403.5
v  -1295.85449 858.972656 401.399994
v  -1297.5 850.700012 401.399994
v  -1297.5 859.299988 403.5
v  -1297.5 850.700012 403.5
v  -1297.5 859.299988 401.399994
v  -1299.14551 851.027344 401.399994
v  -1299.14551 858.972656 403.5
v  -1299.14551 851.027344 403.5
v  -1299.14551 858.972656 401.399994
v  -1300.54053 851.959412 401.399994
v  -1300.54053 858.040588 403.5
v  -1300.54053 851.959412 403.5
v  -1300.54053 858.040588 401.399994
v  -1301.47266 853.354431 401.399994
v  -1301.47266 856.645569 403.5
v  -1301.47266 853.354431 403.5
v  -1301.47266 856.645569 401.399994
v  -1301.80005 855 401.399994
v  -1301.80005 855 403.5
v  -1223 850.700012 401.399994
v  -1223 850.700012 403.5
v  -1221.35449 851.027344 403.5
v  -1224.64551 851.027344 401.399994
v  -1221.35449 851.027344 401.399994
v  -1224.64551 851.027344 403.5
v  -1219.95947 851.959412 403.5
v  -1226.04053 851.959412 401.399994
v  -1219.95947 851.959412 401.399994
v  -1226.04053 851.959412 403.5
v  -1219.02734 853.354431 403.5
v  -1226.97266 853.354431 401.399994
v  -1219.02734 853.354431 401.399994
v  -1226.97266 853.354431 403.5
v  -1218.69995 855 401.399994
v  -1227.30005 855 401.399994
v  -1218.69995 855 403.5
v  -1227.30005 855 403.5
v  -1219.02734 856.645569 403.5
v  -1226.97266 856.645569 403.5
v  -1219.02734 856.645569 401.399994
v  -1226.97266 856.645569 401.399994
v  -1219.95947 858.040588 403.5
v  -1226.04053 858.040588 401.399994
v  -1219.95947 858.040588 401.399994
v  -1226.04053 858.040588 403.5
v  -1221.35449 858.972656 403.5
v  -1224.64551 858.972656 401.399994
v  -1221.35449 858.972656 401.399994
v  -1224.64551 858.972656 403.5
v  -1223 859.299988 403.5
v  -1223 859.299988 401.399994
v  -1125 850.700012 401.399994
v  -1125 850.700012 403.5
v  -1123.35449 851.027344 403.5
v  -1126.64551 851.027344 401.399994
v  -1123.35449 851.027344 401.399994
v  -1126.64551 851.027344 403.5
v  -1121.95947 851.959412 403.5
v  -1128.04053 851.959412 401.399994
v  -1121.95947 851.959412 401.399994
v  -1128.04053 851.959412 403.5
v  -1121.02734 853.354431 403.5
v  -1128.97266 853.354431 401.399994
v  -1121.02734 853.354431 401.399994
v  -1128.97266 853.354431 403.5
v  -1120.69995 855 401.399994
v  -1129.30005 855 401.399994
v  -1120.69995 855 403.5
v  -1129.30005 855 403.5
v  -1121.02734 856.645569 403.5
v  -1128.97266 856.645569 403.5
v  -1121.02734 856.645569 401.399994
v  -1128.97266 856.645569 401.399994
v  -1121.95947 858.040588 403.5
v  -1128.04053 858.040588 401.399994
v  -1121.95947 858.040588 401.399994
v  -1128.04053 858.040588 403.5
v  -1123.35449 858.972656 403.5
v  -1126.64551 858.972656 401.399994
v  -1123.35449 858.972656 401.399994
v  -1126.64551 858.972656 403.5
v  -1125 859.299988 403.5
v  -1125 859.299988 401.399994

# 0 UV coordinates

# 112 vertex normals
vn -0.170211613 -0.799254537 0.576385498
vn -0.832958937 -0.550794423 0.052961003
vn -0.00925618876 -0.99966836 0.0240304898
vn -0.0485461801 -0.946650505 0.318584323
vn -0.00976178702 -0.0033954042 0.999946535
vn -0.761368155 -0.0176105183 0.648080587
vn -0.0430123694 -0.139521375 0.989284515
vn -0.0245169234 -0.00834618695 -0.999664545
vn -0.139764488 -0.0978351384 -0.985339642
vn -0.0239558835 0.997866571 0.0607332252
vn -0.0142706474 0.903609455 0.428119421
vn 0.976887107 0.0106817698 -0.213488773
vn 0 1 0
vn -0.223392293 0.0225230902 0.97446841
vn 0.0401794985 0.0191765781 0.999008417
vn 0 0.99999994 0
vn 0.0890589356 0.0192286335 -0.995840788
vn -0.0159089919 0.971889913 -0.234897867
vn 0.32269299 0.354084909 -0.877777338
vn -0.82976228 -0.140109286 0.540244401
vn -0.718601465 -0.693822086 -0.0471465699
vn 0.154450253 -0.039899651 -0.987194538
vn 0.999925435 -0.000435811293 -0.0122027164
vn 0.838343501 0.136230811 -0.527845919
vn 0.72902739 0.676954031 -0.101253808
vn 0.1307621 0.0149442395 0.991301179
vn 0.0716362223 0.00826571789 -0.997396588
vn 0.106542625 0.977685273 -0.181052819
vn 0.0489167385 -0.979573131 0.195047751
vn 0.137861654 -0.986864865 -0.0842141286
vn 0.0766149238 0.995993972 -0.0461108312
vn -0.234627977 -0.380723476 0.894426882
vn 0.263102651 -0.917181134 0.299258441
vn -0.0301061384 -0.774731278 0.631573558
vn 0.0150581868 -0.774994671 0.631788313
vn -0.0193483215 0.135790035 -0.99054867
vn 0.00656634849 0.0921676531 -0.995721817
vn -0.0511673987 -0.464720368 -0.88397783
vn 0.0286829881 -0.130254507 -0.991065621
vn 0.082048066 0.253364444 -0.963885188
vn -0.0411279909 0.254006475 -0.966327727
vn -0.921079755 0.381544471 -0.0776909888
vn -0.575798333 0 -0.817591846
vn -0.99697566 0 0.0777146369
vn -0.942115486 -0.319036752 -0.103121273
vn -0.087147519 0.03609965 0.995541155
vn -0.194330037 -0.0960191935 0.976225436
vn -0.388678819 0.340348125 0.856207907
vn -0.0849425048 -0.0743802339 -0.993605733
vn -0.123465717 0.141005903 -0.982279778
vn -0.655250192 -0.748338461 0.103135221
vn -0.411424726 0.832726836 0.370534211
vn -0.440593451 -0.891764581 -0.103118122
vn -0.319011301 0.942124546 -0.103118055
vn -0.110522024 -0.326400697 0.938747764
vn -0.0658100024 0.992487967 0.103133865
vn -0.0481004082 -0.7254076 -0.686636746
vn 0.0481004082 0.7254076 -0.686636746
vn 0.0658100024 -0.992487967 0.103133865
vn 0.233164877 0.688597381 0.686635077
vn 0.319011301 -0.942124546 -0.103118055
vn 0.440593451 0.891764581 -0.103118122
vn 0.32202363 -0.65177834 0.68664819
vn 0.250796109 0.286425501 0.924695432
vn 0.123465702 -0.141005889 -0.982279718
vn 0.0849425122 0.0743802413 -0.993605733
vn 0.748320937 -0.655270159 0.103134498
vn 0.234663248 0.115947977 0.965136886
vn 0.921079755 -0.381544501 -0.0776909888
vn 0.942115486 0.319036752 -0.103121273
vn 0.0789309517 -0.0326960497 0.996343672
vn 0.99697566 0 0.0777146369
vn 0.575798333 0 -0.817591846
vn -0.921079755 0.381544441 -0.0776909813
vn -0.125916064 0 -0.992040873
vn -0.942115486 -0.319036722 -0.103121273
vn -0.546940327 -0.478930414 -0.686645508
vn -0.478914201 0.546951234 -0.686648011
vn -0.00747003965 -0.112656504 -0.993605971
vn 0.00747003965 0.112656504 -0.993605971
vn 0.478914201 -0.546951234 -0.686648071
vn 0.546940327 0.478930414 -0.686645508
vn 0.921079755 -0.381544471 -0.0776909888
vn 0.942115486 0.319036722 -0.103121273
vn 0.0789309666 -0.0326960571 0.996343791
vn 0.125916064 0 -0.992040873
vn 0.233160987 0.688585877 0.686647892
vn -0.228843346 0.463180691 0.856209338
vn -0.123465702 0.141005889 -0.982279718
vn 0.655250192 0.748338461 0.103135221
vn -0.12017826 0.105234556 0.987159014
vn 0.0849425048 0.0743802339 -0.993605733
vn 0.110019222 0.0543609001 0.992441833
vn -0.344125479 0.142549202 0.928039491
vn -0.651755095 -0.322034627 0.686665058
vn 0.219160706 -0.0907842815 0.971455991
vn 0.123465717 -0.141005903 -0.982279778
vn -0.0361124575 -0.106649607 0.993640602
vn -0.319011301 0.942124546 -0.103118032
vn -0.227011681 0.259262145 -0.938748598
vn 0.388676167 0.3403458 -0.856210053
vn -0.313556671 0.129886493 -0.940644324
vn 0.110019207 0.0543608963 0.992441833
vn 0.133565232 0.0452303551 -0.990007281
vn -0.988064647 0 -0.154040039
vn 0.988064647 0 -0.154040039
vn -0.133565262 -0.0452303626 -0.990007341
vn 0.313556671 -0.129886493 -0.940644324
vn -0.651755154 -0.322034627 0.686665058
vn 0.219160706 -0.0907842815 0.971455932
vn -0.388676167 -0.3403458 -0.856210053
vn 0.227011681 -0.259262145 -0.938748598

# Mesh '0' with 318 faces
g 0
usemtl vc_default
f  1//1 2//2 3//3
f  3//3 4//4 1//1
f  1//1 4//4 5//5
f  5//5 6//6 1//1
f  5//5 7//7 6//6
f  7//7 5//5 8//8
f  8//8 9//9 7//7
f  2//2 10//10 3//3
f  10//10 2//2 11//11
f  12//12 13//13 11//11
f  11//11 13//13 14//13
f  15//14 12//12 11//11
f  14//13 10//10 11//11
f  12//12 15//14 16//15
f  14//13 17//16 10//10
f  16//15 18//17 12//12
f  17//16 19//13 10//10
f  20//18 10//10 19//13
f  20//18 19//13 21//19
f  2//2 1//1 6//6
f  6//6 22//20 2//2
f  22//20 6//6 23//21
f  15//14 2//2 22//20
f  2//2 15//14 11//11
f  24//22 21//19 25//23
f  12//12 25//23 21//19
f  12//12 26//24 25//23
f  27//25 25//23 26//24
f  3//3 10//10 4//4
f  4//4 10//10 20//18
f  20//18 8//8 4//4
f  8//8 5//5 4//4
f  18//17 16//15 28//26
f  28//26 29//27 18//17
f  28//26 30//28 29//27
f  28//26 31//29 30//28
f  32//30 30//28 31//29
f  33//31 30//28 32//30
f  9//9 34//32 7//7
f  34//32 35//33 7//7
f  6//6 7//7 35//33
f  35//33 24//22 6//6
f  25//23 6//6 24//22
f  34//32 36//34 37//35
f  37//35 35//33 34//32
f  38//36 9//9 8//8
f  9//9 38//36 34//32
f  38//36 8//8 39//37
f  21//19 39//37 8//8
f  21//19 24//22 39//37
f  21//19 8//8 20//18
f  24//22 35//33 39//37
f  31//29 22//20 23//21
f  23//21 32//30 31//29
f  18//17 29//27 26//24
f  30//28 26//24 29//27
f  18//17 26//24 12//12
f  28//26 22//20 31//29
f  22//20 28//26 16//15
f  15//14 22//20 16//15
f  33//31 32//30 27//25
f  23//21 27//25 32//30
f  23//21 6//6 27//25
f  25//23 27//25 6//6
f  40//38 41//39 37//35
f  37//35 36//34 40//38
f  35//33 42//40 39//37
f  42//40 35//33 41//39
f  35//33 37//35 41//39
f  43//41 38//36 39//37
f  39//37 42//40 43//41
f  41//39 40//38 43//41
f  43//41 42//40 41//39
f  43//41 40//38 34//32
f  36//34 34//32 40//38
f  34//32 38//36 43//41
f  27//25 26//24 30//28
f  30//28 33//31 27//25
f  44//42 45//43 46//44
f  46//44 45//43 47//45
f  44//42 46//44 48//46
f  47//45 49//47 46//44
f  44//42 48//46 50//48
f  51//49 49//47 47//45
f  50//48 52//50 44//42
f  51//49 53//51 49//47
f  52//50 50//48 54//52
f  53//51 51//49 55//53
f  52//50 54//52 56//54
f  55//53 57//55 53//51
f  56//54 54//52 58//56
f  59//57 57//55 55//53
f  58//56 60//58 56//54
f  59//57 61//59 57//55
f  60//58 58//56 62//60
f  61//59 59//57 63//61
f  60//58 62//60 64//62
f  63//61 65//63 61//59
f  64//62 62//60 66//64
f  67//65 65//63 63//61
f  66//64 68//66 64//62
f  67//65 69//67 65//63
f  68//66 66//64 70//68
f  69//67 67//65 71//69
f  68//66 70//68 72//70
f  71//69 73//71 69//67
f  72//70 70//68 74//72
f  71//69 74//72 73//71
f  74//72 75//73 72//70
f  71//69 75//73 74//72
f  46//44 49//47 48//46
f  73//71 48//46 49//47
f  70//68 48//46 73//71
f  49//47 57//55 73//71
f  70//68 66//64 48//46
f  73//71 74//72 70//68
f  49//47 53//51 57//55
f  57//55 65//63 73//71
f  50//48 48//46 66//64
f  61//59 65//63 57//55
f  65//63 69//67 73//71
f  66//64 62//60 50//48
f  50//48 62//60 54//52
f  54//52 62//60 58//56
f  76//74 77//75 78//44
f  78//44 77//75 79//76
f  76//74 78//44 80//46
f  79//76 81//47 78//44
f  76//74 80//46 82//48
f  83//77 81//47 79//76
f  82//48 84//78 76//74
f  83//77 85//51 81//47
f  84//78 82//48 86//52
f  85//51 83//77 87//53
f  84//78 86//52 88//54
f  87//53 89//55 85//51
f  88//54 86//52 90//56
f  91//79 89//55 87//53
f  90//56 92//80 88//54
f  91//79 93//59 89//55
f  92//80 90//56 94//60
f  93//59 91//79 95//61
f  92//80 94//60 96//62
f  95//61 97//63 93//59
f  96//62 94//60 98//64
f  99//81 97//63 95//61
f  98//64 100//82 96//62
f  99//81 101//67 97//63
f  100//82 98//64 102//68
f  101//67 99//81 103//83
f  100//82 102//68 104//84
f  103//83 105//85 101//67
f  104//84 102//68 106//72
f  103//83 106//72 105//85
f  106//72 107//86 104//84
f  103//83 107//86 106//72
f  78//44 81//47 80//46
f  105//85 80//46 81//47
f  102//68 80//46 105//85
f  81//47 89//55 105//85
f  102//68 98//64 80//46
f  105//85 106//72 102//68
f  81//47 85//51 89//55
f  89//55 97//63 105//85
f  82//48 80//46 98//64
f  93//59 97//63 89//55
f  97//63 101//67 105//85
f  98//64 94//60 82//48
f  82//48 94//60 86//52
f  86//52 94//60 90//56
f  108//56 109//58 110//54
f  109//58 108//56 111//87
f  110//54 112//88 108//56
f  109//58 111//87 113//62
f  114//89 112//88 110//54
f  113//62 111//87 115//90
f  114//89 116//91 112//88
f  115//90 117//92 113//62
f  116//91 114//89 118//74
f  117//92 115//90 119//93
f  118//74 120//94 116//91
f  117//92 119//93 121//70
f  118//74 122//44 120//94
f  121//70 119//93 123//72
f  118//74 124//43 122//44
f  123//72 125//73 121//70
f  122//44 124//43 126//45
f  127//69 125//73 123//72
f  126//45 128//95 122//44
f  127//69 123//72 129//96
f  130//49 128//95 126//45
f  127//69 129//96 131//67
f  130//49 132//51 128//95
f  131//67 133//97 127//69
f  132//51 130//49 134//53
f  133//97 131//67 135//63
f  134//53 136//98 132//51
f  133//97 135//63 137//61
f  138//57 136//98 134//53
f  137//61 135//63 139//59
f  138//57 139//59 136//98
f  139//59 138//57 137//61
f  128//95 132//51 136//98
f  120//94 128//95 136//98
f  128//95 120//94 122//44
f  120//94 136//98 116//91
f  116//91 136//98 119//93
f  129//96 119//93 136//98
f  116//91 119//93 112//88
f  129//96 123//72 119//93
f  136//98 135//63 129//96
f  112//88 119//93 111//87
f  139//59 135//63 136//98
f  135//63 131//67 129//96
f  119//93 115//90 111//87
f  112//88 111//87 108//56
f  126//45 124//43 130//49
f  114//89 130//49 124//43
f  130//49 114//89 117//92
f  114//89 124//43 118//74
f  109//58 117//92 114//89
f  133//97 130//49 117//92
f  117//92 109//58 113//62
f  114//89 110//54 109//58
f  133//97 138//57 130//49
f  125//73 133//97 117//92
f  133//97 137//61 138//57
f  130//49 138//57 134//53
f  133//97 125//73 127//69
f  121//70 125//73 117//92
f  140//56 141//58 142//99
f  141//58 140//56 143//87
f  142//99 144//88 140//56
f  141//58 143//87 145//62
f  146//100 144//88 142//99
f  145//62 143//87 147//90
f  146//100 148//91 144//88
f  147//90 149//101 145//62
f  148//91 146//100 150//102
f  149//101 147//90 151//103
f  150//102 152//94 148//91
f  149//101 151//103 153//104
f  150//102 154//44 152//94
f  153//104 151//103 155//72
f  150//102 156//105 154//44
f  155//72 157//106 153//104
f  154//44 156//105 158//107
f  159//108 157//106 155//72
f  158//107 160//109 154//44
f  159//108 155//72 161//110
f  162//111 160//109 158//107
f  159//108 161//110 163//67
f  162//111 164//51 160//109
f  163//67 165//112 159//108
f  164//51 162//111 166//53
f  165//112 163//67 167//63
f  166//53 168//98 164//51
f  165//112 167//63 169//61
f  170//57 168//98 166//53
f  169//61 167//63 171//59
f  170//57 171//59 168//98
f  171//59 170//57 169//61
f  160//109 164//51 168//98
f  152//94 160//109 168//98
f  160//109 152//94 154//44
f  152//94 168//98 148//91
f  148//91 168//98 151//103
f  161//110 151//103 168//98
f  148//91 151//103 144//88
f  161//110 155//72 151//103
f  168//98 167//63 161//110
f  144//88 151//103 143//87
f  171//59 167//63 168//98
f  167//63 163//67 161//110
f  151//103 147//90 143//87
f  144//88 143//87 140//56
f  156//105 150//102 158//107
f  153//104 158//107 150//102
f  159//108 158//107 153//104
f  153//104 150//102 146//100
f  159//108 165//112 158//107
f  153//104 157//106 159//108
f  149//101 153//104 146//100
f  162//111 158//107 165//112
f  141//58 149//101 146//100
f  165//112 170//57 162//111
f  149//101 141//58 145//62
f  141//58 146//100 142//99
f  165//112 169//61 170//57
f  162//111 170//57 166//53
f  67//65 63//61 59//57
f  67//65 59//57 51//49
f  51//49 59//57 55//53
f  67//65 51//49 68//66
f  51//49 52//50 68//66
f  75//73 67//65 68//66
f  52//50 51//49 45//43
f  60//58 68//66 52//50
f  67//65 75//73 71//69
f  72//70 75//73 68//66
f  47//45 45//43 51//49
f  52//50 45//43 44//42
f  68//66 60//58 64//62
f  52//50 56//54 60//58
f  99//81 95//61 91//79
f  107//86 99//81 91//79
f  99//81 107//86 103//83
f  107//86 91//79 92//80
f  77//75 92//80 91//79
f  107//86 92//80 100//82
f  92//80 77//75 84//78
f  91//79 83//77 77//75
f  100//82 92//80 96//62
f  104//84 107//86 100//82
f  84//78 77//75 76//74
f  84//78 88//54 92//80
f  83//77 91//79 87//53
f  79//76 77//75 83//77

