# File produced by Open Asset Import Library (http://www.assimp.sf.net)
# (assimp v5.2.0)

mtllib a3_cut_0__4_1.mtl

# 199 vertex positions
v  -1100 545 -827.5
v  -900 545 -827.5
v  -1100 545 -715
v  -931.5 545 -672.5
v  -908.5 545 -672.5
v  -1068.5 545 -672.5
v  -900 545 -672.5
v  -910.150024 545 -666.599976
v  -1100 545 -685
v  -908.5 545 -667.552612
v  -929.849976 545 -666.599976
v  -1091.5 545 -672.5
v  -1125.5 545 -685
v  -931.5 545 -667.552612
v  -910.150024 545 -648.25
v  -1100 545 -672.5
v  -1070.15002 545 -666.599976
v  -1145 545 -705
v  -929.849976 545 -648.25
v  -1068.5 545 -667.552612
v  -1089.84998 545 -666.599976
v  -1145 545 -715
v  -1154.5 545 -676
v  -1070.15002 545 -648.25
v  -1091.5 545 -667.552612
v  -1126 545 -676
v  -1154.5 545 -705
v  -1089.84998 545 -648.25
v  -1125.5 545 -676.5
v  -1100 1341 -827.5
v  -1100 1341 -672.5
v  -1091.5 1341 -672.5
v  -1068.5 1341 -672.5
v  -1089.84998 1341 -666.599976
v  -931.5 1341 -672.5
v  -1091.5 1341 -667.552612
v  -1070.15002 1341 -666.599976
v  -900 1341 -827.5
v  -1068.5 1341 -667.552612
v  -1089.84998 1341 -648.25
v  -908.5 1341 -672.5
v  -1070.15002 1341 -648.25
v  -929.849976 1341 -666.599976
v  -900 1341 -672.5
v  -931.5 1341 -667.552612
v  -910.150024 1341 -666.599976
v  -929.849976 1341 -648.25
v  -908.5 1341 -667.552612
v  -910.150024 1341 -648.25
v  -1126 1180.23694 -676
v  -1125.5 1180.41431 -676.5
v  -1154.5 1180.23694 -676
v  -1035 1304 -607.5
v  -1035 1293 -661.5
v  -1035 1293 -607.5
v  -1035 1304 -672.5
v  -1035 1204 -672.5
v  -1035 1204 -661.5
v  -965 1304 -607.5
v  -965 1304 -672.5
v  -965 1293 -661.5
v  -965 1293 -607.5
v  -965 1204 -672.5
v  -965 1204 -661.5
v  -1000.00592 1293 -614
v  -1002.93219 1293 -614.289368
v  -997.079468 1293 -614.287048
v  -1005.74573 1293 -615.144104
v  -994.265259 1293 -615.139526
v  -1008.3385 1293 -616.53125
v  -991.671387 1293 -616.524658
v  -1010.61078 1293 -618.397583
v  -989.397583 1293 -618.389221
v  -1012.47534 1293 -620.671387
v  -987.53125 1293 -620.661499
v  -1013.86047 1293 -623.265259
v  -986.144104 1293 -623.254272
v  -1014.71295 1293 -626.079468
v  -985.289368 1293 -626.06781
v  -1015 1293 -629.00592
v  -985 1293 -628.99408
v  -1014.71063 1293 -631.93219
v  -985.287048 1293 -631.920532
v  -1013.8559 1293 -634.745728
v  -986.139526 1293 -634.734741
v  -1012.46875 1293 -637.338501
v  -987.524658 1293 -637.328613
v  -1010.60242 1293 -639.610779
v  -989.389221 1293 -639.602417
v  -1008.32861 1293 -641.475342
v  -991.661499 1293 -641.46875
v  -1005.73474 1293 -642.860474
v  -994.254272 1293 -642.855896
v  -1002.92053 1293 -643.712952
v  -997.06781 1293 -643.710632
v  -999.99408 1293 -644
v  -1154.5 1190.52258 -705
v  -1145 1190.52258 -705
v  -1125.5 1183.42908 -685
v  -1125.5 1190.52258 -705
v  -1125.5 1201 -685
v  -1125.5 1201 -705
v  -1145 1201 -705
v  -985.288208 767.926331 -673
v  -985 765 -673
v  -985 765 -672.5
v  -985.288208 767.926331 -672.5
v  -986.141785 770.740234 -673
v  -986.141785 770.740234 -672.5
v  -987.527954 773.333557 -673
v  -985.288208 762.073669 -672.5
v  -987.527954 773.333557 -672.5
v  -989.393372 775.606628 -673
v  -985.288208 762.073669 -673
v  -986.141785 759.259766 -672.5
v  -989.393372 775.606628 -672.5
v  -991.666443 777.472046 -673
v  -986.141785 759.259766 -673
v  -987.527954 756.666443 -672.5
v  -991.666443 777.472046 -672.5
v  -994.259766 778.858215 -673
v  -987.527954 756.666443 -673
v  -989.393372 754.393372 -672.5
v  -994.259766 778.858215 -672.5
v  -997.073669 779.711792 -673
v  -989.393372 754.393372 -673
v  -991.666443 752.527954 -672.5
v  -997.073669 779.711792 -672.5
v  -1000 780 -673
v  -991.666443 752.527954 -673
v  -994.259766 751.141785 -672.5
v  -1000 780 -672.5
v  -1002.92633 779.711792 -672.5
v  -1002.92633 779.711792 -673
v  -994.259766 751.141785 -673
v  -997.073669 750.288208 -672.5
v  -1005.74023 778.858215 -672.5
v  -1005.74023 778.858215 -673
v  -997.073669 750.288208 -673
v  -1000 750 -672.5
v  -1008.33356 777.472046 -672.5
v  -1008.33356 777.472046 -673
v  -1000 750 -673
v  -1002.92633 750.288208 -673
v  -1002.92633 750.288208 -672.5
v  -1010.60663 775.606628 -672.5
v  -1010.60663 775.606628 -673
v  -1005.74023 751.141785 -673
v  -1005.74023 751.141785 -672.5
v  -1012.47205 773.333557 -672.5
v  -1012.47205 773.333557 -673
v  -1008.33356 752.527954 -673
v  -1008.33356 752.527954 -672.5
v  -1013.85822 770.740234 -672.5
v  -1013.85822 770.740234 -673
v  -1010.60663 754.393372 -673
v  -1010.60663 754.393372 -672.5
v  -1014.71179 767.926331 -672.5
v  -1014.71179 767.926331 -673
v  -1012.47205 756.666443 -673
v  -1012.47205 756.666443 -672.5
v  -1015 765 -672.5
v  -1015 765 -673
v  -1013.85822 759.259766 -673
v  -1013.85822 759.259766 -672.5
v  -1014.71179 762.073669 -672.5
v  -1014.71179 762.073669 -673
v  -1008.3385 1273 -616.53125
v  -1005.74573 1273 -615.144104
v  -1002.93219 1273 -614.289368
v  -1000.00592 1273 -614
v  -997.079468 1273 -614.287048
v  -994.265259 1273 -615.139526
v  -991.671387 1273 -616.524658
v  -989.397583 1273 -618.389221
v  -987.53125 1273 -620.661499
v  -1010.61078 1273 -618.397583
v  -1012.47534 1273 -620.671387
v  -986.144104 1273 -623.254272
v  -1013.86047 1273 -623.265259
v  -1014.71295 1273 -626.079468
v  -985.289368 1273 -626.06781
v  -1015 1273 -629.00592
v  -985 1273 -628.99408
v  -1014.71063 1273 -631.93219
v  -985.287048 1273 -631.920532
v  -1013.8559 1273 -634.745728
v  -986.139526 1273 -634.734741
v  -987.524658 1273 -637.328613
v  -1012.46875 1273 -637.338501
v  -989.389221 1273 -639.602417
v  -991.661499 1273 -641.46875
v  -994.254272 1273 -642.855896
v  -997.06781 1273 -643.710632
v  -999.99408 1273 -644
v  -1002.92053 1273 -643.712952
v  -1005.73474 1273 -642.860474
v  -1008.32861 1273 -641.475342
v  -1010.60242 1273 -639.610779

# 0 UV coordinates

# 177 vertex normals
vn 0 -1 0
vn -0.105544962 -0.994414508 -0
vn 0.61673981 -0.787167013 0
vn 0.479928851 -0.877307415 0
vn 0.996164083 -0.0201499574 0.0851540267
vn 0.988627493 -0.000934673182 0.15038237
vn -0.985661328 -0.0518030897 0.160587043
vn -0.986495733 -0.16378735 -0
vn 0.966481745 -0.256735176 0
vn -0.988627493 -0.000934673182 0.15038237
vn 0.422100782 -0.0208928771 0.906307995
vn 0 -0.99999994 0
vn 0 -0.205545112 -0.97864759
vn -0.881034911 -0.0109022269 0.472925574
vn -0.453229725 -0.0316761136 0.890830815
vn 0.0172370914 -0.0141508505 0.99975127
vn -0.986615658 -0.00731819635 -0.162898645
vn 0.994506478 -0.000700200384 0.104671821
vn 0 1 0
vn -0.842971981 0.537957609 0
vn 0.299833924 0.953991354 0
vn -0.998826861 0.0207149889 0.0437709279
vn -0.139413401 0.990234256 0
vn -0.900968969 0.00134835381 0.433881313
vn 0.994865477 0.0548673272 0.0850430205
vn 0.900968969 0.00134835369 0.433881313
vn -0.422100782 0.0208928771 0.906307995
vn 0.837322712 0.546708822 0
vn 0.881034911 0.0109022269 0.472925574
vn 0.0171975922 0.00705822883 0.999827206
vn 0.999590039 0.000381167745 0.0286292452
vn -0.894094825 0.030993117 0.446803957
vn -0.272892684 0.948557496 0.160525113
vn -0.255946696 -0.220139861 0.941291511
vn -0.222428456 -0.786118031 0.576666355
vn -0.195597991 0.980684161 0
vn -0.93774873 -0.347314358 -0
vn -0.150806576 -0.237223834 0.959678233
vn 0.140424237 0.97621125 0.165204987
vn 0.370510608 0.928828239 0
vn 0.441894174 -0.380069792 0.812573969
vn 0.256759912 -0.907355428 0.332836926
vn 0.803557158 -0.59522754 0
vn 0.0781817809 -0.0614912882 0.995040834
vn -0.0107543878 -0.946106195 0.323678046
vn -0.164173931 -0.542833805 0.823637307
vn 0.149208903 -0.394928217 0.906514466
vn -0.348436236 -0.415406287 0.840255857
vn 0.300604165 -0.519473076 0.799865484
vn -0.467670679 -0.596850574 0.651961327
vn 0.423454374 -0.596617758 0.68171376
vn -0.56148994 -0.639303863 0.525375664
vn 0.525441051 -0.639188647 0.561559856
vn -0.64158082 -0.655401826 0.398525357
vn 0.61372453 -0.6553846 0.44024229
vn -0.712679982 -0.64834404 0.26783824
vn 0.693273485 -0.648418367 0.314524621
vn -0.776731014 -0.616720378 0.127847031
vn 0.766388535 -0.61690563 0.179098159
vn -0.831838846 -0.55432868 -0.0276383199
vn 0.831620932 -0.55465591 0.0276310798
vn -0.137650236 -0.989958405 -0.0321676321
vn 0.13949427 -0.989956677 -0.0229602363
vn -0.646478474 -0.704303741 -0.293294638
vn 0.664664507 -0.704148114 -0.249793157
vn -0.554423332 -0.731058538 -0.397703856
vn 0.579657257 -0.73099494 -0.360060781
vn -0.461800724 -0.736989558 -0.493544906
vn 0.493533313 -0.737004042 -0.461789876
vn -0.364222854 -0.723551214 -0.586357653
vn 0.402282625 -0.723646939 -0.560806453
vn -0.255488932 -0.687437117 -0.67982024
vn 0.312229693 -0.579300225 -0.752943516
vn -0.127482653 -0.619573414 -0.774517238
vn 0.126026273 -0.764440954 -0.632255912
vn 0.00429267203 -0.991609573 -0.129197836
vn -0.83839792 0.0123384995 -0.544918954
vn -2.2564609e-07 0.262670845 -0.964885473
vn 0.959397852 0.265831143 0.094284296
vn -0.733944774 0.510259211 0.448286235
vn -1 0 0
vn -0.45631668 0 0.889817536
vn 0 0 1
vn -0.541880131 -0.0894108117 0.835686386
vn -0.0839130431 0.00275480514 0.996469259
vn -0.999461591 -0.0328116082 -0
vn -0.973856449 -0.227164373 -0
vn -0.873704791 -0.328744441 0.358562469
vn -0.910824716 -0.412793338 -0
vn -0.00353805255 -0.00219963118 0.999991298
vn -0.986659169 0.162799835 0
vn -0.812796235 -0.582548082 -0
vn -0.681387901 -0.638064504 0.35858649
vn -0.534850001 0.124760553 0.835685492
vn -0.935939431 0.352161139 0
vn -0.683521032 -0.729930818 -0
vn -0.0213991534 -0.0298570227 0.999325037
vn -0.850260317 0.385345072 0.358561575
vn -0.84925282 0.527986228 0
vn -0.527986228 -0.84925282 -0
vn -0.385345072 -0.850260317 0.358561575
vn -0.0062682163 0.0044925618 0.999970317
vn -0.729930818 0.683521032 0
vn -0.352161139 -0.935939431 -0
vn -0.124760553 -0.534850001 0.835685492
vn -0.638064504 0.681387901 0.35858649
vn -0.582548082 0.812796235 0
vn -0.162799835 -0.986659169 -0
vn 0 -0.111579351 0.99375546
vn -0.0104100239 0.0167442672 0.999805629
vn -0.412793338 0.910824716 0
vn 0.162799835 -0.986659169 0
vn 0.124760553 -0.534850001 0.835685492
vn -0.328744441 0.873704791 0.358562469
vn -0.227164373 0.973856449 0
vn 0.352161139 -0.935939431 0
vn 0.385345072 -0.850260317 0.358561575
vn -0.0894108117 0.541880131 0.835686386
vn 0.527986228 -0.84925282 0
vn 0.0114857564 -0.0160254221 0.999805629
vn 0 0.0560519807 0.998427808
vn 0.0894108117 0.541880131 0.835686386
vn 0.227164373 0.973856449 0
vn 0.683521032 -0.729930818 0
vn 0.681387901 -0.638064504 0.35858646
vn 0.328744441 0.873704791 0.358562469
vn 0.412793338 0.910824716 0
vn 0.812796235 -0.582548082 0
vn 0.00654938724 -0.00407179818 0.999970317
vn 0.0193949528 0.0311963037 0.999325037
vn 0.582548082 0.812796235 0
vn 0.910824716 -0.412793338 0
vn 0.873704791 -0.328744441 0.358562469
vn 0.638064504 0.681387901 0.35858646
vn 0.729930818 0.683521032 0
vn 0.973856449 -0.227164373 0
vn 0.541880131 -0.0894108117 0.835686386
vn 0.00338616106 0.00242693257 0.999991298
vn 0.84925282 0.527986228 0
vn 0.999461591 -0.0328116082 0
vn 0.0839130431 0.00275480514 0.996469259
vn 0.850260317 0.385345072 0.358561575
vn 0.935939431 0.352161139 0
vn 0.986659169 0.162799835 0
vn 0.534850001 0.124760553 0.835685492
vn -0.527936518 -0.0380134359 0.84843272
vn -0.349923372 -0.406797588 0.84384203
vn -0.195402756 -0.0285341106 0.980307817
vn 0.0324137807 -0.00960134342 0.999428391
vn 0.187522769 -0.562377989 0.805336118
vn 0.412414432 -0.00960148033 0.910945714
vn 0.0957062617 -0.986397445 0.133642912
vn 0.729621649 -0.00960147008 0.68378365
vn 0.84843272 -0.0380134359 0.527936518
vn -0.68378365 -0.00960147008 0.729621649
vn -0.503525317 -0.785134315 0.36059168
vn 0.897139072 -0.284455389 0.33797431
vn -0.910945714 -0.00960148033 0.412414432
vn -0.287095279 -0.955566525 0.0668502301
vn 0.985880911 -0.0380129069 0.163076371
vn -0.999428391 -0.00960134342 0.0324137807
vn 0.999428391 -0.00960134342 -0.0324137807
vn -0.985880911 -0.0380129032 -0.163076371
vn 0.287095279 -0.955566525 -0.0668502301
vn -0.897139072 -0.284455389 -0.33797431
vn 0.910945714 -0.00960148033 -0.412414432
vn 0.503525317 -0.785134315 -0.36059168
vn -0.84843272 -0.0380134359 -0.527936518
vn 0.68378365 -0.00960147008 -0.729621649
vn 0.527936518 -0.0380134359 -0.84843272
vn 0.349923372 -0.406797588 -0.84384203
vn 0.195402756 -0.0285341106 -0.980307817
vn -0.0324137807 -0.00960134342 -0.999428391
vn -0.187522769 -0.562377989 -0.805336118
vn -0.412414432 -0.00960148033 -0.910945714
vn -0.0957062542 -0.986397445 -0.133642897
vn -0.729621649 -0.00960147008 -0.68378365

# Mesh '0' with 332 faces
g 0
usemtl RAL9007
f  1//1 2//1 3//1
f  3//1 2//1 4//2
f  4//2 2//1 5//3
f  4//2 6//4 3//1
f  7//1 5//3 2//1
f  4//2 5//3 8//5
f  3//1 6//4 9//1
f  5//3 10//6 8//5
f  11//7 4//2 8//5
f  12//8 9//1 6//4
f  3//1 9//1 13//9
f  14//10 4//2 11//7
f  15//11 11//7 8//5
f  16//12 9//1 12//8
f  12//8 6//4 17//5
f  18//13 3//1 13//9
f  19//14 11//7 15//11
f  20//6 17//5 6//4
f  17//5 21//7 12//8
f  3//1 18//13 22//1
f  18//13 13//9 23//15
f  24//11 21//7 17//5
f  12//8 21//7 25//10
f  13//9 26//16 23//15
f  18//13 23//15 27//17
f  28//14 21//7 24//11
f  26//16 13//9 29//18
f  30//19 31//19 32//20
f  32//20 33//21 30//19
f  33//21 32//20 34//22
f  30//19 33//21 35//23
f  34//22 32//20 36//24
f  37//25 33//21 34//22
f  38//19 30//19 35//23
f  39//26 33//21 37//25
f  40//27 37//25 34//22
f  38//19 35//23 41//28
f  37//25 40//27 42//29
f  35//23 43//22 41//28
f  41//28 44//19 38//19
f  43//22 35//23 45//24
f  41//28 43//22 46//25
f  47//27 46//25 43//22
f  41//28 46//25 48//26
f  46//25 47//27 49//29
f  26//16 29//18 50//30
f  51//31 50//30 29//18
f  23//15 26//16 50//30
f  50//30 52//32 23//15
f  10//6 41//28 48//26
f  41//28 10//6 5//3
f  8//5 46//25 49//29
f  49//29 15//11 8//5
f  15//11 49//29 47//27
f  47//27 19//14 15//11
f  19//14 47//27 43//22
f  43//22 11//7 19//14
f  11//7 45//24 14//10
f  45//24 11//7 43//22
f  20//6 33//21 39//26
f  33//21 20//6 6//4
f  17//5 37//25 42//29
f  42//29 24//11 17//5
f  24//11 42//29 40//27
f  40//27 28//14 24//11
f  28//14 40//27 34//22
f  34//22 21//7 28//14
f  21//7 36//24 25//10
f  36//24 21//7 34//22
f  53//33 54//34 55//35
f  54//34 53//33 56//36
f  57//37 54//34 56//36
f  54//34 57//37 58//38
f  56//36 53//33 59//39
f  59//39 60//40 56//36
f  60//40 59//39 61//41
f  62//42 61//41 59//39
f  60//40 61//41 63//43
f  64//44 63//43 61//41
f  39//26 37//25 17//5
f  17//5 20//6 39//26
f  48//26 46//25 8//5
f  8//5 10//6 48//26
f  25//10 36//24 32//20
f  32//20 12//8 25//10
f  62//42 55//35 65//45
f  55//35 66//46 65//45
f  65//45 67//47 62//42
f  66//46 55//35 68//48
f  62//42 67//47 69//49
f  70//50 68//48 55//35
f  69//49 71//51 62//42
f  55//35 72//52 70//50
f  73//53 62//42 71//51
f  55//35 74//54 72//52
f  62//42 73//53 75//55
f  55//35 76//56 74//54
f  62//42 75//55 77//57
f  55//35 78//58 76//56
f  62//42 77//57 79//59
f  80//60 78//58 55//35
f  62//42 79//59 81//61
f  80//60 55//35 82//62
f  81//61 83//63 62//42
f  55//35 54//34 82//62
f  61//41 62//42 83//63
f  82//62 54//34 84//64
f  61//41 83//63 85//65
f  54//34 86//66 84//64
f  87//67 61//41 85//65
f  86//66 54//34 88//68
f  61//41 87//67 89//69
f  54//34 90//70 88//68
f  89//69 91//71 61//41
f  92//72 90//70 54//34
f  93//73 61//41 91//71
f  54//34 94//74 92//72
f  61//41 93//73 95//75
f  54//34 96//76 94//74
f  61//41 95//75 96//76
f  96//76 54//34 61//41
f  55//35 62//42 59//39
f  59//39 53//33 55//35
f  63//43 64//44 58//38
f  58//38 57//37 63//43
f  64//44 61//41 54//34
f  54//34 58//38 64//44
f  14//10 45//24 35//23
f  35//23 4//2 14//10
f  97//77 52//32 98//78
f  52//32 99//79 98//78
f  52//32 50//30 99//79
f  98//78 99//79 100//80
f  51//31 99//79 50//30
f  100//80 99//79 101//81
f  101//81 102//82 100//80
f  97//77 98//78 18//13
f  18//13 27//17 97//77
f  52//32 27//17 23//15
f  27//17 52//32 97//77
f  13//9 51//31 29//18
f  51//31 13//9 99//79
f  102//82 103//83 98//78
f  98//78 100//80 102//82
f  104//84 105//85 106//86
f  104//84 106//86 107//87
f  108//88 104//84 107//87
f  109//89 108//88 107//87
f  110//90 108//88 109//89
f  106//86 105//85 111//91
f  110//90 109//89 112//92
f  113//93 110//90 112//92
f  105//85 114//94 111//91
f  114//94 115//95 111//91
f  116//96 113//93 112//92
f  116//96 117//97 113//93
f  118//98 115//95 114//94
f  115//95 118//98 119//99
f  117//97 116//96 120//100
f  120//100 121//101 117//97
f  119//99 118//98 122//102
f  122//102 123//103 119//99
f  124//104 121//101 120//100
f  124//104 125//105 121//101
f  122//102 126//106 123//103
f  123//103 126//106 127//107
f  125//105 124//104 128//108
f  128//108 129//109 125//105
f  130//110 127//107 126//106
f  130//110 131//111 127//107
f  128//108 132//1 129//109
f  129//109 132//1 133//112
f  133//112 134//113 129//109
f  135//114 131//111 130//110
f  131//111 135//114 136//115
f  137//116 134//113 133//112
f  137//116 138//117 134//113
f  135//114 139//118 136//115
f  139//118 140//19 136//115
f  138//117 137//116 141//119
f  141//119 142//120 138//117
f  139//118 143//121 140//19
f  144//122 140//19 143//121
f  145//123 140//19 144//122
f  146//124 142//120 141//119
f  142//120 146//124 147//125
f  145//123 144//122 148//126
f  148//126 149//127 145//123
f  147//125 146//124 150//128
f  150//128 151//129 147//125
f  149//127 148//126 152//130
f  149//127 152//130 153//131
f  154//132 151//129 150//128
f  155//133 151//129 154//132
f  152//130 156//134 153//131
f  156//134 157//135 153//131
f  155//133 154//132 158//136
f  159//137 155//133 158//136
f  157//135 156//134 160//138
f  157//135 160//138 161//139
f  162//140 159//137 158//136
f  159//137 162//140 163//141
f  161//139 160//138 164//142
f  164//142 165//143 161//139
f  163//141 162//140 166//144
f  166//144 167//145 163//141
f  165//143 167//145 166//144
f  165//143 164//142 167//145
f  68//48 70//50 168//146
f  168//146 169//147 68//48
f  68//48 169//147 170//148
f  66//46 68//48 170//148
f  65//45 66//46 170//148
f  170//148 171//149 65//45
f  67//47 65//45 171//149
f  172//150 67//47 171//149
f  69//49 67//47 172//150
f  172//150 173//151 69//49
f  71//51 69//49 173//151
f  174//152 71//51 173//151
f  73//53 71//51 174//152
f  174//152 175//153 73//53
f  75//55 73//53 175//153
f  176//154 75//55 175//153
f  77//57 75//55 176//154
f  168//146 70//50 177//155
f  70//50 72//52 177//155
f  178//156 177//155 72//52
f  176//154 179//157 77//57
f  79//59 77//57 179//157
f  72//52 74//54 178//156
f  178//156 74//54 180//158
f  74//54 76//56 180//158
f  181//159 180//158 76//56
f  182//160 79//59 179//157
f  81//61 79//59 182//160
f  76//56 78//58 181//159
f  181//159 78//58 183//161
f  182//160 184//162 81//61
f  83//63 81//61 184//162
f  78//58 80//60 183//161
f  185//163 183//161 80//60
f  186//164 83//63 184//162
f  85//65 83//63 186//164
f  80//60 82//62 185//163
f  185//163 82//62 187//165
f  186//164 188//166 85//65
f  87//67 85//65 188//166
f  189//167 87//67 188//166
f  89//69 87//67 189//167
f  82//62 84//64 187//165
f  190//168 187//165 84//64
f  189//167 191//169 89//69
f  91//71 89//69 191//169
f  192//170 91//71 191//169
f  93//73 91//71 192//170
f  192//170 193//171 93//73
f  93//73 193//171 194//172
f  95//75 93//73 194//172
f  96//76 95//75 194//172
f  194//172 195//173 96//76
f  94//74 96//76 195//173
f  196//174 94//74 195//173
f  92//72 94//74 196//174
f  196//174 197//175 92//72
f  90//70 92//72 197//175
f  198//176 90//70 197//175
f  88//68 90//70 198//176
f  198//176 199//177 88//68
f  86//66 88//68 199//177
f  190//168 86//66 199//177
f  84//64 86//66 190//168
f  129//109 134//113 142//120
f  134//113 138//117 142//120
f  142//120 117//97 129//109
f  110//90 117//97 142//120
f  125//105 129//109 117//97
f  113//93 117//97 110//90
f  151//129 110//90 142//120
f  117//97 121//101 125//105
f  151//129 160//138 110//90
f  142//120 147//125 151//129
f  160//138 151//129 163//141
f  160//138 122//102 110//90
f  159//137 163//141 151//129
f  160//138 163//141 167//145
f  160//138 130//110 122//102
f  110//90 122//102 105//85
f  151//129 155//133 159//137
f  167//145 164//142 160//138
f  160//138 152//130 130//110
f  126//106 122//102 130//110
f  114//94 105//85 122//102
f  110//90 105//85 104//84
f  152//130 160//138 156//134
f  143//121 130//110 152//130
f  122//102 118//98 114//94
f  104//84 108//88 110//90
f  143//121 139//118 130//110
f  144//122 143//121 152//130
f  139//118 135//114 130//110
f  152//130 148//126 144//122
f  177//155 178//156 168//146
f  169//147 168//146 178//156
f  169//147 178//156 172//150
f  172//150 178//156 174//152
f  170//148 169//147 172//150
f  174//152 178//156 181//159
f  174//152 173//151 172//150
f  171//149 170//148 172//150
f  178//156 180//158 181//159
f  181//159 198//176 174//152
f  181//159 187//165 198//176
f  174//152 198//176 186//164
f  181//159 185//163 187//165
f  187//165 190//168 198//176
f  189//167 186//164 198//176
f  186//164 179//157 174//152
f  183//161 185//163 181//159
f  199//177 198//176 190//168
f  189//167 188//166 186//164
f  189//167 198//176 196//174
f  182//160 179//157 186//164
f  179//157 176//154 174//152
f  196//174 198//176 197//175
f  193//171 189//167 196//174
f  184//162 182//160 186//164
f  175//153 174//152 176//154
f  193//171 192//170 189//167
f  193//171 196//174 194//172
f  191//169 189//167 192//170
f  195//173 194//172 196//174

