# File produced by Open Asset Import Library (http://www.assimp.sf.net)
# (assimp v5.2.0)

mtllib a3_cut_0__8_1.mtl

# 144 vertex positions
v  -1100 420 -762.5
v  -1100 420 -802.5
v  -1140 420 -802.5
v  -1140 420 -762.5
v  -1100 295 -762.5
v  -1140 295 -762.5
v  -1140 295 -802.5
v  -1100 295 -802.5
v  -1100 336.5 -779
v  -1113.19995 336.5 -779
v  -1113.19995 336.557648 -778.414734
v  -1100 336.557648 -778.414734
v  -1113.19995 336.728363 -777.851929
v  -1100 336.728363 -777.851929
v  -1113.19995 337.005585 -777.333313
v  -1100 337.005585 -777.333313
v  -1113.19995 337.378693 -776.878662
v  -1100 337.378693 -776.878662
v  -1113.19995 337.833282 -776.505615
v  -1100 337.833282 -776.505615
v  -1113.19995 338.351959 -776.228333
v  -1100 338.351959 -776.228333
v  -1113.19995 338.914734 -776.057617
v  -1100 338.914734 -776.057617
v  -1100 339.5 -776
v  -1113.19995 339.5 -776
v  -1100 340.085266 -776.057617
v  -1113.19995 340.085266 -776.057617
v  -1113.19995 340.648041 -776.228333
v  -1100 340.648041 -776.228333
v  -1113.19995 341.166718 -776.505615
v  -1100 341.166718 -776.505615
v  -1113.19995 341.621307 -776.878662
v  -1100 341.621307 -776.878662
v  -1113.19995 341.994415 -777.333313
v  -1100 341.994415 -777.333313
v  -1113.19995 342.271637 -777.851929
v  -1100 342.271637 -777.851929
v  -1113.19995 342.442352 -778.414734
v  -1100 342.442352 -778.414734
v  -1113.19995 342.5 -779
v  -1100 342.5 -779
v  -1113.19995 342.5 -786
v  -1100 342.5 -786
v  -1100 342.442352 -786.585266
v  -1113.19995 342.442352 -786.585266
v  -1113.19995 342.271637 -787.148071
v  -1100 342.271637 -787.148071
v  -1113.19995 341.994415 -787.666687
v  -1100 341.994415 -787.666687
v  -1113.19995 341.621307 -788.121338
v  -1100 341.621307 -788.121338
v  -1113.19995 341.166718 -788.494385
v  -1100 341.166718 -788.494385
v  -1113.19995 340.648041 -788.771667
v  -1100 340.648041 -788.771667
v  -1113.19995 340.085266 -788.942383
v  -1100 340.085266 -788.942383
v  -1113.19995 339.5 -789
v  -1100 339.5 -789
v  -1100 338.914734 -788.942383
v  -1113.19995 338.914734 -788.942383
v  -1113.19995 338.351959 -788.771667
v  -1100 338.351959 -788.771667
v  -1113.19995 337.833282 -788.494385
v  -1100 337.833282 -788.494385
v  -1113.19995 337.378693 -788.121338
v  -1100 337.378693 -788.121338
v  -1113.19995 337.005585 -787.666687
v  -1100 337.005585 -787.666687
v  -1113.19995 336.728363 -787.148071
v  -1100 336.728363 -787.148071
v  -1113.19995 336.557648 -786.585266
v  -1100 336.557648 -786.585266
v  -1113.19995 336.5 -786
v  -1100 336.5 -786
v  -1100 311.5 -779.5
v  -1113.19995 311.5 -779.5
v  -1113.19995 318.5 -779.5
v  -1100 318.5 -779.5
v  -1113.19995 319.085266 -779.557617
v  -1100 319.085266 -779.557617
v  -1113.19995 319.648041 -779.728333
v  -1100 319.648041 -779.728333
v  -1113.19995 320.166718 -780.005615
v  -1100 320.166718 -780.005615
v  -1113.19995 320.621307 -780.378662
v  -1100 320.621307 -780.378662
v  -1113.19995 320.994415 -780.833313
v  -1100 320.994415 -780.833313
v  -1113.19995 321.271637 -781.351929
v  -1100 321.271637 -781.351929
v  -1113.19995 321.442352 -781.914734
v  -1100 321.442352 -781.914734
v  -1100 321.5 -782.5
v  -1113.19995 321.5 -782.5
v  -1100 321.442352 -783.085266
v  -1113.19995 321.442352 -783.085266
v  -1113.19995 321.271637 -783.648071
v  -1100 321.271637 -783.648071
v  -1113.19995 320.994415 -784.166687
v  -1100 320.994415 -784.166687
v  -1113.19995 320.621307 -784.621338
v  -1100 320.621307 -784.621338
v  -1113.19995 320.166718 -784.994385
v  -1100 320.166718 -784.994385
v  -1113.19995 319.648041 -785.271667
v  -1100 319.648041 -785.271667
v  -1113.19995 319.085266 -785.442383
v  -1100 319.085266 -785.442383
v  -1113.19995 318.5 -785.5
v  -1100 318.5 -785.5
v  -1113.19995 311.5 -785.5
v  -1100 311.5 -785.5
v  -1100 310.914734 -785.442383
v  -1113.19995 310.914734 -785.442383
v  -1113.19995 310.351959 -785.271667
v  -1100 310.351959 -785.271667
v  -1113.19995 309.833282 -784.994385
v  -1100 309.833282 -784.994385
v  -1113.19995 309.378693 -784.621338
v  -1100 309.378693 -784.621338
v  -1113.19995 309.005585 -784.166687
v  -1100 309.005585 -784.166687
v  -1113.19995 308.728363 -783.648071
v  -1100 308.728363 -783.648071
v  -1113.19995 308.557648 -783.085266
v  -1100 308.557648 -783.085266
v  -1113.19995 308.5 -782.5
v  -1100 308.5 -782.5
v  -1100 308.557648 -781.914734
v  -1113.19995 308.557648 -781.914734
v  -1100 308.728363 -781.351929
v  -1113.19995 308.728363 -781.351929
v  -1113.19995 309.005585 -780.833313
v  -1100 309.005585 -780.833313
v  -1113.19995 309.378693 -780.378662
v  -1100 309.378693 -780.378662
v  -1113.19995 309.833282 -780.005615
v  -1100 309.833282 -780.005615
v  -1113.19995 310.351959 -779.728333
v  -1100 310.351959 -779.728333
v  -1113.19995 310.914734 -779.557617
v  -1100 310.914734 -779.557617

# 0 UV coordinates

# 120 vertex normals
vn 0 0.304775745 0.952424169
vn 0 0.304775745 -0.952424169
vn -0.689671576 0.2206949 -0.689671576
vn -0.689671576 0.2206949 0.689671576
vn 0 -0.539053679 0.842271388
vn -0.702624321 -0.112419888 0.702624321
vn -0.6442101 -0.412294447 -0.6442101
vn 0 -0.157990485 -0.987440586
vn 0 0.99990046 -0.0141097205
vn 0.0786211416 0.996896744 -0.00394019578
vn 0.00290948967 0.986654162 -0.162803665
vn 0 0.973857105 -0.227161512
vn 0.0115264757 0.935879529 -0.352131635
vn 0 0.910822928 -0.41279754
vn 0.0255140066 0.848966718 -0.527829945
vn 0 0.812791109 -0.582555294
vn 0.0443095304 0.729216695 -0.682846725
vn 0 0.68351686 -0.729934692
vn 0.0671494901 0.581233919 -0.810961187
vn 0 0.528011322 -0.849237323
vn 0.885420024 0.191882506 -0.423334867
vn 0 0.352185458 -0.935930252
vn 0.577358007 0.159271419 -0.800806105
vn 0 0.195068151 -0.980789721
vn 0 0.032797724 -0.999462008
vn 0.700443149 -0.0234080069 -0.713324308
vn 0 -0.195068136 -0.980789661
vn 0.823176026 -0.110757023 -0.556878984
vn 0.856400967 -0.181837395 -0.483231485
vn 0 -0.412835509 -0.910805583
vn 0.0671463758 -0.526819646 -0.847320735
vn 0 -0.582548797 -0.812795699
vn 0.0443116985 -0.682845473 -0.729217708
vn 0 -0.72993356 -0.683517992
vn 0.0255127326 -0.812526524 -0.582365632
vn 0 -0.849243224 -0.528001845
vn 0.011526918 -0.91076231 -0.412770063
vn 0 -0.935941696 -0.35215503
vn 0.00290944218 -0.973853052 -0.227160573
vn 0 -0.986658335 -0.16280435
vn 0.335495621 -0.941947997 -0.0132919466
vn 0 -0.999992251 -0.00395243103
vn 0.0756041184 -0.997109175 0.00757798785
vn 0 -0.999971092 0.00759973843
vn 0 -0.980785668 0.195088238
vn 0.00436652685 -0.980776429 0.19508639
vn 0.0115264757 -0.935879529 0.352131635
vn 0 -0.910822928 0.41279754
vn 0.0255140066 -0.848966718 0.527829945
vn 0 -0.812791109 0.582555294
vn 0.0443095304 -0.729216695 0.682846725
vn 0 -0.68351686 0.729934752
vn 0.0671494752 -0.581233919 0.810961187
vn 0 -0.528011322 0.849237323
vn 0.885420024 -0.191882506 0.423334867
vn 0 -0.352185458 0.935930252
vn 0.685805619 -0.16531831 0.708759844
vn 0 -0.162773326 0.986663461
vn 0.592997849 0 0.805204034
vn 0 0 0.99999994
vn 0 0.195068151 0.980789721
vn 0.823176026 0.110757023 0.556878984
vn 0.856400967 0.181837395 0.483231485
vn 0 0.412835509 0.910805583
vn 0.0671463907 0.526819646 0.847320735
vn 0 0.582548797 0.812795699
vn 0.0443117023 0.682845473 0.729217768
vn 0 0.72993356 0.683517992
vn 0.0255127326 0.812526524 0.582365632
vn 0 0.849243224 0.528001845
vn 0.011526919 0.91076231 0.412770063
vn 0 0.935941696 0.35215503
vn 0.00290944288 0.973853052 0.227160573
vn 0 0.986658335 0.16280435
vn 0.335495591 0.941947937 0.0132919466
vn 0 0.999992132 0.0039524301
vn 0 0.00395033788 -0.999992132
vn 0.335490316 0.0132849384 -0.941950023
vn 0.0786201432 -0.00393811055 -0.996896863
vn 0 -0.0141022522 -0.99990052
vn 0.00291037257 -0.162772641 -0.986659288
vn 0 -0.227152735 -0.973859131
vn 0.011529888 -0.352162063 -0.935868025
vn 0.0255123638 -0.527839422 -0.848960876
vn 0.0671466663 -0.810956717 -0.581240475
vn 0.88543278 -0.42332077 -0.191854835
vn 0.577358007 -0.800802827 -0.15928781
vn 0 -0.980785668 -0.195088238
vn 0 -0.999461353 -0.0328150727
vn 0.700442374 -0.713324547 0.0234204121
vn 0.823171735 -0.556882858 0.110769659
vn 0.911611617 -0.38472113 0.144754186
vn 0.0671500042 -0.847326279 0.52681005
vn 0.0443095341 -0.729216695 0.682846725
vn 0 -0.68351686 0.729934692
vn 0.0255135484 -0.582359135 0.812531114
vn 0.0115295956 -0.41280809 0.910745084
vn 0.00291036861 -0.227151796 0.973855078
vn 0.139393851 -0.0139645739 0.990138531
vn 0 -0.00395033881 0.999992251
vn 0.188383505 0.00745971873 0.982067168
vn 0 0.00759571511 0.999971092
vn 0.00436788611 0.195066288 0.980780363
vn 0.011529888 0.352162063 0.935868025
vn 0.0255123638 0.527839422 0.848960876
vn 0.0671466663 0.810956717 0.581240475
vn 0.802722931 0.543171167 0.246172696
vn 0.685803115 0.708760738 0.165325239
vn 0.592997313 0.805204511 0
vn 0 0.99999994 0
vn 0 0.986658335 -0.16280435
vn 0.694770038 0.700429201 -0.16338183
vn 0 0.923880219 -0.382681876
vn 0.92793417 0.34437114 -0.142642498
vn 0.0671500042 0.847326279 -0.52681005
vn 0.044309523 0.729216695 -0.682846725
vn 0.0255135447 0.582359195 -0.812531114
vn 0.0115295956 0.41280809 -0.910745084
vn 0.00291036861 0.227151796 -0.973855078
vn 0 0.162773326 -0.986663461

# Mesh '0' with 210 faces
g 0
usemtl RAL9007
f  1//1 2//2 3//3
f  3//3 4//4 1//1
f  5//5 6//6 7//7
f  7//7 8//8 5//5
f  8//8 7//7 3//3
f  3//3 2//2 8//8
f  9//9 10//10 11//11
f  11//11 12//12 9//9
f  12//12 11//11 13//13
f  13//13 14//14 12//12
f  14//14 13//13 15//15
f  14//14 15//15 16//16
f  16//16 15//15 17//17
f  17//17 18//18 16//16
f  18//18 17//17 19//19
f  18//18 19//19 20//20
f  20//20 19//19 21//21
f  21//21 22//22 20//20
f  22//22 21//21 23//23
f  22//22 23//23 24//24
f  23//23 25//25 24//24
f  26//26 25//25 23//23
f  27//27 25//25 26//26
f  27//27 26//26 28//28
f  27//27 28//28 29//29
f  27//27 29//29 30//30
f  30//30 29//29 31//31
f  30//30 31//31 32//32
f  32//32 31//31 33//33
f  34//34 32//32 33//33
f  34//34 33//33 35//35
f  35//35 36//36 34//34
f  36//36 35//35 37//37
f  36//36 37//37 38//38
f  38//38 37//37 39//39
f  40//40 38//38 39//39
f  40//40 39//39 41//41
f  40//40 41//41 42//42
f  42//42 41//41 43//43
f  43//43 44//44 42//42
f  45//45 44//44 43//43
f  45//45 43//43 46//46
f  45//45 46//46 47//47
f  45//45 47//47 48//48
f  48//48 47//47 49//49
f  48//48 49//49 50//50
f  50//50 49//49 51//51
f  52//52 50//50 51//51
f  52//52 51//51 53//53
f  53//53 54//54 52//52
f  54//54 53//53 55//55
f  54//54 55//55 56//56
f  56//56 55//55 57//57
f  58//58 56//56 57//57
f  58//58 57//57 59//59
f  58//58 59//59 60//60
f  61//61 60//60 59//59
f  61//61 59//59 62//62
f  61//61 62//62 63//63
f  63//63 64//64 61//61
f  64//64 63//63 65//65
f  65//65 66//66 64//64
f  66//66 65//65 67//67
f  66//66 67//67 68//68
f  68//68 67//67 69//69
f  69//69 70//70 68//68
f  70//70 69//69 71//71
f  70//70 71//71 72//72
f  72//72 71//71 73//73
f  73//73 74//74 72//72
f  74//74 73//73 75//75
f  74//74 75//75 76//76
f  76//76 75//75 10//10
f  10//10 9//9 76//76
f  77//77 78//78 79//79
f  79//79 80//80 77//77
f  80//80 79//79 81//81
f  81//81 82//82 80//80
f  82//82 81//81 83//83
f  83//83 84//30 82//82
f  84//30 83//83 85//84
f  84//30 85//84 86//32
f  86//32 85//84 87//33
f  87//33 88//34 86//32
f  88//34 87//33 89//85
f  88//34 89//85 90//36
f  90//36 89//85 91//86
f  91//86 92//38 90//36
f  92//38 91//86 93//87
f  92//38 93//87 94//88
f  93//87 95//89 94//88
f  96//90 95//89 93//87
f  97//45 95//89 96//90
f  97//45 96//90 98//91
f  97//45 98//91 99//92
f  97//45 99//92 100//48
f  100//48 99//92 101//93
f  100//48 101//93 102//50
f  102//50 101//93 103//94
f  104//95 102//50 103//94
f  104//95 103//94 105//96
f  105//96 106//54 104//95
f  106//54 105//96 107//97
f  106//54 107//97 108//56
f  108//56 107//97 109//98
f  110//58 108//56 109//98
f  110//58 109//98 111//99
f  110//58 111//99 112//100
f  112//100 111//99 113//101
f  113//101 114//102 112//100
f  115//61 114//102 113//101
f  115//61 113//101 116//103
f  115//61 116//103 117//104
f  117//104 118//64 115//61
f  118//64 117//104 119//105
f  119//105 120//66 118//64
f  120//66 119//105 121//67
f  120//66 121//67 122//68
f  122//68 121//67 123//106
f  123//106 124//70 122//68
f  124//70 123//106 125//107
f  124//70 125//107 126//72
f  126//72 125//107 127//108
f  127//108 128//74 126//72
f  128//74 127//108 129//109
f  128//74 129//109 130//110
f  129//109 131//111 130//110
f  132//112 131//111 129//109
f  133//113 131//111 132//112
f  133//113 132//112 134//114
f  133//113 134//114 135//115
f  133//113 135//115 136//16
f  136//16 135//115 137//116
f  136//16 137//116 138//18
f  138//18 137//116 139//117
f  140//20 138//18 139//117
f  140//20 139//117 141//118
f  141//118 142//22 140//20
f  142//22 141//118 143//119
f  142//22 143//119 144//120
f  144//120 143//119 78//78
f  77//77 144//120 78//78
f  6//6 4//4 3//3
f  3//3 7//7 6//6
f  1//1 4//4 6//6
f  6//6 5//5 1//1
f  62//62 59//59 26//26
f  59//59 28//28 26//26
f  26//26 23//23 62//62
f  59//59 57//57 28//28
f  23//23 63//63 62//62
f  57//57 29//29 28//28
f  21//21 63//63 23//23
f  29//29 57//57 55//55
f  75//75 63//63 21//21
f  55//55 41//41 29//29
f  65//65 63//63 75//75
f  10//10 75//75 21//21
f  43//43 41//41 55//55
f  41//41 31//31 29//29
f  75//75 67//67 65//65
f  21//21 19//19 10//10
f  43//43 55//55 53//53
f  33//33 31//31 41//41
f  75//75 69//69 67//67
f  10//10 19//19 17//17
f  43//43 53//53 51//51
f  35//35 33//33 41//41
f  71//71 69//69 75//75
f  10//10 17//17 15//15
f  49//49 43//43 51//51
f  41//41 37//37 35//35
f  75//75 73//73 71//71
f  15//15 13//13 10//10
f  49//49 47//47 43//43
f  37//37 41//41 39//39
f  11//11 10//10 13//13
f  46//46 43//43 47//47
f  78//78 143//119 141//118
f  141//118 139//117 78//78
f  139//117 137//116 78//78
f  137//116 135//115 78//78
f  135//115 134//114 78//78
f  134//114 91//86 78//78
f  93//87 91//86 134//114
f  78//78 91//86 79//79
f  93//87 134//114 132//112
f  91//86 89//85 79//79
f  132//112 96//90 93//87
f  87//33 79//79 89//85
f  132//112 129//109 96//90
f  79//79 87//33 85//84
f  129//109 98//91 96//90
f  85//84 83//83 79//79
f  127//108 98//91 129//109
f  81//81 79//79 83//83
f  99//92 98//91 127//108
f  99//92 127//108 125//107
f  125//107 113//101 99//92
f  125//107 123//106 113//101
f  111//99 99//92 113//101
f  123//106 121//67 113//101
f  111//99 101//93 99//92
f  113//101 121//67 119//105
f  111//99 103//94 101//93
f  119//105 117//104 113//101
f  111//99 105//96 103//94
f  117//104 116//103 113//101
f  111//99 107//97 105//96
f  107//97 111//99 109//98

