# File produced by Open Asset Import Library (http://www.assimp.sf.net)
# (assimp v5.2.0)

mtllib a3_cut_0__2_1.mtl

# 217 vertex positions
v  -900 295 -827.5
v  -900 -169 -827.5
v  -901 -169 -827.5
v  -1100 295 -827.5
v  -1099 -169 -827.5
v  -1100 -169 -827.5
v  -902.5 -205 -827.5
v  -1097.5 -205 -827.5
v  -901 -203.5 -827.5
v  -1099 -203.5 -827.5
v  -1100 295 -802.5
v  -1100 214.5 -802.5
v  -1100 -146 -739.5
v  -1100 -166 -739.5
v  -1100 214.5 -762.5
v  -1100 -169 -672.5
v  -1100 -49 -715
v  -1100 -166 -706
v  -1100 295 -715
v  -1100 -146 -737.5
v  -1100 -166 -672.5
v  -1100 295 -762.5
v  -1100 -164 -721.25
v  -1100 -164 -737.5
v  -1100 -164 -705
v  -1100 -49 -685
v  -1100 -164 -672.5
v  -1100 295 -672.5
v  -1100 295 -685
v  -1145 -49 -715
v  -1145 295 -715
v  -1125.5 295 -685
v  -1125.5 -49 -685
v  -1091.5 68 -672.5
v  -1091.5 295 -672.5
v  -1091.5 -45.5 -672.5
v  -1091.5 -159 -672.5
v  -1068.5 -159 -672.5
v  -931.5 -159 -672.5
v  -965 -151 -672.5
v  -900 -164 -672.5
v  -1035 -151 -672.5
v  -931.5 -45.5 -672.5
v  -908.5 -159 -672.5
v  -1068.5 -45.5 -672.5
v  -965 -51 -672.5
v  -908.5 -45.5 -672.5
v  -1035 -51 -672.5
v  -931.5 68 -672.5
v  -908.5 68 -672.5
v  -1068.5 68 -672.5
v  -900 295 -672.5
v  -908.5 295 -672.5
v  -1068.5 295 -672.5
v  -931.5 295 -672.5
v  -1060 -164 -557.5
v  -940 -164 -557.5
v  -1134.83228 -164 -597.498657
v  -865.167725 -164 -597.498657
v  -1139.37292 -164 -605.07428
v  -1129.57092 -164 -590.404602
v  -870.429077 -164 -590.404602
v  -860.627075 -164 -605.07428
v  -1143.14917 -164 -613.058472
v  -1123.63965 -164 -583.860413
v  -876.360413 -164 -583.860413
v  -856.85083 -164 -613.058472
v  -1146.12463 -164 -621.37439
v  -1117.09534 -164 -577.929077
v  -882.904602 -164 -577.929077
v  -853.875366 -164 -621.37439
v  -1148.27063 -164 -629.941895
v  -1110.00134 -164 -572.667725
v  -889.998657 -164 -572.667725
v  -851.729309 -164 -629.941895
v  -1149.56665 -164 -638.678467
v  -1102.42566 -164 -568.127075
v  -897.57428 -164 -568.127075
v  -850.43335 -164 -638.678467
v  -1150 -164 -647.5
v  -1094.44153 -164 -564.35083
v  -905.558472 -164 -564.35083
v  -850 -164 -647.5
v  -1150 -164 -737.5
v  -1086.12561 -164 -561.375366
v  -913.87439 -164 -561.375366
v  -850 -164 -737.5
v  -1077.55811 -164 -559.229309
v  -922.441895 -164 -559.229309
v  -900 -164 -737.5
v  -1068.82153 -164 -557.93335
v  -931.178467 -164 -557.93335
v  -1150 -146 -737.5
v  -940 -146 -557.5
v  -931.178467 -146 -557.93335
v  -922.441895 -146 -559.229309
v  -913.87439 -146 -561.375366
v  -905.558472 -146 -564.35083
v  -897.57428 -146 -568.127075
v  -889.998657 -146 -572.667725
v  -882.904602 -146 -577.929077
v  -876.360413 -146 -583.860413
v  -870.429077 -146 -590.404602
v  -865.167725 -146 -597.498657
v  -860.627075 -146 -605.07428
v  -856.85083 -146 -613.058472
v  -853.875366 -146 -621.37439
v  -851.729309 -146 -629.941895
v  -850.43335 -146 -638.678467
v  -850 -146 -647.5
v  -850 -146 -737.5
v  -1152 -166 -739.5
v  -1152 -146 -739.5
v  -1152 -166 -647.5
v  -1151.55701 -166 -638.482422
v  -1150.2323 -166 -629.551697
v  -1148.03845 -166 -620.793823
v  -1144.99695 -166 -612.293152
v  -1141.13672 -166 -604.13147
v  -1136.49524 -166 -596.387512
v  -1131.11694 -166 -589.135803
v  -1060 -166 -555.5
v  -1125.05383 -166 -582.446167
v  -900 -166 -672.5
v  -1118.36414 -166 -576.383057
v  -940 -166 -555.5
v  -1111.11243 -166 -571.004822
v  -868.883057 -166 -589.135803
v  -1103.36853 -166 -566.36322
v  -874.946167 -166 -582.446167
v  -863.504822 -166 -596.387512
v  -1095.20691 -166 -562.503113
v  -881.635803 -166 -576.383057
v  -858.86322 -166 -604.13147
v  -1086.70618 -166 -559.461487
v  -888.887512 -166 -571.004822
v  -855.003113 -166 -612.293152
v  -1077.94836 -166 -557.267761
v  -896.63147 -166 -566.36322
v  -851.961487 -166 -620.793823
v  -1069.01758 -166 -555.942993
v  -904.793152 -166 -562.503113
v  -849.767761 -166 -629.551697
v  -913.293823 -166 -559.461487
v  -848.442993 -166 -638.482422
v  -922.051697 -166 -557.267761
v  -848 -166 -647.5
v  -930.982422 -166 -555.942993
v  -848 -166 -739.5
v  -900 -166 -739.5
v  -1099 -169 -672.5
v  -901 -169 -672.5
v  -901 -203.5 -672.5
v  -900 -169 -672.5
v  -1099 -203.5 -672.5
v  -1097.5 -205 -672.5
v  -902.5 -205 -672.5
v  -1150 -146 -647.5
v  -1152 -146 -647.5
v  -1149.56665 -146 -638.678467
v  -1151.55701 -146 -638.482422
v  -1148.27063 -146 -629.941895
v  -1150.2323 -146 -629.551697
v  -1146.12463 -146 -621.37439
v  -1148.03845 -146 -620.793823
v  -1143.14917 -146 -613.058472
v  -1144.99695 -146 -612.293152
v  -1139.37292 -146 -605.07428
v  -1141.13672 -146 -604.13147
v  -1134.83228 -146 -597.498657
v  -1136.49524 -146 -596.387512
v  -1129.57092 -146 -590.404602
v  -1131.11694 -146 -589.135803
v  -1123.63965 -146 -583.860413
v  -1125.05383 -146 -582.446167
v  -1117.09534 -146 -577.929077
v  -1118.36414 -146 -576.383057
v  -1110.00134 -146 -572.667725
v  -1111.11243 -146 -571.004822
v  -1102.42566 -146 -568.127075
v  -1103.36853 -146 -566.36322
v  -1094.44153 -146 -564.35083
v  -1095.20691 -146 -562.503113
v  -1086.12561 -146 -561.375366
v  -1086.70618 -146 -559.461487
v  -1077.55811 -146 -559.229309
v  -1077.94836 -146 -557.267761
v  -1068.82153 -146 -557.93335
v  -1069.01758 -146 -555.942993
v  -1060 -146 -557.5
v  -1060 -146 -555.5
v  -940 -146 -555.5
v  -930.982422 -146 -555.942993
v  -922.051697 -146 -557.267761
v  -913.293823 -146 -559.461487
v  -904.793152 -146 -562.503113
v  -896.63147 -146 -566.36322
v  -888.887512 -146 -571.004822
v  -881.635803 -146 -576.383057
v  -874.946167 -146 -582.446167
v  -868.883057 -146 -589.135803
v  -863.504822 -146 -596.387512
v  -858.86322 -146 -604.13147
v  -855.003113 -146 -612.293152
v  -851.961487 -146 -620.793823
v  -849.767761 -146 -629.551697
v  -848.442993 -146 -638.482422
v  -848 -146 -647.5
v  -848 -146 -739.5
v  -900 -146 -739.5
v  -900 -146 -737.5
v  -900 -166 -706
v  -1145 295 -705
v  -1145 -48.5225334 -705
v  -1145 -49 -705
v  -1125.5 -49 -705
v  -1125.5 -49 -703.653809

# 0 UV coordinates

# 179 vertex normals
vn 0.760373354 0 -0.649486303
vn 0.999941885 0 -0.0107757868
vn 0 0 -1
vn -0.0733290836 0 -0.997307837
vn 0 0 -0.99999994
vn -0.999951303 0 -0.00987227913
vn -1 0 0
vn -0.99940598 0.0033637681 -0.0342972428
vn -0.538809836 -0.807230055 -0.240964189
vn -0.999989808 0 0.00450445851
vn -0.913612783 -0.0327075049 -0.405267626
vn -0.545744419 0 -0.83795166
vn -0.807481527 0.0327213667 0.588984609
vn -0.00235680584 -0.999897242 0.014140835
vn -0.0864112675 0.960125208 0.265880823
vn -0.889272392 -0.0640519857 0.452870667
vn -0.222054854 0.958492696 0.178839117
vn -0.864685118 0 0.50231421
vn -0.23805207 0 0.971252441
vn -0.110559233 -0.0207011234 -0.993653953
vn -0.405903012 0 -0.913916051
vn 0 0 1
vn 0 -0.0271031335 0.999632657
vn 0 0 0.99999994
vn 0.490140975 0.864699066 0.109805487
vn 0.998272419 0 0.0587545075
vn 0.000173070846 0.998675585 -0.0514486469
vn -0.000693559181 0.978515208 -0.206173837
vn 0.0493079349 0.998200297 -0.0341275483
vn -0.0503989719 0.998200297 -0.0324947238
vn 0.328825682 0.926540852 -0.182745233
vn 0.483732373 0.773016095 -0.410425484
vn -0.496911794 0.773013949 -0.394370466
vn -0.334632754 0.926540911 -0.171880707
vn 0.363347888 0.918240249 -0.157521918
vn 0.39874813 0.82583189 -0.398750067
vn -0.570513785 0.590785801 -0.570513785
vn -0.368311167 0.918240011 -0.145540401
vn 0.396333665 0.909231603 -0.127347916
vn 0.551745772 0.493543863 -0.672302961
vn -0.49576351 0.603330791 -0.6246683
vn -0.400289595 0.90923202 -0.11430373
vn 0.42674458 0.899662912 -0.0921727195
vn 0.472453088 0.489728302 -0.732771754
vn -0.424847335 0.644382954 -0.635826588
vn -0.429533035 0.89966321 -0.0781515539
vn 0.56176281 0.825446069 -0.0553303361
vn 0.425155938 0.366205603 -0.827729464
vn -0.452028751 0.366205662 -0.813365459
vn -0.321977586 0.946216106 -0.0317117795
vn 0.338062853 0.941122353 -0.00148246437
vn 0.356219411 0.245911047 -0.901462853
vn -0.385544598 0.245910048 -0.88931632
vn -0.583459973 0.812137842 -0.00255857338
vn 0.377152115 0.902138531 0.209528953
vn 0.27179274 0.142057091 -0.95181334
vn -0.302810758 0.142057031 -0.942404091
vn -0.203300655 0.972580314 0.112944812
vn 0.178640634 0.0639107749 -0.981836557
vn -0.21069248 0.0639107004 -0.975460947
vn 0.300381392 0.834392786 0.462125242
vn 0.0816974789 0.0160473324 -0.99652797
vn -0.114283793 0.0160473343 -0.993318558
vn 0.835781991 0.29303962 0.464323342
vn -0.00328371208 0.217086509 -0.976146758
vn -0.0812010393 0.111223966 -0.990472496
vn -0.177895933 0.111224025 -0.977743566
vn -0.272873729 0.111223549 -0.95559895
vn -0.365223676 0.11122302 -0.924251676
vn -0.454058737 0.111224994 -0.884002149
vn -0.553624272 0.083655633 -0.828554153
vn -0.642952919 0.111225814 -0.757786512
vn -0.697345436 0.165586084 -0.697345436
vn -0.757786632 0.11122451 -0.642952979
vn -0.817158282 0.111224145 -0.565580606
vn -0.868661284 0.111224435 -0.482759446
vn -0.911797464 0.111222625 -0.395290822
vn -0.94615221 0.111224167 -0.3040151
vn -0.971394539 0.111223742 -0.209814161
vn -0.991696358 0.0836560577 -0.0976728126
vn -0.993874371 0.110430487 -0.00435831212
vn -0.864069879 0.151478916 0.480038822
vn -0.3962982 -0.890378714 -0.223994642
vn -0.862591684 0.13501434 -0.487551808
vn -0.385714561 -0.922612906 0.00310571492
vn -0.478153497 -0.876551807 0.055011116
vn -0.45128572 -0.887039721 0.0974771082
vn -0.420321375 -0.897268057 0.135056093
vn -0.386426091 -0.90697819 0.167527288
vn -0.350661278 -0.916001558 0.194878891
vn -0.313946635 -0.924241185 0.217291817
vn -0.0351642333 -0.998964787 0.0288586393
vn -0.000194245164 -0.994020879 0.109190084
vn -0.534632802 -0.668175757 0.517406046
vn 0.00177277415 -0.999775529 0.0211145338
vn -0.562364995 -0.462796807 0.685247958
vn 0.000801360118 -0.992175221 0.124850534
vn -0.481407046 -0.459087819 0.746649563
vn 0.0701112151 -0.995878339 0.0575386845
vn -0.42960161 -0.340436131 0.836388528
vn 0.51740402 -0.668177605 0.534632385
vn 0.320892215 -0.924241424 0.206896171
vn -0.357885361 -0.227292642 0.905679822
vn 0.438792557 -0.722210348 0.534671247
vn 0.356854647 -0.91600126 0.183293
vn -0.272216231 -0.130897537 0.953291297
vn 0.505593479 -0.459086537 0.730489433
vn 0.391703427 -0.906978548 0.154784575
vn -0.178696245 -0.0588156432 0.982144773
vn 0.45675835 -0.340432346 0.82187444
vn 0.424517751 -0.897267938 0.121222489
vn -0.0817001686 -0.0147636924 0.99654758
vn 0.387344897 -0.22729212 0.893477619
vn 0.454236656 -0.887039244 0.0826462358
vn 0.303284287 -0.130897224 0.943866909
vn 0.479697675 -0.876552105 0.0393272415
vn 0.210757703 -0.0588153899 0.975767493
vn 0.358320445 -0.933597326 0.00157134549
vn 0.114287131 -0.014763779 0.993338048
vn 0.403971851 -0.907619357 -0.114165954
vn 0.497240007 -0.744951308 -0.444747031
vn 0.999989808 0 0.00450445851
vn 0.998450816 0.0554694906 -0.00437838025
vn -0.994680524 0.10298337 0.00228288374
vn 0.981446743 0.16558291 -0.0966667309
vn -0.991782308 0.0987778604 0.0813074261
vn 0.977742672 0.111228146 -0.177898064
vn -0.979036331 0.0987790078 0.178131089
vn 0.955599964 0.11122445 -0.272869468
vn -0.956861436 0.0987746865 0.273239523
vn 0.924251556 0.11122334 -0.365223616
vn -0.925474942 0.0987761691 0.365703911
vn 0.884002268 0.11122375 -0.454058766
vn -0.885171354 0.0987755805 0.454659373
vn 0.83523941 0.111224763 -0.538520396
vn -0.836345792 0.0987776592 0.539229631
vn 0.778432846 0.111225486 -0.617795348
vn -0.770875514 0.074251011 0.632643402
vn 0.704626381 0.0836564153 -0.704629838
vn -0.692030609 0.0987770185 0.715078115
vn 0.625636578 0.165583998 -0.762338996
vn -0.627472103 0.147287488 0.76458174
vn 0.565581799 0.111222774 -0.817157745
vn -0.566329002 0.0987756848 0.818238854
vn 0.482758433 0.111224957 -0.868661761
vn -0.483401328 0.0987775698 0.869808137
vn 0.395292431 0.11122448 -0.91179657
vn -0.39581123 0.0987756848 0.913004339
vn 0.3040151 0.11122413 -0.94615221
vn -0.304419667 0.0987763628 0.947402656
vn 0.209814161 0.1112241 -0.971394539
vn -0.210091144 0.0987764075 0.972679198
vn 0.113589324 0.111224376 -0.987282515
vn -0.113740109 0.0987759978 0.988588095
vn 0.00335800624 0.0593393594 -0.998232186
vn -0.00631646672 0.177532226 0.984094739
vn 0.00177657767 0.0517411493 0.998658895
vn 0.0813096762 0.0987761989 0.991782308
vn 0.178131148 0.0987757891 0.979036629
vn 0.273235351 0.0987763554 0.95686245
vn 0.365707874 0.0987748355 0.925473571
vn 0.454655826 0.0987762138 0.885173142
vn 0.539234459 0.098775968 0.836342871
vn 0.632641375 0.0742509067 0.770877123
vn 0.71507591 0.0987782627 0.692032754
vn 0.764579952 0.147290364 0.627473414
vn 0.81823951 0.098775886 0.566327929
vn 0.869809747 0.0987767354 0.483398497
vn 0.913004756 0.0987749398 0.395810425
vn 0.947402596 0.0987757742 0.304420352
vn 0.972679377 0.0987760648 0.210090712
vn 0.988588035 0.098775886 0.113740623
vn 0.995134234 0.0984317213 0.0043639699
vn 0.659039319 0.103153981 -0.745000958
vn 0.999955058 0.00182413182 -0.00929949526
vn 0.999596953 0.00313481037 0.0282132924
vn 1 0 0
vn -0.02447813 -0.999700367 -0
vn 0 -1 0

# Mesh '0' with 378 faces
g 0
usemtl vc_default
f  1//1 2//2 3//3
f  3//3 4//4 1//1
f  5//5 4//4 3//3
f  4//4 5//5 6//6
f  7//3 5//5 3//3
f  7//3 8//3 5//5
f  3//3 9//3 7//3
f  5//5 8//3 10//3
f  11//7 4//4 12//7
f  6//6 12//7 4//4
f  12//7 6//6 13//8
f  14//9 13//8 6//6
f  12//7 13//8 15//7
f  6//6 16//10 14//9
f  17//11 15//7 13//8
f  16//10 18//7 14//9
f  17//11 19//12 15//7
f  13//8 20//13 17//11
f  18//7 16//10 21//14
f  15//7 19//12 22//7
f  17//11 20//13 23//7
f  23//7 20//13 24//15
f  23//7 25//7 17//11
f  25//7 26//16 17//11
f  25//7 27//17 26//16
f  27//17 28//18 26//16
f  29//19 26//16 28//18
f  19//12 17//11 30//20
f  30//20 31//21 19//12
f  29//19 32//22 33//23
f  33//23 26//16 29//19
f  34//24 28//18 27//17
f  28//18 34//24 35//24
f  36//24 34//24 27//17
f  27//17 37//22 36//24
f  38//22 37//22 27//17
f  39//22 38//22 27//17
f  40//22 38//22 39//22
f  27//17 41//25 39//22
f  40//22 42//22 38//22
f  40//22 39//22 43//22
f  44//22 39//22 41//25
f  45//22 38//22 42//22
f  46//22 40//22 43//22
f  41//25 47//24 44//22
f  42//22 48//22 45//22
f  43//22 49//22 46//22
f  47//24 41//25 50//24
f  45//22 48//22 51//22
f  49//22 48//22 46//22
f  50//24 41//25 52//26
f  48//22 49//22 51//22
f  52//26 53//24 50//24
f  54//22 51//22 49//22
f  49//22 55//22 54//22
f  56//27 41//25 27//17
f  56//27 57//28 41//25
f  56//27 27//17 58//29
f  41//25 57//28 59//30
f  27//17 60//31 58//29
f  58//29 61//32 56//27
f  59//30 57//28 62//33
f  41//25 59//30 63//34
f  60//31 27//17 64//35
f  65//36 56//27 61//32
f  57//28 66//37 62//33
f  63//34 67//38 41//25
f  64//35 27//17 68//39
f  65//36 69//40 56//27
f  70//41 66//37 57//28
f  67//38 71//42 41//25
f  27//17 72//43 68//39
f  56//27 69//40 73//44
f  57//28 74//45 70//41
f  75//46 41//25 71//42
f  27//17 76//47 72//43
f  56//27 73//44 77//48
f  74//45 57//28 78//49
f  41//25 75//46 79//50
f  80//51 76//47 27//17
f  77//48 81//52 56//27
f  82//53 78//49 57//28
f  41//25 79//50 83//54
f  80//51 27//17 84//55
f  56//27 81//52 85//56
f  82//53 57//28 86//57
f  41//25 83//54 87//58
f  84//55 27//17 24//15
f  88//59 56//27 85//56
f  57//28 89//60 86//57
f  87//58 90//61 41//25
f  88//59 91//62 56//27
f  89//60 57//28 92//63
f  84//55 24//15 20//13
f  20//13 93//64 84//55
f  94//65 95//66 57//28
f  95//66 92//63 57//28
f  96//67 92//63 95//66
f  96//67 89//60 92//63
f  89//60 96//67 97//68
f  97//68 86//57 89//60
f  97//68 98//69 86//57
f  98//69 82//53 86//57
f  99//70 82//53 98//69
f  99//70 78//49 82//53
f  100//71 78//49 99//70
f  100//71 74//45 78//49
f  100//71 70//41 74//45
f  100//71 101//72 70//41
f  70//41 101//72 66//37
f  66//37 101//72 102//73
f  103//74 66//37 102//73
f  103//74 62//33 66//37
f  62//33 103//74 104//75
f  104//75 59//30 62//33
f  105//76 59//30 104//75
f  105//76 63//34 59//30
f  63//34 105//76 106//77
f  106//77 67//38 63//34
f  107//78 67//38 106//77
f  107//78 71//42 67//38
f  71//42 107//78 108//79
f  108//79 75//46 71//42
f  75//46 108//79 109//80
f  109//80 79//50 75//46
f  109//80 83//54 79//50
f  109//80 110//81 83//54
f  83//54 110//81 111//82
f  111//82 87//58 83//54
f  112//83 113//84 13//8
f  13//8 14//9 112//83
f  14//9 21//14 112//83
f  112//83 21//14 114//85
f  21//14 115//86 114//85
f  116//87 115//86 21//14
f  117//88 116//87 21//14
f  117//88 21//14 118//89
f  118//89 21//14 119//90
f  120//91 119//90 21//14
f  120//91 21//14 121//92
f  122//93 121//92 21//14
f  121//92 122//93 123//94
f  21//14 124//95 122//93
f  122//93 125//96 123//94
f  124//95 126//97 122//93
f  127//98 125//96 122//93
f  128//99 126//97 124//95
f  129//100 127//98 122//93
f  128//99 130//101 126//97
f  131//102 128//99 124//95
f  122//93 132//103 129//100
f  126//97 130//101 133//104
f  134//105 131//102 124//95
f  135//106 132//103 122//93
f  133//104 136//107 126//97
f  124//95 137//108 134//105
f  135//106 122//93 138//109
f  139//110 126//97 136//107
f  124//95 140//111 137//108
f  122//93 141//112 138//109
f  126//97 139//110 142//113
f  140//111 124//95 143//114
f  144//115 126//97 142//113
f  145//116 143//114 124//95
f  144//115 146//117 126//97
f  147//118 145//116 124//95
f  148//119 126//97 146//117
f  149//120 147//118 124//95
f  124//95 150//121 149//120
f  16//10 151//22 21//14
f  124//95 21//14 151//22
f  151//22 152//24 124//95
f  153//22 152//24 151//22
f  154//122 124//95 152//24
f  151//22 155//22 153//22
f  155//22 156//22 153//22
f  157//22 153//22 156//22
f  158//123 80//51 84//55
f  84//55 93//64 158//123
f  20//13 13//8 93//64
f  13//8 113//84 93//64
f  113//84 159//124 93//64
f  158//123 93//64 159//124
f  159//124 160//125 158//123
f  159//124 161//126 160//125
f  160//125 161//126 162//127
f  161//126 163//128 162//127
f  164//129 162//127 163//128
f  163//128 165//130 164//129
f  166//131 164//129 165//130
f  166//131 165//130 167//132
f  166//131 167//132 168//133
f  169//134 168//133 167//132
f  168//133 169//134 170//135
f  170//135 169//134 171//136
f  171//136 172//137 170//135
f  171//136 173//138 172//137
f  173//138 174//139 172//137
f  173//138 175//140 174//139
f  176//141 174//139 175//140
f  175//140 177//142 176//141
f  178//143 176//141 177//142
f  177//142 179//144 178//143
f  180//145 178//143 179//144
f  181//146 180//145 179//144
f  180//145 181//146 182//147
f  183//148 182//147 181//146
f  183//148 184//149 182//147
f  185//150 184//149 183//148
f  186//151 184//149 185//150
f  186//151 185//150 187//152
f  186//151 187//152 188//153
f  187//152 189//154 188//153
f  188//153 189//154 190//155
f  189//154 191//156 190//155
f  94//65 190//155 191//156
f  191//156 192//157 94//65
f  192//157 193//158 94//65
f  95//66 94//65 193//158
f  95//66 193//158 194//159
f  96//67 95//66 194//159
f  194//159 195//160 96//67
f  97//68 96//67 195//160
f  196//161 97//68 195//160
f  97//68 196//161 98//69
f  197//162 98//69 196//161
f  98//69 197//162 99//70
f  198//163 99//70 197//162
f  99//70 198//163 100//71
f  199//164 100//71 198//163
f  100//71 199//164 101//72
f  199//164 200//165 101//72
f  102//73 101//72 200//165
f  102//73 200//165 201//166
f  102//73 201//166 103//74
f  201//166 202//167 103//74
f  104//75 103//74 202//167
f  203//168 104//75 202//167
f  104//75 203//168 105//76
f  204//169 105//76 203//168
f  106//77 105//76 204//169
f  204//169 205//170 106//77
f  107//78 106//77 205//170
f  205//170 206//171 107//78
f  108//79 107//78 206//171
f  108//79 206//171 207//172
f  109//80 108//79 207//172
f  109//80 207//172 208//173
f  208//173 110//81 109//80
f  208//173 111//82 110//81
f  111//82 208//173 209//174
f  210//175 111//82 209//174
f  211//176 111//82 210//175
f  193//158 192//157 126//97
f  126//97 148//119 193//158
f  194//159 193//158 148//119
f  148//119 146//117 194//159
f  195//160 194//159 146//117
f  144//115 195//160 146//117
f  196//161 195//160 144//115
f  144//115 142//113 196//161
f  197//162 196//161 142//113
f  139//110 197//162 142//113
f  198//163 197//162 139//110
f  139//110 136//107 198//163
f  199//164 198//163 136//107
f  133//104 199//164 136//107
f  133//104 130//101 199//164
f  199//164 130//101 200//165
f  200//165 130//101 128//99
f  201//166 200//165 128//99
f  202//167 201//166 128//99
f  131//102 202//167 128//99
f  203//168 202//167 131//102
f  134//105 203//168 131//102
f  204//169 203//168 134//105
f  204//169 134//105 137//108
f  205//170 204//169 137//108
f  137//108 140//111 205//170
f  206//171 205//170 140//111
f  143//114 206//171 140//111
f  207//172 206//171 143//114
f  207//172 143//114 145//116
f  208//173 207//172 145//116
f  147//118 208//173 145//116
f  208//173 147//118 149//120
f  149//120 209//174 208//173
f  209//174 149//120 150//121
f  150//121 210//175 209//174
f  111//82 211//176 90//61
f  90//61 87//58 111//82
f  76//47 158//123 160//125
f  76//47 80//51 158//123
f  76//47 160//125 162//127
f  162//127 72//43 76//47
f  72//43 162//127 164//129
f  164//129 68//39 72//43
f  68//39 164//129 166//131
f  68//39 166//131 64//35
f  64//35 166//131 168//133
f  168//133 60//31 64//35
f  60//31 168//133 170//135
f  60//31 170//135 58//29
f  58//29 170//135 172//137
f  172//137 61//32 58//29
f  61//32 172//137 174//139
f  61//32 174//139 65//36
f  174//139 69//40 65//36
f  176//141 69//40 174//139
f  69//40 176//141 178//143
f  73//44 69//40 178//143
f  73//44 178//143 180//145
f  77//48 73//44 180//145
f  77//48 180//145 182//147
f  77//48 182//147 81//52
f  81//52 182//147 184//149
f  81//52 184//149 85//56
f  85//56 184//149 186//151
f  88//59 85//56 186//151
f  88//59 186//151 188//153
f  88//59 188//153 91//62
f  190//155 91//62 188//153
f  190//155 56//27 91//62
f  57//28 56//27 190//155
f  190//155 94//65 57//28
f  210//175 150//121 2//2
f  154//122 2//2 150//121
f  1//1 210//175 2//2
f  150//121 212//177 154//122
f  52//26 210//175 1//1
f  212//177 124//95 154//122
f  210//175 52//26 211//176
f  52//26 41//25 211//176
f  41//25 90//61 211//176
f  122//93 126//97 192//157
f  192//157 191//156 122//93
f  122//93 191//156 141//112
f  191//156 189//154 141//112
f  189//154 138//109 141//112
f  189//154 187//152 138//109
f  138//109 187//152 135//106
f  187//152 185//150 135//106
f  132//103 135//106 185//150
f  185//150 183//148 132//103
f  183//148 129//100 132//103
f  183//148 181//146 129//100
f  129//100 181//146 127//98
f  181//146 179//144 127//98
f  127//98 179//144 125//96
f  179//144 177//142 125//96
f  177//142 175//140 125//96
f  175//140 123//94 125//96
f  173//138 123//94 175//140
f  121//92 123//94 173//138
f  121//92 173//138 120//91
f  173//138 171//136 120//91
f  119//90 120//91 171//136
f  171//136 169//134 119//90
f  119//90 169//134 118//89
f  169//134 167//132 118//89
f  117//88 118//89 167//132
f  167//132 165//130 117//88
f  117//88 165//130 116//87
f  165//130 163//128 116//87
f  115//86 116//87 163//128
f  163//128 161//126 115//86
f  114//85 115//86 161//126
f  161//126 159//124 114//85
f  159//124 112//83 114//85
f  112//83 159//124 113//84
f  213//7 31//21 214//7
f  30//20 214//7 31//21
f  30//20 215//178 214//7
f  216//179 215//178 30//20
f  30//20 17//11 216//179
f  217//179 216//179 17//11
f  17//11 26//16 217//179
f  33//23 217//179 26//16

