# File produced by Open Asset Import Library (http://www.assimp.sf.net)
# (assimp v5.2.0)

mtllib a3_cut_0__3_1.mtl

# 65 vertex positions
v  -1100 1201 -715
v  -1100 1201 -685
v  -1100 1341 -672.5
v  -1100 545 -672.5
v  -1100 1341 -827.5
v  -1100 545 -685
v  -1100 545 -827.5
v  -1100 545 -715
v  -1125.5 1201 -685
v  -1125.5 1183.42908 -685
v  -1125.5 545 -685
v  -900 1341 -827.5
v  -900 545 -827.5
v  -1145 545 -715
v  -1145 545 -705
v  -1145 1190.52258 -705
v  -1145 1201 -715
v  -1145 1201 -705
v  -900 545 -672.5
v  -900 1341 -672.5
v  -1035 1304 -672.5
v  -965 1304 -672.5
v  -931.5 1341 -672.5
v  -965 1204 -672.5
v  -1068.5 1341 -672.5
v  -931.5 545 -672.5
v  -1035 1204 -672.5
v  -985 765 -672.5
v  -1068.5 545 -672.5
v  -985.288208 767.926331 -672.5
v  -985.288208 762.073669 -672.5
v  -1015 765 -672.5
v  -986.141785 770.740234 -672.5
v  -986.141785 759.259766 -672.5
v  -1014.71179 762.073669 -672.5
v  -1014.71179 767.926331 -672.5
v  -987.527954 773.333557 -672.5
v  -987.527954 756.666443 -672.5
v  -1013.85822 759.259766 -672.5
v  -1013.85822 770.740234 -672.5
v  -989.393372 775.606628 -672.5
v  -989.393372 754.393372 -672.5
v  -1012.47205 756.666443 -672.5
v  -1012.47205 773.333557 -672.5
v  -991.666443 777.472046 -672.5
v  -991.666443 752.527954 -672.5
v  -1010.60663 754.393372 -672.5
v  -1010.60663 775.606628 -672.5
v  -994.259766 778.858215 -672.5
v  -994.259766 751.141785 -672.5
v  -1008.33356 752.527954 -672.5
v  -1008.33356 777.472046 -672.5
v  -997.073669 779.711792 -672.5
v  -997.073669 750.288208 -672.5
v  -1005.74023 751.141785 -672.5
v  -1005.74023 778.858215 -672.5
v  -1000 780 -672.5
v  -1000 750 -672.5
v  -1002.92633 750.288208 -672.5
v  -1002.92633 779.711792 -672.5
v  -908.5 1341 -672.5
v  -908.5 545 -672.5
v  -1091.5 545 -672.5
v  -1091.5 1341 -672.5
v  -1125.5 1201 -705

# 0 UV coordinates

# 19 vertex normals
vn -0.954606473 0.00612864923 -0.297806948
vn -0.792092621 0.0451864898 0.608726144
vn -0.935569763 0 0.353141725
vn -0.937010586 0 0.34930104
vn -0.329848498 0 -0.944033861
vn -0.24109681 0 0.970501125
vn -0.716145337 0 -0.697951257
vn -0.928476691 0 -0.371390671
vn 0 0.751254976 0.660012126
vn 0 0 1
vn 0.840296686 0 -0.542126894
vn 0.361321062 0 -0.932441473
vn -0.21527867 0 -0.976552606
vn -1 0 0
vn -0.220178425 0.0213083103 -0.975226879
vn -0.473308742 0.880896568 0
vn 0.998499691 0 0.0547564328
vn 0 0 0.99999994
vn 0 1 0

# Mesh '0' with 68 faces
g 0
usemtl vc_default
f  1//1 2//2 3//3
f  4//4 3//3 2//2
f  3//3 5//5 1//1
f  2//2 6//6 4//4
f  7//7 1//1 5//5
f  1//1 7//7 8//8
f  2//2 9//9 10//10
f  10//10 6//6 2//2
f  6//6 10//10 11//10
f  5//5 12//11 13//12
f  13//12 7//7 5//5
f  14//13 15//14 16//14
f  14//13 16//14 17//15
f  18//16 17//15 16//14
f  1//1 8//8 14//13
f  14//13 17//15 1//1
f  19//17 13//12 12//11
f  12//11 20//17 19//17
f  21//10 22//18 23//10
f  23//10 22//18 24//10
f  21//10 23//10 25//10
f  23//10 24//10 26//10
f  21//10 25//10 27//10
f  24//10 28//10 26//10
f  27//10 25//10 29//10
f  30//10 28//10 24//10
f  26//10 28//10 31//10
f  27//10 29//10 32//10
f  24//10 33//10 30//10
f  26//10 31//10 34//10
f  29//10 35//10 32//10
f  27//10 32//10 36//10
f  24//10 37//10 33//10
f  26//10 34//10 38//10
f  29//10 39//10 35//10
f  27//10 36//10 40//10
f  37//10 24//10 41//18
f  26//10 38//10 42//10
f  29//10 43//18 39//10
f  27//10 40//10 44//10
f  24//10 45//10 41//18
f  42//10 46//10 26//10
f  43//18 29//10 47//10
f  48//18 27//10 44//10
f  49//10 45//10 24//10
f  46//10 50//10 26//10
f  51//10 47//10 29//10
f  27//10 48//18 52//10
f  24//10 53//10 49//10
f  54//10 26//10 50//10
f  29//10 55//10 51//10
f  27//10 52//10 56//10
f  57//18 53//10 24//10
f  26//10 54//10 58//10
f  29//10 59//10 55//10
f  56//10 60//18 27//10
f  27//10 57//18 24//10
f  29//10 26//10 58//10
f  58//10 59//10 29//10
f  60//18 57//18 27//10
f  19//17 20//17 61//18
f  61//18 62//18 19//17
f  63//18 64//18 3//3
f  3//3 4//4 63//18
f  65//19 2//2 1//1
f  2//2 65//19 9//9
f  17//15 65//19 1//1
f  65//19 17//15 18//16

