# File produced by Open Asset Import Library (http://www.assimp.sf.net)
# (assimp v5.2.0)

mtllib fuehrung_mitte.mtl

# 40 vertex positions
v  -250 367.567963 -187.5
v  -250 369.299988 -184.5
v  -250 360 -187.5
v  -250 360 -142.5
v  -250 369.299988 -145.5
v  -250 367.567963 -142.5
v  -250 399.850006 -145.5
v  -250 399.850006 -184.5
v  -750 399.850006 -184.5
v  -750 399.850006 -145.5
v  -750 367.567963 -142.5
v  -750 360 -142.5
v  -750 369.299988 -145.5
v  -750 369.299988 -184.5
v  -750 360 -187.5
v  -750 367.567963 -187.5
v  -250 367.567963 142.5
v  -250 369.299988 145.5
v  -250 360 142.5
v  -250 360 187.5
v  -250 369.299988 184.5
v  -250 367.567963 187.5
v  -250 399.850006 184.5
v  -250 399.850006 145.5
v  -750 399.850006 145.5
v  -750 399.850006 184.5
v  -750 367.567963 187.5
v  -750 360 187.5
v  -750 369.299988 184.5
v  -750 369.299988 145.5
v  -750 360 142.5
v  -750 367.567963 142.5
v  -250 367 -41
v  -250 367 -70
v  -250 396 -70
v  -250 396 -41
v  -750 396 -41
v  -750 367 -41
v  -750 367 -70
v  -750 396 -70

# 0 UV coordinates

# 24 vertex normals
vn 0.00265035522 0.17510362 -0.984546423
vn 0.0978225917 0.0920884237 -0.990934134
vn 0.00976957195 -0.996435642 -0.08378876
vn 0.0338453054 -0.947277904 0.318620622
vn 0.0500726476 0.047632169 0.997609079
vn 0.00361579843 0.477777004 0.878473699
vn 0.0568001159 0.929624975 0.364103317
vn 0.0480441079 0.786318779 -0.615950108
vn -0.0240428746 0.787000299 -0.616483927
vn -0.0656062961 0.536876082 0.841106355
vn -0.00265035522 0.17510362 0.984546423
vn -0.0177988634 -0.996325374 0.083779484
vn -0.0909297988 0.17299597 0.980716109
vn -0.192895979 0.0907943994 -0.977009535
vn -0.0185826458 -0.947657228 -0.318748206
vn -0.00361579843 0.477777004 -0.878473699
vn 0.0817498416 -0.704740047 0.704740047
vn 0.0259296671 -0.894126475 -0.447063237
vn 0.051807113 0.446613044 -0.893226087
vn 0.0205017868 0.706958175 0.706958175
vn -0.0409777425 0.706512809 0.706512809
vn -0.0409777425 -0.706512809 0.706512809
vn -0.0259296671 -0.447063237 -0.894126475
vn -0.051807113 0.893226087 -0.446613044

# Mesh '0' with 28 faces
g 0
usemtl RAL9007
f  1//1 2//2 3//3
f  4//4 3//3 2//2
f  5//5 4//4 2//2
f  5//5 6//6 4//4
f  7//7 5//5 2//2
f  2//2 8//8 7//7
f  7//7 8//8 9//9
f  9//9 10//10 7//7
f  4//4 6//6 11//11
f  11//11 12//12 4//4
f  12//12 11//11 13//13
f  14//14 12//12 13//13
f  14//14 15//15 12//12
f  14//14 13//13 10//10
f  15//15 14//14 16//16
f  10//10 9//9 14//14
f  12//12 15//15 3//3
f  3//3 4//4 12//12
f  6//6 5//5 13//13
f  13//13 11//11 6//6
f  10//10 13//13 5//5
f  5//5 7//7 10//10
f  2//2 14//14 9//9
f  9//9 8//8 2//2
f  2//2 1//1 16//16
f  16//16 14//14 2//2
f  15//15 16//16 1//1
f  1//1 3//3 15//15

# Mesh '1' with 28 faces
g 1
usemtl RAL9007
f  17//1 18//2 19//3
f  20//4 19//3 18//2
f  21//5 20//4 18//2
f  21//5 22//6 20//4
f  23//7 21//5 18//2
f  18//2 24//8 23//7
f  23//7 24//8 25//9
f  25//9 26//10 23//7
f  20//4 22//6 27//11
f  27//11 28//12 20//4
f  28//12 27//11 29//13
f  30//14 28//12 29//13
f  30//14 31//15 28//12
f  30//14 29//13 26//10
f  31//15 30//14 32//16
f  26//10 25//9 30//14
f  28//12 31//15 19//3
f  19//3 20//4 28//12
f  22//6 21//5 29//13
f  29//13 27//11 22//6
f  26//10 29//13 21//5
f  21//5 23//7 26//10
f  18//2 30//14 25//9
f  25//9 24//8 18//2
f  18//2 17//1 32//16
f  32//16 30//14 18//2
f  31//15 32//16 17//1
f  17//1 19//3 31//15

# Mesh '2' with 12 faces
g 2
usemtl RAL9007
f  33//17 34//18 35//19
f  35//19 36//20 33//17
f  36//20 37//21 38//22
f  38//22 33//17 36//20
f  35//19 34//18 39//23
f  39//23 40//24 35//19
f  38//22 39//23 34//18
f  34//18 33//17 38//22
f  40//24 37//21 36//20
f  36//20 35//19 40//24
f  38//22 37//21 40//24
f  40//24 39//23 38//22

