# File produced by Open Asset Import Library (http://www.assimp.sf.net)
# (assimp v5.2.0)

mtllib geometry_9_1.mtl

# 72 vertex positions
v  -157.5 0 -59.5
v  -157.5 0 120.5
v  -157.5 6 120.5
v  -157.5 6 -59.5
v  137.5 6 120.5
v  137.5 6 -59.5
v  -107.5 6 -109.5
v  -157.259247 6 -64.400856
v  87.5 6 -109.5
v  -156.539261 6 -69.2545166
v  137.259232 6 -64.400856
v  -155.347015 6 -74.0142288
v  136.539261 6 -69.2545166
v  -153.69397 6 -78.6341705
v  135.347031 6 -74.0142288
v  -151.596069 6 -83.0698395
v  133.693985 6 -78.6341705
v  -149.073486 6 -87.2785187
v  131.596054 6 -83.0698395
v  -146.150528 6 -91.2196655
v  129.073486 6 -87.2785187
v  -142.855347 6 -94.8553391
v  126.15052 6 -91.2196655
v  -139.219666 6 -98.1505203
v  122.855339 6 -94.8553391
v  -135.278503 6 -101.073479
v  119.219658 6 -98.1505203
v  -131.069839 6 -103.596062
v  115.278511 6 -101.073479
v  -126.634163 6 -105.693977
v  111.069839 6 -103.596062
v  -122.014229 6 -107.347015
v  106.634171 6 -105.693977
v  -117.254517 6 -108.539261
v  102.014236 6 -107.347015
v  -112.400856 6 -109.259232
v  97.2545166 6 -108.539261
v  92.400856 6 -109.259232
v  137.5 0 120.5
v  137.5 0 -59.5
v  87.5 0 -109.5
v  92.400856 0 -109.259232
v  97.2545166 0 -108.539261
v  102.014236 0 -107.347015
v  106.634171 0 -105.693977
v  111.069839 0 -103.596062
v  115.278511 0 -101.073479
v  119.219658 0 -98.1505203
v  122.855339 0 -94.8553391
v  126.15052 0 -91.2196655
v  129.073486 0 -87.2785187
v  131.596054 0 -83.0698395
v  133.693985 0 -78.6341705
v  135.347031 0 -74.0142288
v  136.539261 0 -69.2545166
v  137.259232 0 -64.400856
v  -107.5 0 -109.5
v  -157.259247 0 -64.400856
v  -156.539261 0 -69.2545166
v  -155.347015 0 -74.0142288
v  -153.69397 0 -78.6341705
v  -151.596069 0 -83.0698395
v  -149.073486 0 -87.2785187
v  -146.150528 0 -91.2196655
v  -142.855347 0 -94.8553391
v  -139.219666 0 -98.1505203
v  -135.278503 0 -101.073479
v  -131.069839 0 -103.596062
v  -126.634163 0 -105.693977
v  -122.014229 0 -107.347015
v  -117.254517 0 -108.539261
v  -112.400856 0 -109.259232

# 0 UV coordinates

# 72 vertex normals
vn -0.0180639829 -0.999836862 -1.19182005e-05
vn -0.0203234926 -0.999238431 0.0333079472
vn -0.0405544788 0.996964216 0.0664642826
vn -0.00939702801 0.999955893 -2.38392386e-05
vn 0.010167554 0.999809444 0.0166634899
vn 0.0281183999 0.999604583 -1.8553048e-05
vn -5.55005681e-05 0.995848119 -0.0910302922
vn -0.194444105 0.980658472 -0.0223715175
vn 0.000257092353 0.994004011 -0.109343566
vn -0.213345498 0.975889444 -0.0460810028
vn 0.195072368 0.980658472 -0.0159928333
vn -0.234083176 0.969302714 -0.0752153844
vn 0.214739367 0.975889623 -0.0390702672
vn -0.256862044 0.960011244 -0.111356877
vn 0.236419842 0.969302833 -0.0675098523
vn -0.281789303 0.946609676 -0.15660432
vn 0.260371059 0.960010886 -0.102888055
vn -0.308706641 0.926848292 -0.213664472
vn 0.28676632 0.946609437 -0.147294864
vn -0.24106583 0.950130284 -0.19783774
vn 0.315537065 0.926848471 -0.203441367
vn -0.376280785 0.851940811 -0.364155918
vn 0.424204588 0.835973382 -0.348136365
vn -0.460902721 0.687138736 -0.561612964
vn 0.36415565 0.851940751 -0.376281321
vn -0.395588666 0.683418214 -0.613554537
vn 0.29649502 0.884062827 -0.361280382
vn -0.382045209 0.54845494 -0.743800223
vn 0.415465593 0.68341881 -0.600272477
vn -0.338489413 0.389450282 -0.856594026
vn 0.406194329 0.548455298 -0.730891883
vn -0.267044604 0.232626021 -0.93518573
vn 0.366355062 0.389450759 -0.845051467
vn -0.177994072 0.106130689 -0.978291571
vn 0.297521532 0.232625917 -0.925940633
vn -0.0816807449 0.0267380085 -0.996299863
vn 0.209930196 0.106130555 -0.971939147
vn 0.114257805 0.0267379992 -0.993091226
vn 0.0203234926 -0.999238431 0.0333079472
vn 0.014629893 -0.99989301 -3.71168026e-05
vn 0.000126507104 -0.978236496 -0.207493007
vn 0.0816807449 -0.0267380085 -0.996299863
vn 0.177993983 -0.106130555 -0.978291571
vn 0.267044365 -0.232625827 -0.93518585
vn 0.338489503 -0.389450997 -0.856593788
vn 0.382045329 -0.54845506 -0.743799984
vn 0.395588398 -0.683418751 -0.61355412
vn 0.460902721 -0.68713963 -0.561611831
vn 0.376280904 -0.851940751 -0.364156038
vn 0.241066039 -0.950130165 -0.197838157
vn 0.308706343 -0.926848352 -0.213664278
vn 0.281789809 -0.946609557 -0.156604603
vn 0.25686267 -0.960010827 -0.111358307
vn 0.234082773 -0.969302773 -0.0752150044
vn 0.213344872 -0.975889623 -0.0460801907
vn 0.194444135 -0.980658412 -0.0223713182
vn -0.000111338879 -0.998878241 -0.047353372
vn -0.195072308 -0.980658472 -0.0159926247
vn -0.214740008 -0.975889444 -0.0390710644
vn -0.236420289 -0.969302773 -0.0675104931
vn -0.260370493 -0.960011184 -0.10288725
vn -0.286765844 -0.946609735 -0.147293612
vn -0.315537214 -0.926848173 -0.203442067
vn -0.424204379 -0.83597374 -0.34813574
vn -0.36415565 -0.851940751 -0.376281321
vn -0.296495259 -0.88406235 -0.361281395
vn -0.415465593 -0.683417797 -0.600273609
vn -0.406194478 -0.548455358 -0.730891764
vn -0.366354853 -0.389449954 -0.845051944
vn -0.297521681 -0.232625976 -0.925940633
vn -0.209930405 -0.106130734 -0.971939087
vn -0.114257805 -0.0267379992 -0.993091226

# Mesh '0' with 140 faces
g 0
usemtl vc_default
f  1//1 2//2 3//3
f  3//3 4//4 1//1
f  4//4 3//3 5//5
f  6//6 4//4 5//5
f  7//7 4//4 6//6
f  7//7 8//8 4//4
f  6//6 9//9 7//7
f  8//8 7//7 10//10
f  6//6 11//11 9//9
f  10//10 7//7 12//12
f  13//13 9//9 11//11
f  7//7 14//14 12//12
f  15//15 9//9 13//13
f  7//7 16//16 14//14
f  15//15 17//17 9//9
f  16//16 7//7 18//18
f  9//9 17//17 19//19
f  18//18 7//7 20//20
f  19//19 21//21 9//9
f  22//22 20//20 7//7
f  21//21 23//23 9//9
f  24//24 22//22 7//7
f  9//9 23//23 25//25
f  7//7 26//26 24//24
f  27//27 9//9 25//25
f  7//7 28//28 26//26
f  29//29 9//9 27//27
f  30//30 28//28 7//7
f  9//9 29//29 31//31
f  32//32 30//30 7//7
f  9//9 31//31 33//33
f  7//7 34//34 32//32
f  35//35 9//9 33//33
f  34//34 7//7 36//36
f  35//35 37//37 9//9
f  38//38 9//9 37//37
f  3//3 2//2 39//39
f  39//39 5//5 3//3
f  39//39 40//40 6//6
f  6//6 5//5 39//39
f  41//41 9//9 42//42
f  9//9 38//38 42//42
f  38//38 43//43 42//42
f  38//38 37//37 43//43
f  43//43 37//37 44//44
f  37//37 35//35 44//44
f  45//45 44//44 35//35
f  35//35 33//33 45//45
f  33//33 46//46 45//45
f  33//33 31//31 46//46
f  46//46 31//31 47//47
f  31//31 29//29 47//47
f  47//47 29//29 48//48
f  29//29 27//27 48//48
f  27//27 25//25 48//48
f  25//25 49//49 48//48
f  23//23 49//49 25//25
f  50//50 49//49 23//23
f  50//50 23//23 51//51
f  23//23 21//21 51//51
f  52//52 51//51 21//21
f  21//21 19//19 52//52
f  52//52 19//19 53//53
f  19//19 17//17 53//53
f  54//54 53//53 17//17
f  17//17 15//15 54//54
f  54//54 15//15 55//55
f  15//15 13//13 55//55
f  56//56 55//55 13//13
f  13//13 11//11 56//56
f  40//40 56//56 11//11
f  11//11 6//6 40//40
f  41//41 57//57 7//7
f  7//7 9//9 41//41
f  1//1 4//4 58//58
f  4//4 8//8 58//58
f  8//8 59//59 58//58
f  8//8 10//10 59//59
f  59//59 10//10 60//60
f  10//10 12//12 60//60
f  61//61 60//60 12//12
f  12//12 14//14 61//61
f  14//14 62//62 61//61
f  14//14 16//16 62//62
f  62//62 16//16 63//63
f  16//16 18//18 63//63
f  63//63 18//18 64//64
f  18//18 20//20 64//64
f  20//20 22//22 64//64
f  22//22 65//65 64//64
f  24//24 65//65 22//22
f  66//66 65//65 24//24
f  66//66 24//24 67//67
f  24//24 26//26 67//67
f  68//68 67//67 26//26
f  26//26 28//28 68//68
f  68//68 28//28 69//69
f  28//28 30//30 69//69
f  70//70 69//69 30//30
f  30//30 32//32 70//70
f  70//70 32//32 71//71
f  32//32 34//34 71//71
f  72//72 71//71 34//34
f  34//34 36//36 72//72
f  57//57 72//72 36//36
f  36//36 7//7 57//57
f  39//39 2//2 1//1
f  39//39 1//1 40//40
f  40//40 1//1 57//57
f  1//1 58//58 57//57
f  57//57 41//41 40//40
f  59//59 57//57 58//58
f  41//41 56//56 40//40
f  60//60 57//57 59//59
f  56//56 41//41 55//55
f  60//60 61//61 57//57
f  55//55 41//41 54//54
f  61//61 62//62 57//57
f  41//41 53//53 54//54
f  63//63 57//57 62//62
f  52//52 53//53 41//41
f  64//64 57//57 63//63
f  41//41 51//51 52//52
f  57//57 64//64 65//65
f  41//41 50//50 51//51
f  57//57 65//65 66//66
f  49//49 50//50 41//41
f  66//66 67//67 57//57
f  49//49 41//41 48//48
f  67//67 68//68 57//57
f  48//48 41//41 47//47
f  57//57 68//68 69//69
f  46//46 47//47 41//41
f  57//57 69//69 70//70
f  45//45 46//46 41//41
f  70//70 71//71 57//57
f  45//45 41//41 44//44
f  72//72 57//57 71//71
f  41//41 43//43 44//44
f  43//43 41//41 42//42

