# File produced by Open Asset Import Library (http://www.assimp.sf.net)
# (assimp v5.2.0)

mtllib geo-20205521-43bc-4f0c-b67d-e3267217fe2e.mtl

# 144 vertex positions
v  -91.4702225 -205.409393 -11.8413448
v  -94.7747498 -205.388977 -4.77197218
v  -94.6975708 -192.889221 -4.77197218
v  -95.0452728 -192.887085 3.02389026
v  -91.3930359 -192.909622 -11.8413448
v  -95.122467 -205.386826 3.02389026
v  -85.6347656 -192.945175 -17.1079807
v  -92.4604111 -205.403275 10.3593922
v  -85.7119598 -205.444946 -17.1079807
v  -92.3832245 -192.903519 10.3593922
v  -78.299408 -192.990479 -19.7700806
v  -87.1166992 -192.936035 16.1177711
v  -78.3765945 -205.49025 -19.7700806
v  -87.1938782 -205.435791 16.1177711
v  -70.5037003 -193.03862 -19.4223652
v  -80.0474548 -192.979675 19.4223652
v  -70.5808792 -205.538376 -19.4223652
v  -80.1246414 -205.479446 19.4223652
v  -63.4344521 -193.08226 -16.1177711
v  -72.2517471 -193.027817 19.7700806
v  -63.5116386 -205.582016 -16.1177711
v  -72.3289261 -205.527588 19.7700806
v  -58.1679192 -193.114792 -10.3593922
v  -64.9163818 -193.073105 17.1079807
v  -58.2451019 -205.614548 -10.3593922
v  -64.9935608 -205.572876 17.1079807
v  -55.5830536 -205.630981 -3.02389026
v  -59.1581078 -193.108673 11.8413448
v  -55.5058708 -193.131226 -3.02389026
v  -59.2352943 -205.608429 11.8413448
v  -55.8535805 -193.129074 4.77197218
v  -55.9307632 -205.628845 4.77197218
v  -56.577713 -206.624863 -2.87269592
v  -59.1066589 -206.609253 -9.84142303
v  -64.1098709 -206.578354 -15.311883
v  -56.9080391 -206.622818 4.53337336
v  -70.8256454 -206.536896 -18.4512482
v  -60.0473404 -206.603439 11.2492781
v  -78.231575 -206.49115 -18.7815762
v  -65.5176926 -206.569656 16.2525806
v  -85.2001648 -206.44812 -16.2525806
v  -72.48629 -206.526642 18.7815762
v  -90.6705246 -206.414337 -11.2492781
v  -79.8922195 -206.480911 18.4512482
v  -93.8098297 -206.394958 -4.53337336
v  -86.6079941 -206.439438 15.311883
v  -94.140152 -206.392929 2.87269592
v  -91.6112061 -206.408524 9.84142303
v  -87.4976807 -206.433929 -2.98248243
v  -87.7149963 -206.432602 1.88993156
v  -86.0512161 -206.442856 6.47462034
v  -85.4323502 -206.446686 -7.40084076
v  -82.7596359 -206.463181 10.0736065
v  -81.8334274 -206.468903 -10.6924877
v  -78.3413544 -206.490479 12.138979
v  -77.2488251 -206.497223 -12.3563013
v  -73.4690323 -206.520554 12.3563013
v  -72.376503 -206.527313 -12.138979
v  -68.8844299 -206.548874 10.6924877
v  -67.9582367 -206.554596 -10.0736065
v  -65.2855225 -206.571091 7.40084076
v  -64.6666489 -206.574921 -6.47462034
v  -63.2201881 -206.583847 2.98248243
v  -63.0028687 -206.58519 -1.88993156
v  -97.4817276 -187.241928 3.40187669
v  -97.0905609 -187.244339 -5.36846828
v  -97.5010529 -190.371872 3.40187669
v  -97.1098862 -190.374283 -5.36846828
v  -94.5062485 -190.390366 11.6543169
v  -93.3922806 -190.397232 -13.3215122
v  -94.4869232 -187.260422 11.6543169
v  -93.3729553 -187.267288 -13.3215122
v  -88.581398 -190.426941 18.1324921
v  -86.8949051 -187.307297 -19.2464771
v  -88.5620728 -187.296997 18.1324921
v  -86.9142303 -190.437241 -19.2464771
v  -80.6285095 -190.476044 21.8501606
v  -78.6619492 -190.48819 -22.2413406
v  -80.6091766 -187.3461 21.8501606
v  -78.6426239 -187.358246 -22.2413406
v  -71.8389969 -187.400269 22.2413406
v  -69.8917694 -190.542343 -21.8501606
v  -71.8583221 -190.530197 22.2413406
v  -69.8724442 -187.412415 -21.8501606
v  -63.5867195 -187.451218 19.2464771
v  -61.9388771 -190.591461 -18.1324921
v  -63.6060448 -190.581161 19.2464771
v  -61.9195518 -187.461517 -18.1324921
v  -57.1279907 -190.621155 13.3215122
v  -56.0140266 -190.628036 -11.6543169
v  -57.1086617 -187.491226 13.3215122
v  -55.9947014 -187.498093 -11.6543169
v  -53.4103928 -190.644119 5.36846828
v  -53.0192223 -190.64653 -3.40187669
v  -53.3910637 -187.514175 5.36846828
v  -52.9998932 -187.516586 -3.40187669
v  -67.8271713 -187.425034 -1.13395894
v  -68.8254395 -187.418869 -3.8847723
v  -67.9575653 -187.424225 1.78948951
v  -70.8003922 -187.406677 -6.04416418
v  -69.1967621 -187.41658 4.44050407
v  -73.451355 -187.39032 -7.28338718
v  -76.3747482 -187.372253 -7.41378021
v  -71.3561096 -187.403244 6.41549253
v  -74.1068726 -187.386261 7.41378021
v  -79.1255112 -187.35527 -6.41549253
v  -77.0302658 -187.36821 7.28338718
v  -81.2848587 -187.341949 -4.44050407
v  -79.6812363 -187.351837 6.04416418
v  -82.5240631 -187.33429 -1.78948951
v  -81.6561813 -187.339645 3.8847723
v  -82.6544571 -187.333481 1.13395894
v  -91.6513367 -843.920471 1.88993156
v  -89.9875565 -843.930725 6.47462034
v  -86.6959686 -843.95105 10.0736065
v  -91.4340134 -843.921753 -2.98248243
v  -82.2776947 -843.978333 12.138979
v  -89.3686829 -843.934509 -7.40084076
v  -77.4053726 -844.008362 12.3563013
v  -85.7697678 -843.956787 -10.6924877
v  -72.8207779 -844.036682 10.6924877
v  -81.1851654 -843.985107 -12.3563013
v  -69.2218552 -844.05896 7.40084076
v  -76.312851 -844.015198 -12.138979
v  -67.1565247 -844.071716 2.98248243
v  -71.8945694 -844.042419 -10.0736065
v  -66.9392014 -844.073059 -1.88993156
v  -68.6029892 -844.062744 -6.47462034
v  -81.6345749 -183.839706 3.8847723
v  -82.632843 -183.833542 1.13395894
v  -82.502449 -183.834351 -1.78948951
v  -79.6596222 -183.851898 6.04416418
v  -81.2632523 -183.84201 -4.44050407
v  -77.0086594 -183.868271 7.28338718
v  -79.1038971 -183.855347 -6.41549253
v  -74.0852661 -183.886322 7.41378021
v  -76.3531418 -183.87233 -7.41378021
v  -71.3345032 -183.903305 6.41549253
v  -73.4297409 -183.890366 -7.28338718
v  -69.1751556 -183.916641 4.44050407
v  -70.7787781 -183.906754 -6.04416418
v  -67.9359512 -183.924301 1.78948951
v  -68.803833 -183.918945 -3.8847723
v  -67.8055573 -183.92511 -1.13395894

# 0 UV coordinates

# 144 vertex normals
vn -0.8028543 -0.0506698862 -0.594018221
vn -0.9809196 -0.0665641055 -0.182663202
vn -0.94016403 -0.163733557 -0.298802733
vn -0.974711299 -0.166611373 0.148924723
vn -0.775462091 -0.226804525 -0.589252234
vn -0.980431497 -0.127683833 0.149836108
vn -0.546845198 -0.16638422 -0.820534408
vn -0.852550745 -0.0503628217 0.520212233
vn -0.459612876 -0.0697420165 -0.885376751
vn -0.824847579 -0.226499885 0.518000185
vn -0.191299811 -0.168579653 -0.966946423
vn -0.617726803 -0.165946841 0.768684089
vn -0.0858482271 -0.0720499232 -0.99369967
vn -0.53661108 -0.0692666396 0.840981901
vn 0.193209395 -0.170954153 -0.966149449
vn -0.276627809 -0.168053135 0.946168721
vn 0.300917506 -0.0744379535 -0.950740516
vn -0.173974559 -0.0715056285 0.982150614
vn 0.548144758 -0.173145905 -0.81826508
vn 0.106425412 -0.170418218 0.979607761
vn 0.641803205 -0.0765431076 -0.763039947
vn 0.215079933 -0.0739079416 0.973795772
vn 0.851778805 -0.139173821 -0.50507772
vn 0.473116934 -0.1726823 0.863910496
vn 0.853472829 -0.11023213 -0.509345651
vn 0.571322262 -0.0761076435 0.817189336
vn 0.987517595 -0.0445315018 -0.15108262
vn 0.76762116 -0.174501017 0.616690457
vn 0.974020779 -0.170416415 -0.149137124
vn 0.840517819 -0.077770099 0.536172986
vn 0.963769376 -0.139865428 0.227126166
vn 0.966669738 -0.11093124 0.23074612
vn 0.150074527 -0.988386035 -0.0238868613
vn 0.115634806 -0.989594281 -0.0856259391
vn 0.0736016929 -0.989334524 -0.125697568
vn 0.135661274 -0.989718258 0.0453201532
vn 0.0260615125 -0.982493937 -0.184462637
vn 0.107528023 -0.989544272 0.0961234942
vn -0.0330898799 -0.992171168 -0.120422147
vn 0.0797310323 -0.98282522 0.166426331
vn -0.0917284116 -0.988314211 -0.121740669
vn 0.00413976051 -0.992400944 0.122976854
vn -0.16418843 -0.981319308 -0.100272432
vn -0.0514259599 -0.988562882 0.14176999
vn -0.152734742 -0.987937093 -0.0255393069
vn -0.126987398 -0.981549263 0.142952144
vn -0.108154945 -0.994011581 0.0156035181
vn -0.115811944 -0.991660297 0.0565468706
vn -0.98476094 -0.00585590443 -0.173815519
vn -0.988436759 -0.0118391868 0.151170313
vn -0.887797952 -0.00130052154 0.460231692
vn -0.843259633 -0.0118827922 -0.537374973
vn -0.644085705 -0.0131126344 0.764840901
vn -0.573448837 -0.00839564949 -0.819198251
vn -0.30237031 -0.0100694988 0.953137279
vn -0.216294378 -0.00544689689 -0.976312995
vn 0.0854194611 -0.00730990991 0.996318221
vn 0.173693866 -0.0181622431 -0.984632254
vn 0.46006164 -0.0199305024 0.887663245
vn 0.537331104 -0.0152544565 -0.843233347
vn 0.764809728 -0.0166590903 0.644040763
vn 0.819108963 -0.0169943795 -0.573386133
vn 0.953045428 -0.0178213976 0.302302599
vn 0.988440871 -0.0112014608 -0.151192486
vn -0.217578873 0.974785447 0.0495269075
vn -0.36831075 0.925150156 -0.0918932781
vn -0.941145897 -0.322136581 0.102334276
vn -0.865464926 -0.466669738 -0.182180882
vn -0.815949619 -0.392986685 0.424013615
vn -0.771220565 -0.338727325 -0.53896445
vn -0.20675616 0.966996968 0.148891836
vn -0.118501745 0.988725007 -0.0915439427
vn -0.591766536 -0.394370139 0.703053653
vn -0.168642282 0.942630529 -0.288110286
vn -0.154969528 0.955132008 0.2524032
vn -0.484011292 -0.469025165 -0.738747954
vn -0.24655728 -0.341966957 0.906789958
vn -0.198869318 -0.396796405 -0.896104693
vn -0.0307898745 0.98818332 0.150152162
vn -0.019687742 0.954296827 -0.298211455
vn 0.0281538945 0.965546608 0.258702636
vn 0.15899916 -0.399006337 -0.903057694
vn 0.146039054 -0.399593741 0.904984713
vn 0.0752458349 0.9729774 -0.218295887
vn 0.180269718 0.940476298 0.288109511
vn 0.492287815 -0.401064724 -0.772528172
vn 0.428760976 -0.474661201 0.768674672
vn 0.198667169 0.952948272 -0.228956327
vn 0.700582147 -0.402350694 0.589320362
vn 0.750256121 -0.402656615 -0.524388671
vn 0.224922091 0.964331567 0.139551505
vn 0.209322572 0.972149491 -0.105401888
vn 0.904651642 -0.349075973 0.244440943
vn 0.875999033 -0.45346877 -0.164292276
vn 0.204408467 0.977671623 0.0487385206
vn 0.264661193 0.964086115 -0.0221911725
vn 0.144549653 0.989426315 -0.0118749794
vn 0.367323041 0.90393275 -0.219041675
vn 0.0894183517 0.995643914 0.0264107436
vn 0.053099405 0.995868206 -0.0736681893
vn 0.112400651 0.989624619 0.0894935206
vn 0.0633626431 0.943258405 -0.325958133
vn -0.012739554 0.996274769 -0.0852889642
vn 0.0700623393 0.989886165 0.123356134
vn 0.0179904643 0.990207672 0.13843818
vn -0.0735593215 0.990773141 -0.113832042
vn -0.0942389816 0.944232047 0.315507382
vn -0.273295075 0.945337772 -0.177894101
vn -0.0501136705 0.996505499 0.0668233782
vn -0.0798739269 0.99668926 -0.0151850469
vn -0.0733427033 0.996144533 0.0481347702
vn -0.317331523 0.945609272 0.0715815574
vn -0.988498211 -0.00369988522 0.151186943
vn -0.817429125 -0.0693647042 0.571837485
vn -0.537448764 0.00232574204 0.84329319
vn -0.953203857 -0.00315866852 -0.302311689
vn -0.173846871 -0.0027468605 0.984768867
vn -0.7649436 0.00373046705 -0.64408648
vn 0.21572341 -0.0486398377 0.975242317
vn -0.460254133 -0.000978363794 -0.887786627
vn 0.573337197 -0.012584703 0.819222808
vn -0.0856672153 -0.0505852774 -0.995038807
vn 0.8432706 -0.00619987445 0.537453532
vn 0.302312195 -0.00285958475 -0.953204751
vn 0.984726489 -0.0099007776 0.173826918
vn 0.644046068 -0.00779715506 -0.764947057
vn 0.98805666 -0.0299529694 -0.151151687
vn 0.884926498 -0.0788915828 -0.45900014
vn -0.195638373 0.97304529 0.122100092
vn -0.917030096 0.390942246 0.0788662359
vn -0.946958721 0.113720864 -0.300560713
vn -0.533640623 0.111169003 0.838372946
vn -0.0780166537 0.994430661 -0.0708592087
vn -0.158026591 0.386254668 0.908754587
vn -0.456882209 0.110695191 -0.882612646
vn 0.113366269 0.865639567 0.487663925
vn -0.0764879659 0.385750771 -0.919426858
vn 0.570736468 0.104350977 0.814475894
vn 0.156352237 0.865374327 -0.476110578
vn 0.102150455 0.992884994 0.0611933842
vn 0.640982628 0.103916526 -0.76048851
vn 0.979676902 0.101824559 0.172814623
vn 0.11516425 0.991149604 -0.0660279468
vn 0.903326094 0.37970382 -0.199567065

# Mesh '0' with 284 faces
g 0
usemtl aluminium
f  1//1 2//2 3//3
f  3//3 2//2 4//4
f  1//1 3//3 5//5
f  2//2 6//6 4//4
f  5//5 7//7 1//1
f  4//4 6//6 8//8
f  9//9 1//1 7//7
f  10//10 4//4 8//8
f  9//9 7//7 11//11
f  12//12 10//10 8//8
f  13//13 9//9 11//11
f  12//12 8//8 14//14
f  13//13 11//11 15//15
f  16//16 12//12 14//14
f  15//15 17//17 13//13
f  14//14 18//18 16//16
f  17//17 15//15 19//19
f  20//20 16//16 18//18
f  17//17 19//19 21//21
f  20//20 18//18 22//22
f  21//21 19//19 23//23
f  24//24 20//20 22//22
f  23//23 25//25 21//21
f  24//24 22//22 26//26
f  23//23 27//27 25//25
f  28//28 24//24 26//26
f  29//29 27//27 23//23
f  26//26 30//30 28//28
f  29//29 31//31 27//27
f  31//31 28//28 30//30
f  27//27 31//31 32//32
f  31//31 30//30 32//32
f  33//33 34//34 25//25
f  21//21 25//25 34//34
f  25//25 27//27 33//33
f  34//34 35//35 21//21
f  33//33 27//27 32//32
f  21//21 35//35 17//17
f  36//36 33//33 32//32
f  37//37 17//17 35//35
f  36//36 32//32 30//30
f  17//17 37//37 13//13
f  36//36 30//30 38//38
f  13//13 37//37 39//39
f  26//26 38//38 30//30
f  13//13 39//39 9//9
f  38//38 26//26 40//40
f  9//9 39//39 41//41
f  40//40 26//26 22//22
f  9//9 41//41 1//1
f  22//22 42//42 40//40
f  41//41 43//43 1//1
f  22//22 18//18 42//42
f  1//1 43//43 2//2
f  44//44 42//42 18//18
f  45//45 2//2 43//43
f  44//44 18//18 14//14
f  45//45 6//6 2//2
f  46//46 44//44 14//14
f  47//47 6//6 45//45
f  8//8 46//46 14//14
f  6//6 47//47 48//48
f  8//8 48//48 46//46
f  6//6 48//48 8//8
f  49//49 50//50 47//47
f  47//47 50//50 48//48
f  49//49 47//47 45//45
f  51//51 48//48 50//50
f  49//49 45//45 52//52
f  48//48 51//51 53//53
f  45//45 43//43 52//52
f  53//53 46//46 48//48
f  52//52 43//43 41//41
f  46//46 53//53 44//44
f  41//41 54//54 52//52
f  55//55 44//44 53//53
f  54//54 41//41 39//39
f  42//42 44//44 55//55
f  39//39 56//56 54//54
f  55//55 57//57 42//42
f  58//58 56//56 39//39
f  57//57 59//59 42//42
f  39//39 37//37 58//58
f  59//59 40//40 42//42
f  37//37 35//35 58//58
f  38//38 40//40 59//59
f  35//35 60//60 58//58
f  38//38 59//59 61//61
f  60//60 35//35 34//34
f  38//38 61//61 36//36
f  34//34 62//62 60//60
f  61//61 63//63 36//36
f  62//62 34//34 33//33
f  33//33 36//36 63//63
f  33//33 64//64 62//62
f  63//63 64//64 33//33
f  65//65 66//66 67//67
f  67//67 66//66 68//68
f  65//65 67//67 69//69
f  68//68 66//66 70//70
f  71//71 65//65 69//69
f  72//72 70//70 66//66
f  71//71 69//69 73//73
f  74//74 70//70 72//72
f  75//75 71//71 73//73
f  70//70 74//74 76//76
f  73//73 77//77 75//75
f  76//76 74//74 78//78
f  75//75 77//77 79//79
f  78//78 74//74 80//80
f  77//77 81//81 79//79
f  78//78 80//80 82//82
f  81//81 77//77 83//83
f  82//82 80//80 84//84
f  85//85 81//81 83//83
f  86//86 82//82 84//84
f  85//85 83//83 87//87
f  86//86 84//84 88//88
f  87//87 89//89 85//85
f  88//88 90//90 86//86
f  91//91 85//85 89//89
f  92//92 90//90 88//88
f  89//89 93//93 91//91
f  92//92 94//94 90//90
f  93//93 95//95 91//91
f  96//96 94//94 92//92
f  93//93 96//96 95//95
f  94//94 96//96 93//93
f  29//29 23//23 94//94
f  23//23 90//90 94//94
f  29//29 94//94 31//31
f  90//90 23//23 19//19
f  31//31 94//94 93//93
f  19//19 86//86 90//90
f  31//31 93//93 28//28
f  15//15 86//86 19//19
f  89//89 28//28 93//93
f  15//15 82//82 86//86
f  89//89 24//24 28//28
f  15//15 11//11 82//82
f  89//89 87//87 24//24
f  78//78 82//82 11//11
f  24//24 87//87 20//20
f  78//78 11//11 7//7
f  83//83 20//20 87//87
f  78//78 7//7 76//76
f  16//16 20//20 83//83
f  76//76 7//7 5//5
f  77//77 16//16 83//83
f  70//70 76//76 5//5
f  12//12 16//16 77//77
f  5//5 3//3 70//70
f  12//12 77//77 73//73
f  70//70 3//3 68//68
f  10//10 12//12 73//73
f  3//3 4//4 68//68
f  73//73 69//69 10//10
f  4//4 67//67 68//68
f  4//4 10//10 69//69
f  67//67 4//4 69//69
f  96//96 92//92 97//97
f  97//97 92//92 98//98
f  96//96 97//97 99//99
f  92//92 100//100 98//98
f  96//96 99//99 95//95
f  88//88 100//100 92//92
f  95//95 99//99 91//91
f  84//84 100//100 88//88
f  101//101 91//91 99//99
f  102//102 100//100 84//84
f  91//91 101//101 85//85
f  84//84 103//103 102//102
f  85//85 101//101 104//104
f  80//80 103//103 84//84
f  81//81 85//85 104//104
f  74//74 103//103 80//80
f  104//104 105//105 81//81
f  106//106 103//103 74//74
f  105//105 79//79 81//81
f  74//74 72//72 106//106
f  107//107 79//79 105//105
f  72//72 108//108 106//106
f  109//109 79//79 107//107
f  72//72 110//110 108//108
f  75//75 79//79 109//109
f  110//110 72//72 66//66
f  109//109 71//71 75//75
f  66//66 65//65 110//110
f  111//111 71//71 109//109
f  65//65 112//112 110//110
f  65//65 71//71 111//111
f  111//111 112//112 65//65
f  113//113 114//114 51//51
f  53//53 51//51 114//114
f  51//51 50//50 113//113
f  114//114 115//115 53//53
f  113//113 50//50 49//49
f  53//53 115//115 55//55
f  116//116 113//113 49//49
f  115//115 117//117 55//55
f  116//116 49//49 52//52
f  55//55 117//117 57//57
f  118//118 116//116 52//52
f  117//117 119//119 57//57
f  54//54 118//118 52//52
f  59//59 57//57 119//119
f  120//120 118//118 54//54
f  119//119 121//121 59//59
f  120//120 54//54 56//56
f  61//61 59//59 121//121
f  56//56 122//122 120//120
f  121//121 123//123 61//61
f  58//58 122//122 56//56
f  123//123 63//63 61//61
f  124//124 122//122 58//58
f  63//63 123//123 125//125
f  58//58 60//60 124//124
f  125//125 64//64 63//63
f  60//60 126//126 124//124
f  127//127 64//64 125//125
f  60//60 62//62 126//126
f  64//64 127//127 128//128
f  62//62 128//128 126//126
f  62//62 64//64 128//128
f  126//126 122//122 124//124
f  122//122 126//126 128//128
f  122//122 128//128 114//114
f  128//128 119//119 114//114
f  113//113 122//122 114//114
f  119//119 128//128 127//127
f  114//114 119//119 117//117
f  122//122 113//113 116//116
f  127//127 121//121 119//119
f  117//117 115//115 114//114
f  120//120 122//122 116//116
f  121//121 127//127 125//125
f  116//116 118//118 120//120
f  125//125 123//123 121//121
f  129//129 130//130 112//112
f  112//112 130//130 110//110
f  129//129 112//112 111//111
f  110//110 130//130 131//131
f  109//109 129//129 111//111
f  110//110 131//131 108//108
f  132//132 129//129 109//109
f  108//108 131//131 133//133
f  132//132 109//109 107//107
f  106//106 108//108 133//133
f  107//107 134//134 132//132
f  133//133 135//135 106//106
f  107//107 105//105 134//134
f  103//103 106//106 135//135
f  134//134 105//105 136//136
f  135//135 137//137 103//103
f  105//105 104//104 136//136
f  137//137 102//102 103//103
f  104//104 138//138 136//136
f  139//139 102//102 137//137
f  104//104 101//101 138//138
f  102//102 139//139 100//100
f  138//138 101//101 140//140
f  141//141 100//100 139//139
f  101//101 99//99 140//140
f  100//100 141//141 98//98
f  140//140 99//99 142//142
f  143//143 98//98 141//141
f  99//99 97//97 142//142
f  98//98 143//143 144//144
f  97//97 144//144 142//142
f  97//97 98//98 144//144
f  142//142 144//144 140//140
f  143//143 140//140 144//144
f  140//140 143//143 133//133
f  143//143 139//139 133//133
f  133//133 129//129 140//140
f  143//143 141//141 139//139
f  137//137 133//133 139//139
f  133//133 130//130 129//129
f  140//140 129//129 136//136
f  133//133 137//137 135//135
f  131//131 130//130 133//133
f  134//134 136//136 129//129
f  140//140 136//136 138//138
f  129//129 132//132 134//134

