# File produced by Open Asset Import Library (http://www.assimp.sf.net)
# (assimp v5.2.0)

mtllib geometry_13.mtl

# 43 vertex positions
v  200 347 -225
v  200 348.100006 -225
v  198.585449 348.100006 -225
v  124.452141 348.100006 -225
v  120 347 -225
v  121.414558 348.100006 -225
v  120 348.100006 -225
v  200 347 -32
v  120 347 -32
v  216.858337 347 -20.1000004
v  217 347 -20.1000004
v  216.191666 347 -20.1000004
v  217 347 -32
v  103.14167 347 -20.1000004
v  103 347 -32
v  103 347 -20.1000004
v  201.302505 348.100006 -32
v  200.840439 348.100006 -32
v  216.279984 348.100006 -32
v  200.541824 348.100006 -32
v  216.670898 348.100006 -32
v  200 348.100006 -32
v  220.884399 348.100006 -32
v  200 348.100006 -42.6150513
v  220.868988 348.007416 -20.1000004
v  220.901367 348.016571 -20.1000004
v  220.903946 348.017303 -20.1000004
v  221.044876 348.100006 -25.8711624
v  220.990234 348.100006 -20.1000004
v  99.0984879 348.015869 -32
v  102.967484 347.008453 -20.1000004
v  99.1154556 348.099304 -20.1000004
v  98.9551163 348.100006 -26.1288376
v  99.0106964 348.100006 -32
v  99.1129837 348.100006 -20.1000004
v  120 348.100006 -32
v  119.320145 348.100006 -32
v  119.070732 348.100006 -32
v  118.622009 348.100006 -32
v  103.644531 348.100006 -32
v  103.264587 348.100006 -32
v  99.1552582 348.100006 -32
v  120 348.100006 -214.384949

# 0 UV coordinates

# 21 vertex normals
vn 0 0 1
vn 0 1 0
vn 0 0.99999994 0
vn -1 0 0
vn -0.262329549 0.964971542 0.00359908678
vn -0.251980335 0.96773237 0
vn -0.252148569 0.96768862 5.84114023e-05
vn -0.272461355 0.962140322 0.00713326922
vn -0.272464603 0.962139308 0.00713438587
vn -0.393653572 0.919251978 0.00356053375
vn -0.395154595 0.91860795 0.00351438462
vn -0.691932082 0.721932828 -0.0065512564
vn 0.251973718 0.967734098 1.06947687e-06
vn 0.251976758 0.967733324 0
vn 0.265699476 0.964049399 -0.00353812287
vn 0.272293806 0.962188125 -0.00707395747
vn 0.272467077 0.962138653 -0.00713439658
vn 0.396704972 0.917939544 -0.00346741616
vn 0.691905499 0.721958339 0.00655001495
vn 0.273146152 0.961945891 -0.0071524377
vn 1 0 0

# Mesh '0' with 48 faces
g 0
usemtl black
f  1//1 2//1 3//1
f  1//1 3//1 4//1
f  4//1 5//1 1//1
f  5//1 4//1 6//1
f  5//1 6//1 7//1
f  8//2 1//2 9//2
f  1//2 5//2 9//2
f  10//2 8//2 9//2
f  8//2 10//2 11//2
f  9//2 12//2 10//2
f  11//2 13//3 8//2
f  9//2 14//2 12//2
f  14//2 9//2 15//2
f  15//2 16//2 14//2
f  17//1 8//1 13//1
f  8//1 17//1 18//1
f  13//1 19//1 17//1
f  8//1 18//1 20//1
f  13//1 21//1 19//1
f  8//1 20//1 22//1
f  13//1 23//1 21//1
f  2//4 1//4 8//4
f  8//4 24//4 2//4
f  8//4 22//4 24//4
f  13//5 11//6 25//7
f  13//5 25//7 26//8
f  26//8 23//9 13//5
f  23//9 26//8 27//10
f  27//10 28//11 23//9
f  28//11 27//10 29//12
f  16//13 15//14 30//15
f  30//15 31//16 16//13
f  30//15 32//17 31//16
f  32//17 30//15 33//18
f  30//15 34//19 33//18
f  33//18 35//20 32//17
f  9//1 36//1 37//1
f  9//1 37//1 38//1
f  9//1 38//1 39//1
f  9//1 39//1 40//1
f  40//1 15//1 9//1
f  15//1 40//1 41//1
f  15//1 41//1 42//1
f  42//1 30//1 15//1
f  30//1 42//1 34//1
f  5//21 7//21 43//21
f  5//21 43//21 36//21
f  36//21 9//21 5//21

