# File produced by Open Asset Import Library (http://www.assimp.sf.net)
# (assimp v5.2.0)

mtllib geo6.mtl

# 128 vertex positions
v  1722.50012 1716 -35.000061
v  1722.50012 1712.56934 -34.831543
v  1715.50012 1712.56934 -34.831543
v  1715.50012 1716 -35.000061
v  1722.50012 1719.43054 -34.831543
v  1715.50012 1719.43054 -34.831543
v  1722.50012 1722.82812 -34.3275146
v  1715.50012 1722.82812 -34.3275146
v  1722.50012 1726.15991 -33.492981
v  1715.50012 1709.17188 -34.3275146
v  1722.50012 1709.17188 -34.3275146
v  1715.50012 1705.84009 -33.492981
v  1715.50012 1726.15991 -33.492981
v  1722.50012 1729.39392 -32.3358154
v  1722.50012 1705.84009 -33.492981
v  1715.50012 1702.60608 -32.3358154
v  1715.50012 1729.39392 -32.3358154
v  1722.50012 1732.4989 -30.8673096
v  1722.50012 1702.60608 -32.3358154
v  1715.50012 1699.5011 -30.8673096
v  1715.50012 1732.4989 -30.8673096
v  1722.50012 1735.44495 -29.1015015
v  1722.50012 1699.5011 -30.8673096
v  1715.50012 1696.55505 -29.1015015
v  1715.50012 1735.44495 -29.1015015
v  1722.50012 1738.20374 -27.0554199
v  1722.50012 1696.55505 -29.1015015
v  1715.50012 1693.79626 -27.0554199
v  1715.50012 1738.20374 -27.0554199
v  1722.50012 1740.74878 -24.7487793
v  1722.50012 1693.79626 -27.0554199
v  1715.50012 1691.25122 -24.7487793
v  1715.50012 1740.74878 -24.7487793
v  1722.50012 1743.05542 -22.2037964
v  1722.50012 1691.25122 -24.7487793
v  1715.50012 1688.94458 -22.2037964
v  1715.50012 1743.05542 -22.2037964
v  1722.50012 1745.10144 -19.4450073
v  1722.50012 1688.94458 -22.2037964
v  1715.50012 1686.89856 -19.4450073
v  1715.50012 1745.10144 -19.4450073
v  1722.50012 1746.86719 -16.4989624
v  1722.50012 1686.89856 -19.4450073
v  1715.50012 1685.13269 -16.4989624
v  1715.50012 1746.86719 -16.4989624
v  1722.50012 1748.33582 -13.3939819
v  1722.50012 1685.13269 -16.4989624
v  1715.50012 1683.66418 -13.3939819
v  1715.50012 1748.33582 -13.3939819
v  1722.50012 1749.49292 -10.1600342
v  1722.50012 1683.66418 -13.3939819
v  1715.50012 1682.50708 -10.1600342
v  1715.50012 1749.49292 -10.1600342
v  1722.50012 1750.32751 -6.82824707
v  1722.50012 1682.50708 -10.1600342
v  1715.50012 1681.67249 -6.82824707
v  1715.50012 1750.32751 -6.82824707
v  1722.50012 1750.83142 -3.43066406
v  1722.50012 1681.67249 -6.82824707
v  1715.50012 1681.16858 -3.43066406
v  1715.50012 1750.83142 -3.43066406
v  1722.50012 1751 -6.10351562e-05
v  1722.50012 1681.16858 -3.43066406
v  1715.50012 1681 -6.10351562e-05
v  1722.50012 1681 -6.10351562e-05
v  1715.50012 1681.16858 3.43054199
v  1722.50012 1681.16858 3.43054199
v  1715.50012 1681.67249 6.828125
v  1722.50012 1681.67249 6.828125
v  1715.50012 1682.50708 10.1599121
v  1722.50012 1682.50708 10.1599121
v  1715.50012 1683.66418 13.3938599
v  1722.50012 1683.66418 13.3938599
v  1715.50012 1685.13269 16.4988403
v  1722.50012 1685.13269 16.4988403
v  1715.50012 1686.89856 19.4448853
v  1722.50012 1686.89856 19.4448853
v  1715.50012 1688.94458 22.2037354
v  1722.50012 1688.94458 22.2037354
v  1715.50012 1691.25122 24.7486572
v  1722.50012 1691.25122 24.7486572
v  1715.50012 1693.79626 27.0552979
v  1722.50012 1693.79626 27.0552979
v  1715.50012 1696.55505 29.1013794
v  1722.50012 1696.55505 29.1013794
v  1715.50012 1699.5011 30.8671875
v  1722.50012 1699.5011 30.8671875
v  1715.50012 1702.60608 32.3357544
v  1722.50012 1702.60608 32.3357544
v  1715.50012 1705.84009 33.4928589
v  1722.50012 1705.84009 33.4928589
v  1715.50012 1709.17188 34.3274536
v  1722.50012 1709.17188 34.3274536
v  1715.50012 1712.56934 34.8314209
v  1722.50012 1712.56934 34.8314209
v  1715.50012 1716 34.999939
v  1722.50012 1716 34.999939
v  1722.50012 1719.43054 34.8314209
v  1715.50012 1719.43054 34.8314209
v  1715.50012 1722.82812 34.3274536
v  1722.50012 1722.82812 34.3274536
v  1715.50012 1726.15991 33.4928589
v  1722.50012 1726.15991 33.4928589
v  1715.50012 1729.39392 32.3357544
v  1722.50012 1729.39392 32.3357544
v  1715.50012 1732.4989 30.8671875
v  1722.50012 1732.4989 30.8671875
v  1715.50012 1735.44495 29.1013794
v  1722.50012 1735.44495 29.1013794
v  1715.50012 1738.20374 27.0552979
v  1722.50012 1738.20374 27.0552979
v  1715.50012 1740.74878 24.7486572
v  1722.50012 1740.74878 24.7486572
v  1715.50012 1743.05542 22.2037354
v  1722.50012 1743.05542 22.2037354
v  1715.50012 1745.10144 19.4448853
v  1722.50012 1745.10144 19.4448853
v  1715.50012 1746.86719 16.4988403
v  1722.50012 1746.86719 16.4988403
v  1715.50012 1748.33582 13.3938599
v  1722.50012 1748.33582 13.3938599
v  1715.50012 1749.49292 10.1599121
v  1715.50012 1751 -6.10351562e-05
v  1722.50012 1750.83142 3.43054199
v  1715.50012 1750.83142 3.43054199
v  1722.50012 1750.32751 6.828125
v  1715.50012 1750.32751 6.828125
v  1722.50012 1749.49292 10.1599121

# 0 UV coordinates

# 128 vertex normals
vn 0.302823365 -0.0156030003 -0.952918947
vn 0.0160506237 -0.114292927 -0.993317425
vn -0.0160503797 -0.081700094 -0.996527672
vn -0.302826673 0.0156031698 -0.952917933
vn 0.0160494298 0.0817010626 -0.996527672
vn -0.0160492938 0.114291579 -0.993317544
vn 0.0639064908 0.17864424 -0.98183614
vn -0.0639068186 0.21068871 -0.97546196
vn 0.646465361 0.209483713 -0.733620524
vn -0.775810897 -0.11295189 -0.620773315
vn 0.775808811 -0.133211702 -0.61674583
vn -0.999910533 -0.00367323053 -0.0128638037
vn -0.646462142 0.233396426 -0.7263695
vn 0.0160442088 0.367457271 -0.929902017
vn 0.999910474 -0.0040925513 -0.0127367191
vn -0.439335704 -0.330137759 -0.835459769
vn -0.0160443094 0.397702634 -0.917374015
vn 0.980911672 0.0888435319 -0.1729711
vn 0.439337999 -0.35731101 -0.824203253
vn -0.0160490386 -0.456829458 -0.889409602
vn -0.980911791 0.0944600478 -0.16996859
vn 0.0639053509 0.54077816 -0.838734269
vn 0.016049087 -0.485710263 -0.873972535
vn -0.288836509 -0.518789768 -0.804630756
vn -0.0639052615 0.567950785 -0.82057786
vn 0.0160440933 0.621571779 -0.783192992
vn 0.288836122 -0.544857621 -0.787212729
vn -0.0639079511 -0.620380938 -0.781692564
vn -0.0160439927 0.646877766 -0.762424886
vn 0.302818596 0.662776828 -0.684856057
vn 0.0639075339 -0.645638525 -0.760964334
vn -0.0160486028 -0.695338905 -0.71850282
vn -0.302819788 0.684847474 -0.662785172
vn 0.0160480756 0.7624228 -0.64688009
vn 0.016048681 -0.718494177 -0.695347905
vn -0.992022395 -0.0961251408 -0.0815576911
vn -0.0160481762 0.78319633 -0.621567309
vn 0.999852061 0.0141417086 -0.00978766754
vn 0.992022336 -0.0987436473 -0.0783658177
vn -0.0639101192 -0.820580363 -0.567946613
vn -0.999852061 0.0144545902 -0.00931936409
vn 0.0160414577 0.873972595 -0.485710293
vn 0.0639097914 -0.838731289 -0.540782154
vn -0.0160516128 -0.873967469 -0.485719293
vn -0.0160412993 0.889402449 -0.456843555
vn 0.157561958 0.906024575 -0.392802507
vn 0.0160516277 -0.889407158 -0.456834108
vn -0.302818745 -0.874415457 -0.379075944
vn -0.157562971 0.918403208 -0.362918049
vn 0.0160445422 0.95193702 -0.305873454
vn 0.302819103 -0.886357665 -0.350243568
vn -0.0160445496 -0.95193702 -0.305873454
vn -0.0160445347 0.961440444 -0.274544805
vn 0.871310174 0.479671687 -0.103603639
vn 0.0160445329 -0.961440444 -0.274544805
vn -0.871308148 -0.479675144 -0.103604384
vn -0.871309757 0.482808352 -0.0878378302
vn 0.0160409715 0.993319809 -0.114273369
vn 0.871307731 -0.482811809 -0.0878384635
vn -0.0160409715 -0.993319809 -0.114273369
vn -0.0160409808 0.99652791 -0.0817001089
vn 0.302811921 0.952922523 -0.0156088034
vn 0.0160409808 -0.99652791 -0.0817001089
vn -0.157552421 -0.98737812 -0.0161731839
vn 0.157552421 -0.98737812 0.0161731839
vn -0.0160409808 -0.99652791 0.0817001089
vn 0.0160409715 -0.993319809 0.114273369
vn -0.995514989 -0.0930760726 0.0169334281
vn 0.995515049 -0.0924713463 0.0199727621
vn -0.0160445347 -0.961440444 0.274544805
vn 0.0160445422 -0.95193702 0.305873454
vn -0.999472201 -0.0302113593 0.0119379964
vn 0.999472201 -0.0298043434 0.0129207568
vn -0.0160516277 -0.889407158 0.456834108
vn 0.0160516128 -0.873967469 0.485719293
vn -0.925743639 -0.317818284 0.204915747
vn 0.925743639 -0.31094113 0.215207949
vn -0.0160517786 -0.783198595 0.621564388
vn 0.0160518382 -0.762420237 0.646882951
vn -0.288837045 -0.68795377 0.66580236
vn 0.288834751 -0.665785611 0.687970877
vn -0.0639043078 -0.645638645 0.760964453
vn 0.063904725 -0.620381057 0.781692684
vn -0.0160468575 -0.569040775 0.822152674
vn 0.0160468835 -0.541815996 0.840343952
vn -0.653517604 -0.367690384 0.661603034
vn 0.653515816 -0.345831722 0.673288643
vn -0.0160496365 -0.397707611 0.917371809
vn 0.0160496123 -0.367452115 0.929903984
vn -0.704223037 -0.217189193 0.675942957
vn 0.704224765 -0.194944516 0.682688892
vn -0.925378978 -0.0800268129 0.370499074
vn 0.925380111 -0.0678514913 0.37291798
vn -0.999930143 -0.00135126163 0.011745004
vn 0.999930143 -0.000965968007 0.0117831416
vn -0.0479793437 0 0.998848319
vn 0.0956290513 0 0.995417058
vn 0.012037145 0.0980062485 0.995113015
vn -0.0240690578 0.0979849547 0.99489677
vn -0.787450254 0.110334434 0.606422722
vn 0.787451088 0.130133212 0.602483332
vn -0.0639094263 0.274017274 0.959598899
vn 0.0639090911 0.305283993 0.95011431
vn -0.0160496123 0.367452115 0.929903984
vn 0.0160496421 0.397707611 0.917371809
vn -0.30282566 0.435444444 0.84775275
vn 0.302826881 0.462967902 0.833040476
vn -0.0160468835 0.541815996 0.840343952
vn 0.0160468575 0.569040775 0.822152674
vn -0.98841089 0.0943679065 0.11890547
vn 0.988410771 0.0982105434 0.115753181
vn -0.0160465185 0.695335805 0.7185058
vn 0.01604666 0.718488395 0.695353806
vn -0.0639204457 0.760959208 0.645643353
vn 0.0639201999 0.78169769 0.620373189
vn -0.142073274 0.813929737 0.563323677
vn 0.142074063 0.831936359 0.536373794
vn -0.439338475 0.785209537 0.436380208
vn 0.43933484 0.799073815 0.410446078
vn -0.0160511434 0.917366505 0.397719771
vn 0.0160512496 0.929900348 0.367461294
vn -0.999097824 0.0404334627 0.0129919555
vn -0.302811921 0.952922523 0.0156088034
vn 0.0160409808 0.99652791 0.0817001089
vn -0.0160409715 0.993319809 0.114273369
vn 0.0639077201 0.98183918 0.178627029
vn -0.0639078617 0.97546196 0.21068871
vn 0.999097705 0.0408371389 0.011661279

# Mesh '0' with 252 faces
g 0
usemtl orange
f  1//1 2//2 3//3
f  4//4 1//1 3//3
f  5//5 1//1 4//4
f  4//4 6//6 5//5
f  5//5 6//6 7//7
f  6//6 8//8 7//7
f  9//9 7//7 8//8
f  10//10 3//3 2//2
f  2//2 11//11 10//10
f  12//12 10//10 11//11
f  8//8 13//13 9//9
f  9//9 13//13 14//14
f  15//15 12//12 11//11
f  16//16 12//12 15//15
f  13//13 17//17 14//14
f  18//18 14//14 17//17
f  15//15 19//19 16//16
f  20//20 16//16 19//19
f  17//17 21//21 18//18
f  18//18 21//21 22//22
f  23//23 20//20 19//19
f  24//24 20//20 23//23
f  21//21 25//25 22//22
f  26//26 22//22 25//25
f  23//23 27//27 24//24
f  28//28 24//24 27//27
f  25//25 29//29 26//26
f  26//26 29//29 30//30
f  31//31 28//28 27//27
f  32//32 28//28 31//31
f  29//29 33//33 30//30
f  34//34 30//30 33//33
f  31//31 35//35 32//32
f  36//36 32//32 35//35
f  33//33 37//37 34//34
f  34//34 37//37 38//38
f  39//39 36//36 35//35
f  40//40 36//36 39//39
f  37//37 41//41 38//38
f  42//42 38//38 41//41
f  39//39 43//43 40//40
f  44//44 40//40 43//43
f  41//41 45//45 42//42
f  42//42 45//45 46//46
f  47//47 44//44 43//43
f  48//48 44//44 47//47
f  45//45 49//49 46//46
f  50//50 46//46 49//49
f  47//47 51//51 48//48
f  52//52 48//48 51//51
f  49//49 53//53 50//50
f  50//50 53//53 54//54
f  55//55 52//52 51//51
f  56//56 52//52 55//55
f  53//53 57//57 54//54
f  58//58 54//54 57//57
f  55//55 59//59 56//56
f  60//60 56//56 59//59
f  57//57 61//61 58//58
f  58//58 61//61 62//62
f  63//63 60//60 59//59
f  64//64 60//60 63//63
f  63//63 65//65 64//64
f  66//66 64//64 65//65
f  67//67 66//66 65//65
f  68//68 66//66 67//67
f  67//67 69//69 68//68
f  70//70 68//68 69//69
f  71//71 70//70 69//69
f  72//72 70//70 71//71
f  71//71 73//73 72//72
f  74//74 72//72 73//73
f  75//75 74//74 73//73
f  76//76 74//74 75//75
f  75//75 77//77 76//76
f  78//78 76//76 77//77
f  79//79 78//78 77//77
f  80//80 78//78 79//79
f  79//79 81//81 80//80
f  82//82 80//80 81//81
f  83//83 82//82 81//81
f  84//84 82//82 83//83
f  83//83 85//85 84//84
f  86//86 84//84 85//85
f  87//87 86//86 85//85
f  88//88 86//86 87//87
f  87//87 89//89 88//88
f  90//90 88//88 89//89
f  91//91 90//90 89//89
f  92//92 90//90 91//91
f  91//91 93//93 92//92
f  94//94 92//92 93//93
f  95//95 94//94 93//93
f  96//96 94//94 95//95
f  95//95 97//97 96//96
f  96//96 97//97 98//98
f  99//99 96//96 98//98
f  100//100 99//99 98//98
f  98//98 101//101 100//100
f  102//102 100//100 101//101
f  103//103 102//102 101//101
f  104//104 102//102 103//103
f  103//103 105//105 104//104
f  106//106 104//104 105//105
f  107//107 106//106 105//105
f  108//108 106//106 107//107
f  107//107 109//109 108//108
f  110//110 108//108 109//109
f  111//111 110//110 109//109
f  112//112 110//110 111//111
f  111//111 113//113 112//112
f  114//114 112//112 113//113
f  115//115 114//114 113//113
f  116//116 114//114 115//115
f  115//115 117//117 116//116
f  118//118 116//116 117//117
f  119//119 118//118 117//117
f  120//120 118//118 119//119
f  119//119 121//121 120//120
f  122//122 120//120 121//121
f  61//61 123//123 62//62
f  124//124 62//62 123//123
f  123//123 125//125 124//124
f  124//124 125//125 126//126
f  125//125 127//127 126//126
f  128//128 126//126 127//127
f  128//128 122//122 121//121
f  127//127 122//122 128//128
f  96//96 99//99 100//100
f  96//96 100//100 94//94
f  110//110 94//94 100//100
f  110//110 122//122 94//94
f  41//41 94//94 122//122
f  41//41 12//12 94//94
f  12//12 72//72 94//94
f  94//94 72//72 92//92
f  76//76 92//92 72//72
f  92//92 76//76 90//90
f  76//76 86//86 90//90
f  88//88 90//90 86//86
f  80//80 86//86 76//76
f  86//86 80//80 82//82
f  82//82 84//84 86//86
f  106//106 110//110 100//100
f  102//102 106//106 100//100
f  104//104 106//106 102//102
f  106//106 108//108 110//110
f  78//78 80//80 76//76
f  72//72 74//74 76//76
f  68//68 72//72 12//12
f  70//70 72//72 68//68
f  118//118 122//122 110//110
f  118//118 110//110 116//116
f  110//110 114//114 116//116
f  114//114 110//110 112//112
f  120//120 122//122 118//118
f  12//12 36//36 68//68
f  56//56 68//68 36//36
f  64//64 68//68 56//56
f  68//68 64//64 66//66
f  60//60 64//64 56//56
f  48//48 56//56 36//36
f  48//48 52//52 56//56
f  36//36 40//40 48//48
f  44//44 48//48 40//40
f  122//122 57//57 41//41
f  57//57 122//122 123//123
f  122//122 127//127 123//123
f  125//125 123//123 127//127
f  57//57 123//123 61//61
f  41//41 57//57 49//49
f  53//53 49//49 57//57
f  41//41 49//49 45//45
f  36//36 12//12 16//16
f  36//36 16//16 24//24
f  36//36 24//24 28//28
f  32//32 36//36 28//28
f  16//16 20//20 24//24
f  21//21 12//12 41//41
f  33//33 21//21 41//41
f  37//37 33//33 41//41
f  25//25 21//21 33//33
f  25//25 33//33 29//29
f  21//21 10//10 12//12
f  21//21 13//13 10//10
f  13//13 21//21 17//17
f  13//13 4//4 10//10
f  4//4 3//3 10//10
f  13//13 8//8 4//4
f  6//6 4//4 8//8
f  111//111 109//109 107//107
f  101//101 111//111 107//107
f  101//101 95//95 111//111
f  95//95 128//128 111//111
f  111//111 128//128 119//119
f  117//117 111//111 119//119
f  117//117 115//115 111//111
f  113//113 111//111 115//115
f  119//119 128//128 121//121
f  101//101 107//107 103//103
f  103//103 107//107 105//105
f  128//128 95//95 38//38
f  38//38 54//54 128//128
f  62//62 128//128 54//54
f  62//62 126//126 128//128
f  126//126 62//62 124//124
f  95//95 101//101 97//97
f  101//101 98//98 97//97
f  58//58 62//62 54//54
f  46//46 54//54 38//38
f  54//54 46//46 50//50
f  42//42 46//46 38//38
f  95//95 15//15 38//38
f  38//38 15//15 18//18
f  38//38 18//18 30//30
f  38//38 30//30 34//34
f  30//30 18//18 22//22
f  26//26 30//30 22//22
f  15//15 11//11 18//18
f  11//11 9//9 18//18
f  14//14 18//18 9//9
f  11//11 1//1 9//9
f  1//1 7//7 9//9
f  7//7 1//1 5//5
f  11//11 2//2 1//1
f  95//95 73//73 15//15
f  93//93 73//73 95//95
f  73//73 93//93 77//77
f  91//91 77//77 93//93
f  91//91 87//87 77//77
f  87//87 91//91 89//89
f  77//77 87//87 81//81
f  83//83 81//81 87//87
f  87//87 85//85 83//83
f  77//77 81//81 79//79
f  77//77 75//75 73//73
f  15//15 73//73 69//69
f  69//69 73//73 71//71
f  69//69 39//39 15//15
f  19//19 15//15 39//39
f  27//27 19//19 39//39
f  27//27 23//23 19//19
f  39//39 69//69 59//59
f  59//59 69//69 65//65
f  67//67 65//65 69//69
f  59//59 65//65 63//63
f  39//39 59//59 51//51
f  59//59 55//55 51//51
f  51//51 43//43 39//39
f  43//43 51//51 47//47
f  31//31 27//27 39//39
f  31//31 39//39 35//35

